AnekMalayalam-Thin.ufo
<glyph name="dollar" format="2">
  <advance width="1017"/>
  <unicode hex="0024"/>
  <outline>
    <component base="S"/>
    <contour>
      <point x="520" y="1500" type="line"/>
      <point x="484" y="1500" type="line"/>
      <point x="484" y="1278" type="line"/>
      <point x="520" y="1278" type="line"/>
    </contour>
    <contour>
      <point x="520" y="0" type="line"/>
      <point x="484" y="0" type="line"/>
      <point x="484" y="-228" type="line"/>
      <point x="520" y="-228" type="line"/>
    </contour>
  </outline>
</glyph>
<glyph name="quotesingle" format="2">
  <advance width="304"/>
  <unicode hex="0027"/>
  <outline>
    <contour>
      <point x="172" y="1329" type="line"/>
      <point x="132" y="1329" type="line"/>
      <point x="137" y="871" type="line"/>
      <point x="168" y="871" type="line"/>
    </contour>
  </outline>
</glyph>
<glyph name="asterisk" format="2">
  <advance width="749"/>
  <unicode hex="002A"/>
  <outline>
    <contour>
      <point x="378" y="966" type="line"/>
      <point x="371" y="966" type="line"/>
      <point x="550" y="724" type="line"/>
      <point x="581" y="748" type="line"/>
      <point x="391" y="984" type="line"/>
      <point x="388" y="974" type="line"/>
      <point x="669" y="1050" type="line"/>
      <point x="659" y="1086" type="line"/>
      <point x="381" y="1000" type="line"/>
      <point x="389" y="992" type="line"/>
      <point x="394" y="1278" type="line"/>
      <point x="356" y="1278" type="line"/>
      <point x="361" y="992" type="line"/>
      <point x="367" y="1000" type="line"/>
      <point x="89" y="1086" type="line"/>
      <point x="80" y="1050" type="line"/>
      <point x="361" y="974" type="line"/>
      <point x="358" y="984" type="line"/>
      <point x="168" y="748" type="line"/>
      <point x="198" y="724" type="line"/>
    </contour>
  </outline>
</glyph>
<glyph name="three" format="2">
  <advance width="953"/>
  <unicode hex="0033"/>
  <outline>
    <contour>
      <point x="452" y="-18" type="curve" smooth="yes"/>
      <point x="716" y="-18"/>
      <point x="837" y="113"/>
      <point x="837" y="321" type="curve" smooth="yes"/>
      <point x="837" y="364" type="line" smooth="yes"/>
      <point x="837" y="547"/>
      <point x="748" y="661"/>
      <point x="526" y="668" type="curve"/>
      <point x="522" y="661" type="line"/>
      <point x="528" y="657" type="line"/>
      <point x="744" y="662"/>
      <point x="825" y="785"/>
      <point x="825" y="947" type="curve" smooth="yes"/>
      <point x="825" y="976" type="line" smooth="yes"/>
      <point x="825" y="1176"/>
      <point x="719" y="1295"/>
      <point x="468" y="1295" type="curve" smooth="yes"/>
      <point x="301" y="1295"/>
      <point x="175" y="1243"/>
      <point x="108" y="1193" type="curve"/>
      <point x="102" y="1152" type="line"/>
      <point x="188" y="1211"/>
      <point x="307" y="1259"/>
      <point x="467" y="1259" type="curve" smooth="yes"/>
      <point x="692" y="1259"/>
      <point x="786" y="1158"/>
      <point x="786" y="976" type="curve" smooth="yes"/>
      <point x="786" y="946" type="line" smooth="yes"/>
      <point x="786" y="787"/>
      <point x="711" y="679"/>
      <point x="492" y="677" type="curve" smooth="yes"/>
      <point x="265" y="675" type="line"/>
      <point x="265" y="644" type="line"/>
      <point x="484" y="643" type="line" smooth="yes"/>
      <point x="712" y="642"/>
      <point x="798" y="544"/>
      <point x="798" y="363" type="curve" smooth="yes"/>
      <point x="798" y="322" type="line" smooth="yes"/>
      <point x="798" y="134"/>
      <point x="689" y="18"/>
      <point x="452" y="18" type="curve" smooth="yes"/>
      <point x="310" y="18"/>
      <point x="179" y="64"/>
      <point x="95" y="119" type="curve"/>
      <point x="101" y="74" type="line"/>
      <point x="162" y="36"/>
      <point x="291" y="-18"/>
    </contour>
  </outline>
</glyph>
<glyph name="four" format="2">
  <advance width="966"/>
  <unicode hex="0034"/>
  <outline>
    <contour>
      <point x="741" y="0" type="line"/>
      <point x="741" y="1278" type="line"/>
      <point x="648" y="1278" type="line"/>
      <point x="63" y="335" type="line"/>
      <point x="63" y="281" type="line"/>
      <point x="933" y="281" type="line"/>
      <point x="933" y="316" type="line"/>
      <point x="86" y="316" type="line"/>
      <point x="102" y="294" type="line"/>
      <point x="102" y="327" type="line"/>
      <point x="672" y="1245" type="line"/>
      <point x="703" y="1245" type="line"/>
      <point x="702" y="994" type="line"/>
      <point x="702" y="0" type="line"/>
    </contour>
  </outline>
</glyph>
<glyph name="less" format="2">
  <advance width="1041"/>
  <unicode hex="003C"/>
  <outline>
    <contour>
      <point x="872" y="877" type="line"/>
      <point x="872" y="915" type="line"/>
      <point x="120" y="660" type="line"/>
      <point x="120" y="591" type="line"/>
      <point x="872" y="336" type="line"/>
      <point x="872" y="374" type="line"/>
      <point x="155" y="615" type="line"/>
      <point x="155" y="636" type="line"/>
    </contour>
  </outline>
</glyph>
<glyph name="B" format="2">
  <advance width="1122"/>
  <unicode hex="0042"/>
  <anchor x="561" y="0" name="bottom"/>
  <anchor x="561" y="1278" name="top"/>
  <outline>
    <contour>
      <point x="673" y="0" type="line" smooth="yes"/>
      <point x="911" y="0"/>
      <point x="1006" y="128"/>
      <point x="1006" y="315" type="curve" smooth="yes"/>
      <point x="1006" y="368" type="line" smooth="yes"/>
      <point x="1006" y="549"/>
      <point x="917" y="663"/>
      <point x="695" y="670" type="curve"/>
      <point x="701" y="659" type="line"/>
      <point x="895" y="670"/>
      <point x="979" y="780"/>
      <point x="979" y="950" type="curve" smooth="yes"/>
      <point x="979" y="974" type="line" smooth="yes"/>
      <point x="979" y="1157"/>
      <point x="890" y="1278"/>
      <point x="654" y="1278" type="curve" smooth="yes"/>
      <point x="203" y="1278" type="line"/>
      <point x="203" y="1243" type="line"/>
      <point x="654" y="1243" type="line" smooth="yes"/>
      <point x="866" y="1243"/>
      <point x="940" y="1138"/>
      <point x="940" y="974" type="curve" smooth="yes"/>
      <point x="940" y="949" type="line" smooth="yes"/>
      <point x="940" y="784"/>
      <point x="859" y="679"/>
      <point x="656" y="679" type="curve" smooth="yes"/>
      <point x="209" y="679" type="line"/>
      <point x="209" y="645" type="line"/>
      <point x="656" y="645" type="line" smooth="yes"/>
      <point x="887" y="645"/>
      <point x="967" y="538"/>
      <point x="967" y="366" type="curve" smooth="yes"/>
      <point x="967" y="315" type="line" smooth="yes"/>
      <point x="967" y="146"/>
      <point x="888" y="35"/>
      <point x="673" y="35" type="curve" smooth="yes"/>
      <point x="203" y="35" type="line"/>
      <point x="203" y="0" type="line"/>
    </contour>
    <contour>
      <point x="224" y="0" type="line"/>
      <point x="224" y="1278" type="line"/>
      <point x="185" y="1278" type="line"/>
      <point x="185" y="0" type="line"/>
    </contour>
  </outline>
</glyph>
<glyph name="G" format="2">
  <advance width="1123"/>
  <unicode hex="0047"/>
  <anchor x="554" y="0" name="bottom"/>
  <anchor x="554" y="1278" name="top"/>
  <outline>
    <contour>
      <point x="557" y="-18" type="curve" smooth="yes"/>
      <point x="785" y="-18"/>
      <point x="900" y="116"/>
      <point x="932" y="249" type="curve"/>
      <point x="963" y="247" type="line"/>
      <point x="963" y="680" type="line"/>
      <point x="577" y="680" type="line"/>
      <point x="577" y="646" type="line"/>
      <point x="940" y="646" type="line"/>
      <point x="924" y="666" type="line"/>
      <point x="924" y="289" type="line"/>
      <point x="887" y="141"/>
      <point x="770" y="18"/>
      <point x="560" y="18" type="curve" smooth="yes"/>
      <point x="301" y="18"/>
      <point x="166" y="176"/>
      <point x="166" y="457" type="curve" smooth="yes"/>
      <point x="166" y="806" type="line" smooth="yes"/>
      <point x="166" y="1097"/>
      <point x="303" y="1260"/>
      <point x="563" y="1260" type="curve" smooth="yes"/>
      <point x="734" y="1260"/>
      <point x="855" y="1200"/>
      <point x="941" y="1131" type="curve"/>
      <point x="935" y="1173" type="line"/>
      <point x="867" y="1231"/>
      <point x="744" y="1296"/>
      <point x="564" y="1296" type="curve" smooth="yes"/>
      <point x="277" y="1296"/>
      <point x="127" y="1119"/>
      <point x="127" y="806" type="curve" smooth="yes"/>
      <point x="127" y="456" type="line" smooth="yes"/>
      <point x="127" y="152"/>
      <point x="277" y="-18"/>
    </contour>
    <contour>
      <point x="924" y="0" type="line"/>
      <point x="963" y="0" type="line"/>
      <point x="963" y="265" type="line"/>
      <point x="928" y="265" type="line"/>
    </contour>
  </outline>
</glyph>
<glyph name="M" format="2">
  <advance width="1433"/>
  <unicode hex="004D"/>
  <anchor x="717" y="0" name="bottom"/>
  <anchor x="717" y="1278" name="top"/>
  <outline>
    <contour>
      <point x="197" y="0" type="line"/>
      <point x="226" y="641" type="line"/>
      <point x="254" y="1245" type="line"/>
      <point x="276" y="1245" type="line"/>
      <point x="680" y="145" type="line"/>
      <point x="753" y="145" type="line"/>
      <point x="1157" y="1245" type="line"/>
      <point x="1180" y="1245" type="line"/>
      <point x="1208" y="642" type="line"/>
      <point x="1237" y="0" type="line"/>
      <point x="1276" y="0" type="line"/>
      <point x="1215" y="1278" type="line"/>
      <point x="1130" y="1278" type="line"/>
      <point x="725" y="178" type="line"/>
      <point x="708" y="178" type="line"/>
      <point x="303" y="1278" type="line"/>
      <point x="219" y="1278" type="line"/>
      <point x="157" y="0" type="line"/>
    </contour>
  </outline>
</glyph>
<glyph name="Q" format="2">
  <advance width="1134"/>
  <unicode hex="0051"/>
  <anchor x="567" y="0" name="bottom"/>
  <anchor x="567" y="1278" name="top"/>
  <outline>
    <contour>
      <point x="1128" y="15" type="line"/>
      <point x="644" y="13" type="line"/>
      <point x="662" y="9" type="line"/>
      <point x="845" y="30"/>
      <point x="1006" y="167"/>
      <point x="1006" y="463" type="curve" smooth="yes"/>
      <point x="1006" y="813" type="line" smooth="yes"/>
      <point x="1006" y="1125"/>
      <point x="851" y="1296"/>
      <point x="566" y="1296" type="curve" smooth="yes"/>
      <point x="281" y="1296"/>
      <point x="127" y="1125"/>
      <point x="127" y="813" type="curve" smooth="yes"/>
      <point x="127" y="465" type="line" smooth="yes"/>
      <point x="127" y="159"/>
      <point x="285" y="-11"/>
      <point x="602" y="-16" type="curve" smooth="yes"/>
      <point x="1128" y="-25" type="line"/>
    </contour>
    <contour>
      <point x="602" y="18" type="line" smooth="yes"/>
      <point x="323" y="18"/>
      <point x="166" y="181"/>
      <point x="166" y="465" type="curve" smooth="yes"/>
      <point x="166" y="814" type="line" smooth="yes"/>
      <point x="166" y="1101"/>
      <point x="304" y="1260"/>
      <point x="566" y="1260" type="curve" smooth="yes"/>
      <point x="829" y="1260"/>
      <point x="967" y="1101"/>
      <point x="967" y="814" type="curve" smooth="yes"/>
      <point x="967" y="463" type="line" smooth="yes"/>
      <point x="967" y="170"/>
      <point x="811" y="52"/>
      <point x="617" y="18" type="curve"/>
    </contour>
  </outline>
</glyph>
<glyph name="bracketleft" format="2">
  <advance width="590"/>
  <unicode hex="005B"/>
  <outline>
    <contour>
      <point x="530" y="-236" type="line"/>
      <point x="530" y="-203" type="line"/>
      <point x="223" y="-203" type="line"/>
      <point x="223" y="1317" type="line"/>
      <point x="530" y="1317" type="line"/>
      <point x="530" y="1350" type="line"/>
      <point x="186" y="1350" type="line"/>
      <point x="186" y="-236" type="line"/>
    </contour>
  </outline>
</glyph>
<glyph name="underscore" format="2">
  <advance width="933"/>
  <unicode hex="005F"/>
  <outline>
    <contour>
      <point x="856" y="-147" type="line"/>
      <point x="856" y="-115" type="line"/>
      <point x="77" y="-115" type="line"/>
      <point x="77" y="-147" type="line"/>
    </contour>
  </outline>
</glyph>
<glyph name="h" format="2">
  <advance width="1016"/>
  <unicode hex="0068"/>
  <anchor x="509" y="0" name="bottom"/>
  <anchor x="509" y="657" name="center"/>
  <anchor x="181" y="1329" name="top"/>
  <outline>
    <contour>
      <point x="869" y="0" type="line"/>
      <point x="869" y="622" type="line" smooth="yes"/>
      <point x="869" y="850"/>
      <point x="783" y="990"/>
      <point x="542" y="990" type="curve" smooth="yes"/>
      <point x="326" y="990"/>
      <point x="203" y="851"/>
      <point x="185" y="688" type="curve"/>
      <point x="170" y="688" type="line"/>
      <point x="192" y="651" type="line"/>
      <point x="219" y="828"/>
      <point x="340" y="957"/>
      <point x="540" y="957" type="curve" smooth="yes"/>
      <point x="754" y="957"/>
      <point x="832" y="831"/>
      <point x="832" y="620" type="curve" smooth="yes"/>
      <point x="832" y="0" type="line"/>
    </contour>
    <contour>
      <point x="199" y="0" type="line"/>
      <point x="199" y="708" type="line"/>
      <point x="195" y="714" type="line"/>
      <point x="199" y="991" type="line"/>
      <point x="199" y="1329" type="line"/>
      <point x="162" y="1329" type="line"/>
      <point x="162" y="0" type="line"/>
    </contour>
  </outline>
</glyph>
<glyph name="m" format="2">
  <advance width="1578"/>
  <unicode hex="006D"/>
  <anchor x="789" y="0" name="bottom"/>
  <anchor x="789" y="971" name="top"/>
  <outline>
    <contour>
      <point x="1431" y="0" type="line"/>
      <point x="1431" y="622" type="line" smooth="yes"/>
      <point x="1431" y="850"/>
      <point x="1351" y="990"/>
      <point x="1129" y="990" type="curve" smooth="yes"/>
      <point x="935" y="990"/>
      <point x="815" y="853"/>
      <point x="797" y="703" type="curve"/>
      <point x="787" y="703" type="line"/>
      <point x="808" y="663" type="line"/>
      <point x="832" y="830"/>
      <point x="949" y="957"/>
      <point x="1127" y="957" type="curve" smooth="yes"/>
      <point x="1322" y="957"/>
      <point x="1394" y="831"/>
      <point x="1394" y="620" type="curve" smooth="yes"/>
      <point x="1394" y="0" type="line"/>
    </contour>
    <contour>
      <point x="199" y="0" type="line"/>
      <point x="199" y="715" type="line"/>
      <point x="195" y="715" type="line"/>
      <point x="199" y="971" type="line"/>
      <point x="162" y="971" type="line"/>
      <point x="162" y="0" type="line"/>
    </contour>
    <contour>
      <point x="815" y="0" type="line"/>
      <point x="815" y="628" type="line" smooth="yes"/>
      <point x="815" y="658"/>
      <point x="814" y="685"/>
      <point x="810" y="716" type="curve"/>
      <point x="785" y="899"/>
      <point x="692" y="990"/>
      <point x="515" y="990" type="curve" smooth="yes"/>
      <point x="316" y="990"/>
      <point x="202" y="851"/>
      <point x="185" y="688" type="curve"/>
      <point x="171" y="688" type="line"/>
      <point x="192" y="650" type="line"/>
      <point x="217" y="828"/>
      <point x="329" y="957"/>
      <point x="513" y="957" type="curve" smooth="yes"/>
      <point x="707" y="957"/>
      <point x="778" y="831"/>
      <point x="778" y="619" type="curve" smooth="yes"/>
      <point x="778" y="0" type="line"/>
    </contour>
  </outline>
</glyph>
<glyph name="o" format="2">
  <advance width="998"/>
  <unicode hex="006F"/>
  <anchor x="499" y="0" name="bottom"/>
  <anchor x="508" y="307" name="center"/>
  <anchor x="691" y="0" name="ogonek"/>
  <anchor x="499" y="971" name="top"/>
  <anchor x="823" y="971" name="topright"/>
  <outline>
    <contour>
      <point x="499" y="-23" type="curve" smooth="yes"/>
      <point x="747" y="-23"/>
      <point x="880" y="125"/>
      <point x="880" y="395" type="curve"/>
      <point x="880" y="578" type="line"/>
      <point x="880" y="847"/>
      <point x="747" y="994"/>
      <point x="499" y="994" type="curve" smooth="yes"/>
      <point x="251" y="994"/>
      <point x="118" y="847"/>
      <point x="118" y="578" type="curve"/>
      <point x="118" y="395" type="line"/>
      <point x="118" y="126"/>
      <point x="250" y="-23"/>
    </contour>
    <contour>
      <point x="499" y="10" type="curve" smooth="yes"/>
      <point x="275" y="10"/>
      <point x="155" y="145"/>
      <point x="155" y="395" type="curve" smooth="yes"/>
      <point x="155" y="578" type="line" smooth="yes"/>
      <point x="155" y="826"/>
      <point x="275" y="961"/>
      <point x="499" y="961" type="curve" smooth="yes"/>
      <point x="723" y="961"/>
      <point x="843" y="826"/>
      <point x="843" y="578" type="curve" smooth="yes"/>
      <point x="843" y="395" type="line" smooth="yes"/>
      <point x="843" y="145"/>
      <point x="722" y="10"/>
    </contour>
  </outline>
</glyph>
<glyph name="p" format="2">
  <advance width="1029"/>
  <unicode hex="0070"/>
  <anchor x="521" y="0" name="bottom"/>
  <anchor x="521" y="971" name="top"/>
  <outline>
    <contour>
      <point x="540" y="-19" type="curve" smooth="yes"/>
      <point x="780" y="-19"/>
      <point x="911" y="125"/>
      <point x="911" y="392" type="curve" smooth="yes"/>
      <point x="911" y="577" type="line" smooth="yes"/>
      <point x="911" y="844"/>
      <point x="781" y="990"/>
      <point x="543" y="990" type="curve" smooth="yes"/>
      <point x="337" y="990"/>
      <point x="204" y="853"/>
      <point x="185" y="683" type="curve"/>
      <point x="174" y="683" type="line"/>
      <point x="192" y="646" type="line"/>
      <point x="221" y="831"/>
      <point x="354" y="957"/>
      <point x="539" y="957" type="curve" smooth="yes"/>
      <point x="757" y="957"/>
      <point x="874" y="824"/>
      <point x="874" y="577" type="curve" smooth="yes"/>
      <point x="874" y="392" type="line" smooth="yes"/>
      <point x="874" y="146"/>
      <point x="755" y="14"/>
      <point x="542" y="14" type="curve" smooth="yes"/>
      <point x="361" y="14"/>
      <point x="208" y="125"/>
      <point x="196" y="344" type="curve"/>
      <point x="174" y="311" type="line"/>
      <point x="186" y="311" type="line"/>
      <point x="188" y="111"/>
      <point x="340" y="-19"/>
    </contour>
    <contour>
      <point x="199" y="-344" type="line"/>
      <point x="199" y="0" type="line"/>
      <point x="194" y="261" type="line"/>
      <point x="196" y="276" type="line"/>
      <point x="196" y="693" type="line"/>
      <point x="195" y="712" type="line"/>
      <point x="199" y="971" type="line"/>
      <point x="162" y="971" type="line"/>
      <point x="162" y="-344" type="line"/>
    </contour>
  </outline>
</glyph>
<glyph name="yen" format="2">
  <advance width="1081"/>
  <unicode hex="00A5"/>
  <outline>
    <component base="Y" xOffset="17"/>
    <contour>
      <point x="943" y="611" type="line"/>
      <point x="950" y="644" type="line"/>
      <point x="655" y="644" type="line"/>
      <point x="638" y="611" type="line"/>
    </contour>
    <contour>
      <point x="132" y="289" type="line"/>
      <point x="943" y="289" type="line"/>
      <point x="950" y="322" type="line"/>
      <point x="139" y="322" type="line"/>
    </contour>
    <contour>
      <point x="139" y="644" type="line"/>
      <point x="132" y="611" type="line"/>
      <point x="440" y="611" type="line"/>
      <point x="422" y="644" type="line"/>
    </contour>
  </outline>
</glyph>
<glyph name="Eth" format="2">
  <advance width="1137"/>
  <unicode hex="00D0"/>
  <outline>
    <component base="D"/>
    <contour>
      <point x="609" y="648" type="line"/>
      <point x="609" y="682" type="line"/>
      <point x="14" y="682" type="line"/>
      <point x="14" y="648" type="line"/>
    </contour>
  </outline>
</glyph>
<glyph name="multiply" format="2">
  <advance width="969"/>
  <unicode hex="00D7"/>
  <outline>
    <contour>
      <point x="181" y="982" type="line"/>
      <point x="155" y="960" type="line"/>
      <point x="794" y="268" type="line"/>
      <point x="821" y="290" type="line"/>
    </contour>
    <contour>
      <point x="175" y="268" type="line"/>
      <point x="814" y="960" type="line"/>
      <point x="788" y="982" type="line"/>
      <point x="148" y="290" type="line"/>
    </contour>
  </outline>
</glyph>
<glyph name="germandbls" format="2">
  <advance width="1075"/>
  <unicode hex="00DF"/>
  <anchor x="512" y="0" name="bottom"/>
  <anchor x="512" y="971" name="top"/>
  <outline>
    <contour>
      <point x="162" y="0" type="line"/>
      <point x="199" y="0" type="line"/>
      <point x="199" y="1007" type="line" smooth="yes"/>
      <point x="199" y="1202"/>
      <point x="270" y="1316"/>
      <point x="490" y="1316" type="curve" smooth="yes"/>
      <point x="676" y="1316"/>
      <point x="757" y="1230"/>
      <point x="757" y="1121" type="curve" smooth="yes"/>
      <point x="757" y="934"/>
      <point x="476" y="897"/>
      <point x="476" y="700" type="curve" smooth="yes"/>
      <point x="476" y="694" type="line" smooth="yes"/>
      <point x="476" y="573"/>
      <point x="539" y="527"/>
      <point x="717" y="473" type="curve" smooth="yes"/>
      <point x="881" y="423"/>
      <point x="934" y="368"/>
      <point x="934" y="237" type="curve" smooth="yes"/>
      <point x="934" y="224" type="line" smooth="yes"/>
      <point x="934" y="89"/>
      <point x="852" y="16"/>
      <point x="698" y="16" type="curve" smooth="yes"/>
      <point x="592" y="16"/>
      <point x="527" y="39"/>
      <point x="447" y="78" type="curve"/>
      <point x="453" y="36" type="line"/>
      <point x="513" y="8"/>
      <point x="585" y="-19"/>
      <point x="698" y="-19" type="curve" smooth="yes"/>
      <point x="875" y="-19"/>
      <point x="971" y="68"/>
      <point x="971" y="225" type="curve" smooth="yes"/>
      <point x="971" y="238" type="line" smooth="yes"/>
      <point x="971" y="389"/>
      <point x="905" y="451"/>
      <point x="727" y="507" type="curve" smooth="yes"/>
      <point x="569" y="557"/>
      <point x="512" y="591"/>
      <point x="512" y="693" type="curve" smooth="yes"/>
      <point x="512" y="700" type="line" smooth="yes"/>
      <point x="512" y="877"/>
      <point x="794" y="918"/>
      <point x="794" y="1121" type="curve" smooth="yes"/>
      <point x="794" y="1253"/>
      <point x="693" y="1350"/>
      <point x="490" y="1350" type="curve" smooth="yes"/>
      <point x="250" y="1350"/>
      <point x="162" y="1221"/>
      <point x="162" y="1009" type="curve" smooth="yes"/>
    </contour>
  </outline>
</glyph>
<glyph name="Chandrabindu.mlm" format="2">
  <unicode hex="0D01"/>
  <outline>
    <contour>
      <point x="-535" y="1366" type="curve" smooth="yes"/>
      <point x="-691.413" y="1366"/>
      <point x="-790" y="1448"/>
      <point x="-790" y="1603" type="curve" smooth="yes"/>
      <point x="-790" y="1619" type="line"/>
      <point x="-825" y="1619" type="line"/>
      <point x="-825" y="1602" type="line" smooth="yes"/>
      <point x="-825" y="1431"/>
      <point x="-718.158" y="1334"/>
      <point x="-535" y="1334" type="curve" smooth="yes"/>
      <point x="-351.813" y="1334"/>
      <point x="-244" y="1431"/>
      <point x="-244" y="1602" type="curve" smooth="yes"/>
      <point x="-244" y="1619" type="line"/>
      <point x="-279" y="1619" type="line"/>
      <point x="-279" y="1603" type="line" smooth="yes"/>
      <point x="-279" y="1448"/>
      <point x="-377.607" y="1366"/>
    </contour>
    <contour>
      <point x="-578" y="1622" type="line" smooth="yes"/>
      <point x="-578" y="1591"/>
      <point x="-564" y="1572"/>
      <point x="-533" y="1572" type="curve" smooth="yes"/>
      <point x="-502" y="1572"/>
      <point x="-487" y="1591"/>
      <point x="-487" y="1622" type="curve" smooth="yes"/>
      <point x="-487" y="1629" type="line" smooth="yes"/>
      <point x="-487" y="1662"/>
      <point x="-502" y="1679"/>
      <point x="-533" y="1679" type="curve" smooth="yes"/>
      <point x="-564" y="1679"/>
      <point x="-578" y="1662"/>
      <point x="-578" y="1629" type="curve" smooth="yes"/>
    </contour>
  </outline>
</glyph>
<glyph name="uni0D04" format="2">
  <advance width="1164"/>
  <unicode hex="0D04"/>
  <outline>
    <contour>
      <point x="582" y="931" type="curve" smooth="yes"/>
      <point x="567" y="931"/>
      <point x="558" y="921"/>
      <point x="558" y="897" type="curve" smooth="yes"/>
      <point x="558" y="604" type="line" smooth="yes"/>
      <point x="558" y="581"/>
      <point x="567" y="571"/>
      <point x="582" y="571" type="curve" smooth="yes"/>
      <point x="598" y="571"/>
      <point x="606" y="581"/>
      <point x="606" y="604" type="curve" smooth="yes"/>
      <point x="606" y="897" type="line" smooth="yes"/>
      <point x="606" y="921"/>
      <point x="598" y="931"/>
    </contour>
    <contour>
      <point x="582" y="199" type="curve" smooth="yes"/>
      <point x="872" y="199"/>
      <point x="1013" y="362.448"/>
      <point x="1013" y="673" type="curve" smooth="yes"/>
      <point x="1013" y="795" type="line"/>
      <point x="976" y="795" type="line"/>
      <point x="976" y="673" type="line" smooth="yes"/>
      <point x="976" y="381.372"/>
      <point x="844" y="233"/>
      <point x="582" y="233" type="curve" smooth="yes"/>
      <point x="320" y="233"/>
      <point x="188" y="381.372"/>
      <point x="188" y="673" type="curve" smooth="yes"/>
      <point x="188" y="795" type="line"/>
      <point x="151" y="795" type="line"/>
      <point x="151" y="673" type="line" smooth="yes"/>
      <point x="151" y="362.448"/>
      <point x="292" y="199"/>
    </contour>
  </outline>
</glyph>
<glyph name="vowelAa.mlm" format="2">
  <advance width="3111"/>
  <unicode hex="0D06"/>
  <outline>
    <contour>
      <point x="2524" y="842" type="line"/>
      <point x="2792.99" y="819.112"/>
      <point x="2928" y="669.748"/>
      <point x="2928" y="369" type="curve" smooth="yes"/>
      <point x="2928" y="239" type="line" smooth="yes"/>
      <point x="2928" y="-96.902"/>
      <point x="2758.61" y="-269"/>
      <point x="2428" y="-269" type="curve" smooth="yes"/>
      <point x="2293" y="-269"/>
      <point x="2182" y="-250"/>
      <point x="2084" y="-213" type="curve"/>
      <point x="2095" y="-251" type="line"/>
      <point x="2192" y="-285"/>
      <point x="2303" y="-303"/>
      <point x="2428" y="-303" type="curve" smooth="yes"/>
      <point x="2781.58" y="-303"/>
      <point x="2965" y="-116.817"/>
      <point x="2965" y="239" type="curve" smooth="yes"/>
      <point x="2965" y="370" type="line" smooth="yes"/>
      <point x="2965" y="684.237"/>
      <point x="2819.13" y="854.248"/>
      <point x="2516" y="877" type="curve"/>
    </contour>
    <contour>
      <point x="2070" y="1139" type="curve" smooth="yes"/>
      <point x="2288.95" y="1139"/>
      <point x="2432.27" y="1044"/>
      <point x="2489" y="870" type="curve"/>
      <point x="2494" y="856" type="line" smooth="yes"/>
      <point x="2514.46" y="798.711"/>
      <point x="2525" y="730.839"/>
      <point x="2525" y="658" type="curve" smooth="yes"/>
      <point x="2525" y="389" type="line" smooth="yes"/>
      <point x="2525" y="169.959"/>
      <point x="2436.71" y="67"/>
      <point x="2277" y="67" type="curve" smooth="yes"/>
      <point x="2115" y="67"/>
      <point x="2027" y="162.655"/>
      <point x="2027" y="356" type="curve" smooth="yes"/>
      <point x="2027" y="438" type="line" smooth="yes"/>
      <point x="2027" y="705.558"/>
      <point x="2169.33" y="846"/>
      <point x="2452" y="846" type="curve" smooth="yes"/>
      <point x="2474.03" y="846"/>
      <point x="2496.07" y="845"/>
      <point x="2516" y="842" type="curve"/>
      <point x="2505" y="877" type="line"/>
      <point x="2489.1" y="879"/>
      <point x="2472.14" y="880"/>
      <point x="2452" y="880" type="curve" smooth="yes"/>
      <point x="2145.33" y="880"/>
      <point x="1990" y="727.551"/>
      <point x="1990" y="438" type="curve" smooth="yes"/>
      <point x="1990" y="355" type="line" smooth="yes"/>
      <point x="1990" y="142.703"/>
      <point x="2090" y="33"/>
      <point x="2277" y="33" type="curve" smooth="yes"/>
      <point x="2461.7" y="33"/>
      <point x="2562" y="146.963"/>
      <point x="2562" y="388" type="curve" smooth="yes"/>
      <point x="2562" y="657" type="line" smooth="yes"/>
      <point x="2562" y="728.813"/>
      <point x="2553" y="795.497"/>
      <point x="2533" y="855" type="curve"/>
      <point x="2529" y="865" type="line"/>
      <point x="2470.26" y="1061"/>
      <point x="2320.91" y="1173"/>
      <point x="2070" y="1173" type="curve" smooth="yes"/>
      <point x="1825" y="1173"/>
      <point x="1664" y="1075"/>
      <point x="1625" y="864" type="curve"/>
      <point x="1615" y="864" type="line"/>
      <point x="1616" y="611" type="line"/>
      <point x="1643" y="611" type="line"/>
      <point x="1643" y="751" type="line" smooth="yes"/>
      <point x="1643" y="1002"/>
      <point x="1787" y="1139"/>
    </contour>
    <contour>
      <point x="1606" y="5" type="line"/>
      <point x="1643" y="5" type="line"/>
      <point x="1643" y="702" type="line"/>
      <point x="1606" y="702" type="line"/>
    </contour>
    <contour>
      <point x="1623" y="864" type="line"/>
      <point x="1584" y="1074"/>
      <point x="1425" y="1173"/>
      <point x="1174" y="1173" type="curve" smooth="yes"/>
      <point x="1084" y="1173"/>
      <point x="1003" y="1162"/>
      <point x="933" y="1138" type="curve"/>
      <point x="967" y="1117" type="line"/>
      <point x="1029" y="1133"/>
      <point x="1097" y="1139"/>
      <point x="1174" y="1139" type="curve" smooth="yes"/>
      <point x="1461" y="1139"/>
      <point x="1606" y="1001"/>
      <point x="1606" y="750" type="curve" smooth="yes"/>
      <point x="1606" y="620" type="line"/>
      <point x="1625" y="620" type="line"/>
    </contour>
    <contour>
      <point x="193" y="628" type="line" smooth="yes"/>
      <point x="193" y="974.786"/>
      <point x="364" y="1139"/>
      <point x="707" y="1139" type="curve" smooth="yes"/>
      <point x="770" y="1139"/>
      <point x="842" y="1134"/>
      <point x="909" y="1118" type="curve"/>
      <point x="914" y="1116"/>
      <point x="930" y="1112"/>
      <point x="933" y="1111" type="curve"/>
      <point x="1085.43" y="1065.41"/>
      <point x="1202" y="973.205"/>
      <point x="1202" y="804" type="curve" smooth="yes"/>
      <point x="1202" y="797" type="line" smooth="yes"/>
      <point x="1202" y="649.339"/>
      <point x="1121.68" y="579.856"/>
      <point x="959" y="575" type="curve" smooth="yes"/>
      <point x="892" y="573" type="line"/>
      <point x="892" y="543" type="line"/>
      <point x="963" y="541" type="line" smooth="yes"/>
      <point x="1134.69" y="536.164"/>
      <point x="1215" y="457.645"/>
      <point x="1215" y="295" type="curve" smooth="yes"/>
      <point x="1215" y="287" type="line" smooth="yes"/>
      <point x="1215" y="114.453"/>
      <point x="1128.33" y="16"/>
      <point x="949" y="16" type="curve" smooth="yes"/>
      <point x="750.663" y="16"/>
      <point x="650" y="131.246"/>
      <point x="650" y="371" type="curve" smooth="yes"/>
      <point x="650" y="611" type="line" smooth="yes"/>
      <point x="650" y="874.255"/>
      <point x="756.648" y="1042.62"/>
      <point x="953" y="1112" type="curve"/>
      <point x="914" y="1130" type="line"/>
      <point x="713.666" y="1053.53"/>
      <point x="613" y="877.128"/>
      <point x="613" y="611" type="curve" smooth="yes"/>
      <point x="613" y="371" type="line" smooth="yes"/>
      <point x="613" y="110.298"/>
      <point x="727.659" y="-18"/>
      <point x="949" y="-18" type="curve" smooth="yes"/>
      <point x="1152.33" y="-18"/>
      <point x="1252" y="91.4352"/>
      <point x="1252" y="287" type="curve" smooth="yes"/>
      <point x="1252" y="294" type="line" smooth="yes"/>
      <point x="1252" y="450.369"/>
      <point x="1182.67" y="539.723"/>
      <point x="1043" y="558" type="curve"/>
      <point x="1043" y="560" type="line"/>
      <point x="1173.67" y="579.326"/>
      <point x="1239" y="659.682"/>
      <point x="1239" y="797" type="curve" smooth="yes"/>
      <point x="1239" y="804" type="line" smooth="yes"/>
      <point x="1239" y="970.05"/>
      <point x="1129.42" y="1077.38"/>
      <point x="981" y="1128" type="curve"/>
      <point x="960" y="1138" type="line"/>
      <point x="877" y="1163"/>
      <point x="787" y="1173"/>
      <point x="707" y="1173" type="curve" smooth="yes"/>
      <point x="342" y="1173"/>
      <point x="156" y="996.766"/>
      <point x="156" y="628" type="curve" smooth="yes"/>
      <point x="156" y="445" type="line" smooth="yes"/>
      <point x="156" y="244.724"/>
      <point x="205" y="106.391"/>
      <point x="290" y="0" type="curve"/>
      <point x="336" y="0" type="line"/>
      <point x="246" y="106.385"/>
      <point x="193" y="245.734"/>
      <point x="193" y="446" type="curve" smooth="yes"/>
    </contour>
  </outline>
</glyph>
<glyph name="vowelI.mlm" format="2">
  <advance width="1819"/>
  <unicode hex="0D07"/>
  <outline>
    <contour>
      <point x="606" y="1173" type="curve" smooth="yes"/>
      <point x="303" y="1173"/>
      <point x="154" y="1017.31"/>
      <point x="154" y="712" type="curve" smooth="yes"/>
      <point x="154" y="527" type="line" smooth="yes"/>
      <point x="154" y="323.689"/>
      <point x="243" y="220"/>
      <point x="426" y="220" type="curve" smooth="yes"/>
      <point x="596" y="220"/>
      <point x="683" y="317.765"/>
      <point x="683" y="497" type="curve" smooth="yes"/>
      <point x="683" y="597" type="line" smooth="yes"/>
      <point x="683" y="767.212"/>
      <point x="596" y="862"/>
      <point x="435" y="862" type="curve" smooth="yes"/>
      <point x="302" y="862"/>
      <point x="205" y="789.941"/>
      <point x="175" y="687" type="curve"/>
      <point x="189" y="673" type="line"/>
      <point x="227" y="771.167"/>
      <point x="312" y="828"/>
      <point x="433" y="828" type="curve" smooth="yes"/>
      <point x="571" y="828"/>
      <point x="646" y="746.246"/>
      <point x="646" y="595" type="curve" smooth="yes"/>
      <point x="646" y="497" type="line" smooth="yes"/>
      <point x="646" y="339.765"/>
      <point x="570" y="254"/>
      <point x="426" y="254" type="curve" smooth="yes"/>
      <point x="269" y="254"/>
      <point x="190" y="343.642"/>
      <point x="190" y="527" type="curve" smooth="yes"/>
      <point x="190" y="691" type="line"/>
      <point x="198" y="723.531" type="line"/>
      <point x="190" y="723.531" type="line"/>
      <point x="190.085" y="724.03" type="line"/>
      <point x="189.953" y="997.36"/>
      <point x="330.039" y="1139"/>
      <point x="606" y="1139" type="curve" smooth="yes"/>
      <point x="863" y="1139"/>
      <point x="994" y="1017"/>
      <point x="994" y="795" type="curve" smooth="yes"/>
      <point x="994" y="260" type="line"/>
      <point x="1031" y="260" type="line"/>
      <point x="1031" y="824" type="line" smooth="yes"/>
      <point x="1031" y="1034"/>
      <point x="1121" y="1139"/>
      <point x="1318" y="1139" type="curve" smooth="yes"/>
      <point x="1522" y="1139"/>
      <point x="1621" y="1019.72"/>
      <point x="1621" y="775" type="curve" smooth="yes"/>
      <point x="1621" y="485" type="line" smooth="yes"/>
      <point x="1621" y="189.341"/>
      <point x="1491" y="41"/>
      <point x="1228" y="41" type="curve" smooth="yes"/>
      <point x="367" y="41" type="line" smooth="yes"/>
      <point x="224" y="41"/>
      <point x="150" y="-26.6907"/>
      <point x="150" y="-155" type="curve" smooth="yes"/>
      <point x="150" y="-285.316"/>
      <point x="224" y="-353"/>
      <point x="367" y="-353" type="curve" smooth="yes"/>
      <point x="1642" y="-353" type="line"/>
      <point x="1652" y="-321" type="line"/>
      <point x="367" y="-321" type="line" smooth="yes"/>
      <point x="249" y="-321"/>
      <point x="188" y="-265.329"/>
      <point x="188" y="-155" type="curve" smooth="yes"/>
      <point x="188" y="-47.6914"/>
      <point x="249" y="9"/>
      <point x="367" y="9" type="curve" smooth="yes"/>
      <point x="1229" y="9" type="line" smooth="yes"/>
      <point x="1516" y="9"/>
      <point x="1658" y="170.391"/>
      <point x="1658" y="485" type="curve" smooth="yes"/>
      <point x="1658" y="775" type="line" smooth="yes"/>
      <point x="1658" y="1039.65"/>
      <point x="1549" y="1173"/>
      <point x="1319" y="1173" type="curve" smooth="yes"/>
      <point x="1137" y="1173"/>
      <point x="1031" y="1090"/>
      <point x="1010" y="914" type="curve"/>
      <point x="1008" y="914" type="line"/>
      <point x="973" y="1079"/>
      <point x="836" y="1173"/>
    </contour>
  </outline>
</glyph>
<glyph name="vowelshortE.mlm" format="2">
  <advance width="2416"/>
  <unicode hex="0D0E"/>
  <outline>
    <contour>
      <point x="471" y="756" type="curve" smooth="yes"/>
      <point x="252" y="756"/>
      <point x="144" y="632.522"/>
      <point x="144" y="401" type="curve" smooth="yes"/>
      <point x="144" y="308" type="line" smooth="yes"/>
      <point x="144" y="170.855"/>
      <point x="178" y="70.1386"/>
      <point x="242" y="0" type="curve"/>
      <point x="288" y="0" type="line"/>
      <point x="220" y="72.1716"/>
      <point x="181" y="171.871"/>
      <point x="181" y="308" type="curve" smooth="yes"/>
      <point x="181" y="401" type="line" smooth="yes"/>
      <point x="181" y="612.592"/>
      <point x="279" y="722"/>
      <point x="471" y="722" type="curve" smooth="yes"/>
      <point x="664" y="722"/>
      <point x="762" y="612.592"/>
      <point x="762" y="401" type="curve" smooth="yes"/>
      <point x="762" y="308" type="line" smooth="yes"/>
      <point x="762" y="174.879"/>
      <point x="722" y="76.1616"/>
      <point x="651" y="6" type="curve"/>
      <point x="651" y="0" type="line"/>
      <point x="686" y="0" type="line"/>
      <point x="761" y="70.1386"/>
      <point x="799" y="170.855"/>
      <point x="799" y="308" type="curve" smooth="yes"/>
      <point x="799" y="401" type="line" smooth="yes"/>
      <point x="799" y="632.522"/>
      <point x="691" y="756"/>
    </contour>
    <contour>
      <point x="698" y="32" type="line"/>
      <point x="651" y="0" type="line"/>
      <point x="1180" y="0" type="line"/>
      <point x="1189" y="0" type="line"/>
      <point x="1719" y="0" type="line"/>
      <point x="1720" y="32" type="line"/>
    </contour>
    <contour>
      <point x="1711" y="1175" type="curve" smooth="yes"/>
      <point x="1341" y="1175"/>
      <point x="1155" y="964"/>
      <point x="1155" y="550" type="curve" smooth="yes"/>
      <point x="1155" y="83" type="line" smooth="yes"/>
      <point x="1155" y="-234.71"/>
      <point x="1259" y="-386"/>
      <point x="1476" y="-386" type="curve" smooth="yes"/>
      <point x="1654" y="-386"/>
      <point x="1738" y="-276.013"/>
      <point x="1738" y="-55" type="curve" smooth="yes"/>
      <point x="1738" y="999" type="line"/>
      <point x="1701" y="999" type="line"/>
      <point x="1701" y="20" type="line"/>
      <point x="1701" y="11" type="line"/>
      <point x="1701" y="-57" type="line" smooth="yes"/>
      <point x="1701" y="-256.07"/>
      <point x="1630" y="-353"/>
      <point x="1476" y="-353" type="curve" smooth="yes"/>
      <point x="1267" y="-353"/>
      <point x="1204" y="-183.107"/>
      <point x="1195" y="6" type="curve"/>
      <point x="1195" y="10" type="line"/>
      <point x="1194" y="13" type="line"/>
      <point x="1193" y="36"/>
      <point x="1192" y="61"/>
      <point x="1192" y="83" type="curve" smooth="yes"/>
      <point x="1192" y="550" type="line" smooth="yes"/>
      <point x="1192" y="942"/>
      <point x="1366" y="1141"/>
      <point x="1711" y="1141" type="curve" smooth="yes"/>
      <point x="2047" y="1141"/>
      <point x="2220" y="943"/>
      <point x="2220" y="550" type="curve" smooth="yes"/>
      <point x="2220" y="225" type="line" smooth="yes"/>
      <point x="2220" y="-28.0819"/>
      <point x="2158" y="-211.117"/>
      <point x="2036" y="-349" type="curve"/>
      <point x="2082" y="-349" type="line"/>
      <point x="2196" y="-220.305"/>
      <point x="2257" y="-29.0909"/>
      <point x="2257" y="224" type="curve" smooth="yes"/>
      <point x="2257" y="550" type="line" smooth="yes"/>
      <point x="2257" y="965"/>
      <point x="2072" y="1175"/>
    </contour>
  </outline>
</glyph>
<glyph name="vowelE.mlm" format="2">
  <advance width="2431"/>
  <unicode hex="0D0F"/>
  <outline>
    <contour>
      <point x="471" y="756" type="curve" smooth="yes"/>
      <point x="252" y="756"/>
      <point x="144" y="632.522"/>
      <point x="144" y="401" type="curve" smooth="yes"/>
      <point x="144" y="308" type="line" smooth="yes"/>
      <point x="144" y="170.855"/>
      <point x="178" y="70.1386"/>
      <point x="242" y="0" type="curve"/>
      <point x="288" y="0" type="line"/>
      <point x="220" y="72.1716"/>
      <point x="181" y="171.871"/>
      <point x="181" y="308" type="curve" smooth="yes"/>
      <point x="181" y="401" type="line" smooth="yes"/>
      <point x="181" y="612.592"/>
      <point x="279" y="722"/>
      <point x="471" y="722" type="curve" smooth="yes"/>
      <point x="664" y="722"/>
      <point x="762" y="612.592"/>
      <point x="762" y="401" type="curve" smooth="yes"/>
      <point x="762" y="308" type="line" smooth="yes"/>
      <point x="762" y="174.879"/>
      <point x="722" y="76.1616"/>
      <point x="651" y="6" type="curve"/>
      <point x="651" y="0" type="line"/>
      <point x="686" y="0" type="line"/>
      <point x="761" y="70.1386"/>
      <point x="799" y="170.855"/>
      <point x="799" y="308" type="curve" smooth="yes"/>
      <point x="799" y="401" type="line" smooth="yes"/>
      <point x="799" y="632.522"/>
      <point x="691" y="756"/>
    </contour>
    <contour>
      <point x="1733" y="1175" type="curve" smooth="yes"/>
      <point x="1348" y="1175"/>
      <point x="1155" y="964.994"/>
      <point x="1155" y="533" type="curve" smooth="yes"/>
      <point x="1155" y="83" type="line" smooth="yes"/>
      <point x="1155" y="-234.71"/>
      <point x="1259" y="-386"/>
      <point x="1476" y="-386" type="curve" smooth="yes"/>
      <point x="1654" y="-386"/>
      <point x="1738" y="-276.013"/>
      <point x="1738" y="-55" type="curve" smooth="yes"/>
      <point x="1738" y="999" type="line"/>
      <point x="1701" y="999" type="line"/>
      <point x="1701" y="20" type="line"/>
      <point x="1701" y="11" type="line"/>
      <point x="1701" y="-57" type="line" smooth="yes"/>
      <point x="1701" y="-256.07"/>
      <point x="1630" y="-353"/>
      <point x="1476" y="-353" type="curve" smooth="yes"/>
      <point x="1267" y="-353"/>
      <point x="1204" y="-183.107"/>
      <point x="1195" y="6" type="curve"/>
      <point x="1195" y="10" type="line"/>
      <point x="1194" y="13" type="line"/>
      <point x="1193" y="36"/>
      <point x="1192" y="61"/>
      <point x="1192" y="83" type="curve" smooth="yes"/>
      <point x="1192" y="533" type="line" smooth="yes"/>
      <point x="1192" y="943.994"/>
      <point x="1372" y="1141"/>
      <point x="1733" y="1141" type="curve" smooth="yes"/>
      <point x="2059" y="1141"/>
      <point x="2223" y="981.723"/>
      <point x="2223" y="655" type="curve" smooth="yes"/>
      <point x="2223" y="616" type="line" smooth="yes"/>
      <point x="2223" y="426.417"/>
      <point x="2144.01" y="330.729"/>
      <point x="1983" y="328" type="curve" smooth="yes"/>
      <point x="1924" y="327" type="line"/>
      <point x="1924" y="295" type="line"/>
      <point x="1983" y="294" type="line" smooth="yes"/>
      <point x="2163" y="290.949"/>
      <point x="2247" y="197.593"/>
      <point x="2247" y="11" type="curve" smooth="yes"/>
      <point x="2247" y="-32" type="line" smooth="yes"/>
      <point x="2247" y="-231.701"/>
      <point x="2161" y="-330"/>
      <point x="1987" y="-330" type="curve" smooth="yes"/>
      <point x="1953" y="-330"/>
      <point x="1913" y="-327"/>
      <point x="1872" y="-319" type="curve"/>
      <point x="1883" y="-354" type="line"/>
      <point x="1917" y="-361"/>
      <point x="1955" y="-364"/>
      <point x="1989" y="-364" type="curve" smooth="yes"/>
      <point x="2186" y="-364"/>
      <point x="2284" y="-255.729"/>
      <point x="2284" y="-33" type="curve" smooth="yes"/>
      <point x="2284" y="10" type="line" smooth="yes"/>
      <point x="2284" y="186.856"/>
      <point x="2211" y="290.281"/>
      <point x="2061" y="312" type="curve"/>
      <point x="2061" y="313" type="line"/>
      <point x="2195" y="338.853"/>
      <point x="2260" y="436.061"/>
      <point x="2260" y="616" type="curve" smooth="yes"/>
      <point x="2260" y="655" type="line" smooth="yes"/>
      <point x="2260" y="1002.69"/>
      <point x="2085" y="1175"/>
    </contour>
    <contour>
      <point x="698" y="32" type="line"/>
      <point x="651" y="0" type="line"/>
      <point x="1180" y="0" type="line"/>
      <point x="1189" y="0" type="line"/>
      <point x="1719" y="0" type="line"/>
      <point x="1720" y="32" type="line"/>
    </contour>
  </outline>
</glyph>
<glyph name="Nga.mlm" format="2">
  <advance width="2064"/>
  <unicode hex="0D19"/>
  <outline>
    <contour>
      <point x="1085" y="5" type="line"/>
      <point x="1122" y="5" type="line"/>
      <point x="1122" y="700" type="line"/>
      <point x="1085" y="700" type="line"/>
    </contour>
    <contour>
      <point x="655" y="1173" type="curve" smooth="yes"/>
      <point x="320" y="1173"/>
      <point x="156" y="983.345"/>
      <point x="156" y="603" type="curve" smooth="yes"/>
      <point x="156" y="339" type="line" smooth="yes"/>
      <point x="156" y="94.6056"/>
      <point x="258" y="-21"/>
      <point x="455" y="-21" type="curve" smooth="yes"/>
      <point x="641" y="-21"/>
      <point x="739" y="91.7344"/>
      <point x="739" y="304" type="curve" smooth="yes"/>
      <point x="739" y="439" type="line" smooth="yes"/>
      <point x="739" y="637.261"/>
      <point x="641" y="743"/>
      <point x="465" y="743" type="curve" smooth="yes"/>
      <point x="320" y="743"/>
      <point x="213" y="662"/>
      <point x="179" y="543" type="curve"/>
      <point x="193" y="529" type="line"/>
      <point x="239" y="644"/>
      <point x="331" y="709"/>
      <point x="463" y="709" type="curve" smooth="yes"/>
      <point x="618" y="709"/>
      <point x="702" y="617.315"/>
      <point x="702" y="437" type="curve" smooth="yes"/>
      <point x="702" y="304" type="line" smooth="yes"/>
      <point x="702" y="108.643"/>
      <point x="617" y="13"/>
      <point x="455" y="13" type="curve" smooth="yes"/>
      <point x="282" y="13"/>
      <point x="193" y="115.573"/>
      <point x="193" y="339" type="curve" smooth="yes"/>
      <point x="193" y="555" type="line"/>
      <point x="209" y="581" type="line"/>
      <point x="193" y="581" type="line"/>
      <point x="193" y="603" type="line" smooth="yes"/>
      <point x="193" y="962.411"/>
      <point x="345" y="1139"/>
      <point x="655" y="1139" type="curve" smooth="yes"/>
      <point x="941" y="1139"/>
      <point x="1085" y="1006"/>
      <point x="1085" y="760" type="curve" smooth="yes"/>
      <point x="1085" y="611" type="line"/>
      <point x="1100" y="611" type="line"/>
      <point x="1099" y="889" type="line"/>
      <point x="1055" y="1080"/>
      <point x="893" y="1173"/>
    </contour>
    <contour>
      <point x="1499" y="1173" type="curve" smooth="yes"/>
      <point x="1271" y="1173"/>
      <point x="1135" y="1083"/>
      <point x="1101" y="889" type="curve"/>
      <point x="1092" y="889" type="line"/>
      <point x="1092" y="582" type="line"/>
      <point x="1122" y="581" type="line"/>
      <point x="1122" y="786" type="line" smooth="yes"/>
      <point x="1122" y="1021"/>
      <point x="1244" y="1139"/>
      <point x="1497" y="1139" type="curve" smooth="yes"/>
      <point x="1738" y="1139"/>
      <point x="1857" y="1041.69"/>
      <point x="1857" y="842" type="curve" smooth="yes"/>
      <point x="1857" y="832" type="line" smooth="yes"/>
      <point x="1857" y="668.212"/>
      <point x="1770" y="598.169"/>
      <point x="1597" y="597" type="curve" smooth="yes"/>
      <point x="1449" y="596" type="line"/>
      <point x="1449" y="564" type="line"/>
      <point x="1597" y="563" type="line" smooth="yes"/>
      <point x="1786" y="561.723"/>
      <point x="1878" y="483.434"/>
      <point x="1878" y="309" type="curve" smooth="yes"/>
      <point x="1878" y="289" type="line" smooth="yes"/>
      <point x="1878" y="102.547"/>
      <point x="1788" y="19"/>
      <point x="1605" y="19" type="curve" smooth="yes"/>
      <point x="1539" y="19"/>
      <point x="1457" y="28"/>
      <point x="1388" y="50" type="curve"/>
      <point x="1396" y="14" type="line"/>
      <point x="1463" y="-7"/>
      <point x="1541" y="-15"/>
      <point x="1608" y="-15" type="curve" smooth="yes"/>
      <point x="1813" y="-15"/>
      <point x="1915" y="78.5436"/>
      <point x="1915" y="288" type="curve" smooth="yes"/>
      <point x="1915" y="308" type="line" smooth="yes"/>
      <point x="1915" y="475.071"/>
      <point x="1842" y="560.644"/>
      <point x="1694" y="580" type="curve"/>
      <point x="1694" y="582" type="line"/>
      <point x="1828" y="601.309"/>
      <point x="1894" y="682.61"/>
      <point x="1894" y="832" type="curve" smooth="yes"/>
      <point x="1894" y="842" type="line" smooth="yes"/>
      <point x="1894" y="1065.7"/>
      <point x="1762" y="1173"/>
    </contour>
  </outline>
</glyph>
<glyph name="Jha.mlm" format="2">
  <advance width="3041"/>
  <unicode hex="0D1D"/>
  <outline>
    <contour>
      <point x="2238" y="440" type="line"/>
      <point x="2238" y="1140" type="line"/>
      <point x="2201" y="1140" type="line"/>
      <point x="2201" y="440" type="line"/>
    </contour>
    <contour>
      <point x="1650" y="340" type="curve" smooth="yes"/>
      <point x="1650" y="448.947"/>
      <point x="1659" y="592"/>
      <point x="1659" y="700" type="curve" smooth="yes"/>
      <point x="1659" y="1022.83"/>
      <point x="1498.66" y="1173"/>
      <point x="1191" y="1173" type="curve" smooth="yes"/>
      <point x="1085.24" y="1173"/>
      <point x="991.642" y="1149.84"/>
      <point x="912" y="1115" type="curve" smooth="yes"/>
      <point x="896" y="1108" type="line"/>
      <point x="724.651" y="1013.4"/>
      <point x="633" y="851.136"/>
      <point x="633" y="582" type="curve" smooth="yes"/>
      <point x="633" y="348" type="line" smooth="yes"/>
      <point x="633" y="104.398"/>
      <point x="731.666" y="-21"/>
      <point x="928" y="-21" type="curve" smooth="yes"/>
      <point x="1123.34" y="-21"/>
      <point x="1222" y="104.398"/>
      <point x="1222" y="348" type="curve" smooth="yes"/>
      <point x="1222" y="582" type="line" smooth="yes"/>
      <point x="1222" y="851.136"/>
      <point x="1130.35" y="1013.4"/>
      <point x="959" y="1108" type="curve"/>
      <point x="943" y="1115" type="line"/>
      <point x="865" y="1153"/>
      <point x="772" y="1173"/>
      <point x="667" y="1173" type="curve" smooth="yes"/>
      <point x="326" y="1173"/>
      <point x="156" y="987.598"/>
      <point x="156" y="628" type="curve" smooth="yes"/>
      <point x="156" y="445" type="line" smooth="yes"/>
      <point x="156" y="245.747"/>
      <point x="205" y="106.391"/>
      <point x="290" y="0" type="curve"/>
      <point x="336" y="0" type="line"/>
      <point x="246" y="106.385"/>
      <point x="193" y="245.734"/>
      <point x="193" y="446" type="curve" smooth="yes"/>
      <point x="193" y="628" type="line" smooth="yes"/>
      <point x="193" y="966.627"/>
      <point x="348" y="1139"/>
      <point x="667" y="1139" type="curve" smooth="yes"/>
      <point x="756" y="1139"/>
      <point x="837.137" y="1124.35"/>
      <point x="903" y="1098" type="curve"/>
      <point x="903.968" y="1097.61"/>
      <point x="922.237" y="1090.31"/>
      <point x="923" y="1090" type="curve"/>
      <point x="1093.35" y="1001.52"/>
      <point x="1185" y="844.223"/>
      <point x="1185" y="582" type="curve" smooth="yes"/>
      <point x="1185" y="348" type="line" smooth="yes"/>
      <point x="1185" y="125.354"/>
      <point x="1099.33" y="13"/>
      <point x="928" y="13" type="curve" smooth="yes"/>
      <point x="756.664" y="13"/>
      <point x="670" y="125.354"/>
      <point x="670" y="348" type="curve" smooth="yes"/>
      <point x="670" y="582" type="line" smooth="yes"/>
      <point x="670" y="844.223"/>
      <point x="761.65" y="1001.52"/>
      <point x="932" y="1090" type="curve"/>
      <point x="932.763" y="1090.31"/>
      <point x="951.032" y="1097.61"/>
      <point x="952" y="1098" type="curve"/>
      <point x="1019.64" y="1124.83"/>
      <point x="1102.26" y="1139"/>
      <point x="1191" y="1139" type="curve" smooth="yes"/>
      <point x="1477.67" y="1139"/>
      <point x="1622" y="1000.85"/>
      <point x="1622" y="700" type="curve" smooth="yes"/>
      <point x="1622" y="591.037"/>
      <point x="1613" y="448.911"/>
      <point x="1613" y="339" type="curve" smooth="yes"/>
      <point x="1613" y="99.3807"/>
      <point x="1718" y="-23"/>
      <point x="1925" y="-23" type="curve" smooth="yes"/>
      <point x="2093" y="-23"/>
      <point x="2194" y="65"/>
      <point x="2219" y="232" type="curve"/>
      <point x="2230" y="232" type="line"/>
      <point x="2230" y="563" type="line"/>
      <point x="2201" y="586" type="line"/>
      <point x="2201" y="357" type="line" smooth="yes"/>
      <point x="2201" y="126"/>
      <point x="2110" y="11"/>
      <point x="1925" y="11" type="curve" smooth="yes"/>
      <point x="1740" y="11"/>
      <point x="1650" y="119.292"/>
    </contour>
    <contour>
      <point x="2221" y="232" type="line"/>
      <point x="2249" y="66"/>
      <point x="2356" y="-24"/>
      <point x="2534" y="-24" type="curve" smooth="yes"/>
      <point x="2771" y="-24"/>
      <point x="2883" y="119.382"/>
      <point x="2883" y="400" type="curve" smooth="yes"/>
      <point x="2883" y="663" type="line" smooth="yes"/>
      <point x="2883" y="884.395"/>
      <point x="2823" y="1031.66"/>
      <point x="2719" y="1144" type="curve"/>
      <point x="2673" y="1144" type="line"/>
      <point x="2781" y="1031.67"/>
      <point x="2846" y="883.386"/>
      <point x="2846" y="662" type="curve" smooth="yes"/>
      <point x="2846" y="400" type="line" smooth="yes"/>
      <point x="2846" y="140.342"/>
      <point x="2745" y="10"/>
      <point x="2533" y="10" type="curve" smooth="yes"/>
      <point x="2335" y="10"/>
      <point x="2238" y="124.965"/>
      <point x="2238" y="357" type="curve" smooth="yes"/>
      <point x="2238" y="579" type="line"/>
      <point x="2221" y="579" type="line"/>
    </contour>
  </outline>
</glyph>
<glyph name="Nya.mlm" format="2">
  <advance width="2731"/>
  <unicode hex="0D1E"/>
  <outline>
    <contour>
      <point x="655" y="1173" type="curve" smooth="yes"/>
      <point x="320" y="1173"/>
      <point x="156" y="983.345"/>
      <point x="156" y="603" type="curve" smooth="yes"/>
      <point x="156" y="339" type="line" smooth="yes"/>
      <point x="156" y="94.6056"/>
      <point x="258" y="-21"/>
      <point x="455" y="-21" type="curve" smooth="yes"/>
      <point x="641" y="-21"/>
      <point x="739" y="91.7344"/>
      <point x="739" y="304" type="curve" smooth="yes"/>
      <point x="739" y="439" type="line" smooth="yes"/>
      <point x="739" y="637.261"/>
      <point x="641" y="743"/>
      <point x="465" y="743" type="curve" smooth="yes"/>
      <point x="320" y="743"/>
      <point x="213" y="662"/>
      <point x="179" y="543" type="curve"/>
      <point x="193" y="529" type="line"/>
      <point x="239" y="644"/>
      <point x="331" y="709"/>
      <point x="463" y="709" type="curve" smooth="yes"/>
      <point x="618" y="709"/>
      <point x="702" y="617.315"/>
      <point x="702" y="437" type="curve" smooth="yes"/>
      <point x="702" y="304" type="line" smooth="yes"/>
      <point x="702" y="108.643"/>
      <point x="617" y="13"/>
      <point x="455" y="13" type="curve" smooth="yes"/>
      <point x="282" y="13"/>
      <point x="193" y="115.573"/>
      <point x="193" y="339" type="curve" smooth="yes"/>
      <point x="193" y="555" type="line"/>
      <point x="199" y="581" type="line"/>
      <point x="193" y="581" type="line"/>
      <point x="193" y="603" type="line" smooth="yes"/>
      <point x="193" y="962.411"/>
      <point x="345" y="1139"/>
      <point x="655" y="1139" type="curve" smooth="yes"/>
      <point x="941" y="1139"/>
      <point x="1087" y="1002"/>
      <point x="1087" y="751" type="curve" smooth="yes"/>
      <point x="1087" y="601" type="line"/>
      <point x="1102" y="601" type="line"/>
      <point x="1104" y="864" type="line"/>
      <point x="1064" y="1074"/>
      <point x="903" y="1173"/>
    </contour>
    <contour>
      <point x="1087" y="5" type="line"/>
      <point x="1124" y="5" type="line"/>
      <point x="1124" y="700" type="line"/>
      <point x="1087" y="700" type="line"/>
    </contour>
    <contour>
      <point x="1541" y="1173" type="curve" smooth="yes"/>
      <point x="1301.45" y="1173"/>
      <point x="1144.09" y="1075"/>
      <point x="1106" y="864" type="curve"/>
      <point x="1096" y="864" type="line"/>
      <point x="1097" y="621" type="line"/>
      <point x="1124" y="621" type="line"/>
      <point x="1124" y="751" type="line" smooth="yes"/>
      <point x="1124" y="1002"/>
      <point x="1265.34" y="1139"/>
      <point x="1541" y="1139" type="curve" smooth="yes"/>
      <point x="1630.64" y="1139"/>
      <point x="1712.03" y="1124"/>
      <point x="1779" y="1098" type="curve"/>
      <point x="1779.97" y="1097.61"/>
      <point x="1798.24" y="1090.31"/>
      <point x="1799" y="1090" type="curve"/>
      <point x="1969.35" y="1001.52"/>
      <point x="2061" y="844.223"/>
      <point x="2061" y="582" type="curve" smooth="yes"/>
      <point x="2061" y="348" type="line" smooth="yes"/>
      <point x="2061" y="125.354"/>
      <point x="1975.33" y="13"/>
      <point x="1804" y="13" type="curve" smooth="yes"/>
      <point x="1632.66" y="13"/>
      <point x="1546" y="125.354"/>
      <point x="1546" y="348" type="curve" smooth="yes"/>
      <point x="1546" y="582" type="line" smooth="yes"/>
      <point x="1546" y="844.223"/>
      <point x="1637.65" y="1001.52"/>
      <point x="1808" y="1090" type="curve"/>
      <point x="1808.76" y="1090.31"/>
      <point x="1827.03" y="1097.61"/>
      <point x="1828" y="1098" type="curve"/>
      <point x="1893.86" y="1124.35"/>
      <point x="1975" y="1139"/>
      <point x="2062" y="1139" type="curve" smooth="yes"/>
      <point x="2382" y="1139"/>
      <point x="2538" y="966.627"/>
      <point x="2538" y="628" type="curve" smooth="yes"/>
      <point x="2538" y="446" type="line" smooth="yes"/>
      <point x="2538" y="245.734"/>
      <point x="2486" y="106.385"/>
      <point x="2395" y="0" type="curve"/>
      <point x="2441" y="0" type="line"/>
      <point x="2526" y="106.391"/>
      <point x="2575" y="245.747"/>
      <point x="2575" y="445" type="curve" smooth="yes"/>
      <point x="2575" y="628" type="line" smooth="yes"/>
      <point x="2575" y="987.598"/>
      <point x="2405" y="1173"/>
      <point x="2062" y="1173" type="curve" smooth="yes"/>
      <point x="1958" y="1173"/>
      <point x="1866.79" y="1149.47"/>
      <point x="1788" y="1115" type="curve" smooth="yes"/>
      <point x="1772" y="1108" type="line"/>
      <point x="1600.65" y="1013.4"/>
      <point x="1509" y="851.136"/>
      <point x="1509" y="582" type="curve" smooth="yes"/>
      <point x="1509" y="348" type="line" smooth="yes"/>
      <point x="1509" y="104.398"/>
      <point x="1607.67" y="-21"/>
      <point x="1804" y="-21" type="curve" smooth="yes"/>
      <point x="1999.34" y="-21"/>
      <point x="2098" y="104.398"/>
      <point x="2098" y="348" type="curve" smooth="yes"/>
      <point x="2098" y="582" type="line" smooth="yes"/>
      <point x="2098" y="851.136"/>
      <point x="2006.35" y="1013.4"/>
      <point x="1835" y="1108" type="curve"/>
      <point x="1819" y="1115" type="line" smooth="yes"/>
      <point x="1739.03" y="1149.1"/>
      <point x="1646.66" y="1173"/>
    </contour>
  </outline>
</glyph>
<glyph name="Tha.mlm" format="2">
  <advance width="1613"/>
  <unicode hex="0D25"/>
  <outline>
    <contour>
      <point x="231" y="0" type="line"/>
      <point x="231" y="1149" type="line" name="n12"/>
      <point x="194" y="1149" type="line" name="n13"/>
      <point x="194" y="0" type="line"/>
    </contour>
    <contour>
      <point x="209" y="32" type="line"/>
      <point x="209" y="0" type="line"/>
      <point x="754" y="0" type="line"/>
      <point x="754" y="32" type="line"/>
    </contour>
    <contour>
      <point x="762" y="32" type="line"/>
      <point x="753" y="0" type="line"/>
      <point x="1429" y="0" type="line" name="n00"/>
      <point x="1429" y="786" type="line" smooth="yes"/>
      <point x="1429" y="1047.76"/>
      <point x="1315" y="1173"/>
      <point x="1083" y="1173" type="curve" smooth="yes"/>
      <point x="851" y="1173"/>
      <point x="738" y="1047.76"/>
      <point x="738" y="786" type="curve" smooth="yes"/>
      <point x="738" y="0" type="line"/>
      <point x="775" y="0" type="line"/>
      <point x="775" y="786" type="line" smooth="yes"/>
      <point x="775" y="1024.76"/>
      <point x="876" y="1139"/>
      <point x="1083" y="1139" type="curve" smooth="yes"/>
      <point x="1290" y="1139"/>
      <point x="1392" y="1024.76"/>
      <point x="1392" y="786" type="curve" smooth="yes"/>
      <point x="1392" y="32" type="line"/>
    </contour>
  </outline>
</glyph>
<glyph name="Da.mlm" format="2">
  <advance width="1209"/>
  <unicode hex="0D26"/>
  <outline>
    <contour>
      <point x="1039" y="842" type="line" smooth="yes"/>
      <point x="1039" y="1066.7"/>
      <point x="902" y="1175"/>
      <point x="629" y="1175" type="curve" smooth="yes"/>
      <point x="313" y="1175"/>
      <point x="159" y="1012.35"/>
      <point x="159" y="686" type="curve" smooth="yes"/>
      <point x="159" y="432" type="line" smooth="yes"/>
      <point x="159" y="232.498"/>
      <point x="197" y="104.417"/>
      <point x="254" y="0" type="curve"/>
      <point x="298" y="0" type="line"/>
      <point x="236" y="105.435"/>
      <point x="196" y="234.532"/>
      <point x="196" y="433" type="curve" smooth="yes"/>
      <point x="196" y="686" type="line" smooth="yes"/>
      <point x="196" y="989.333"/>
      <point x="336" y="1141"/>
      <point x="629" y="1141" type="curve" smooth="yes"/>
      <point x="879" y="1141"/>
      <point x="1002" y="1042.68"/>
      <point x="1002" y="842" type="curve" smooth="yes"/>
      <point x="1002" y="832" type="line" smooth="yes"/>
      <point x="1002" y="669.217"/>
      <point x="915" y="599.116"/>
      <point x="742" y="598" type="curve" smooth="yes"/>
      <point x="587" y="597" type="line"/>
      <point x="587" y="565" type="line"/>
      <point x="742" y="564" type="line" smooth="yes"/>
      <point x="930.999" y="562.781"/>
      <point x="1023" y="484.434"/>
      <point x="1023" y="310" type="curve" smooth="yes"/>
      <point x="1023" y="289" type="line" smooth="yes"/>
      <point x="1023" y="102.547"/>
      <point x="933" y="19"/>
      <point x="750" y="19" type="curve" smooth="yes"/>
      <point x="687" y="19"/>
      <point x="608" y="28"/>
      <point x="542" y="49" type="curve"/>
      <point x="550" y="13" type="line"/>
      <point x="614" y="-7"/>
      <point x="689" y="-15"/>
      <point x="753" y="-15" type="curve" smooth="yes"/>
      <point x="958" y="-15"/>
      <point x="1060" y="78.5436"/>
      <point x="1060" y="288" type="curve" smooth="yes"/>
      <point x="1060" y="309" type="line" smooth="yes"/>
      <point x="1060" y="475.064"/>
      <point x="987" y="560.643"/>
      <point x="839" y="580" type="curve"/>
      <point x="839" y="582" type="line"/>
      <point x="973" y="601.309"/>
      <point x="1039" y="682.61"/>
      <point x="1039" y="832" type="curve" smooth="yes"/>
    </contour>
  </outline>
</glyph>
<glyph name="Dha.mlm" format="2">
  <advance width="1663"/>
  <unicode hex="0D27"/>
  <outline>
    <contour>
      <point x="850" y="450" type="line"/>
      <point x="850" y="1140" type="line"/>
      <point x="813" y="1140" type="line"/>
      <point x="813" y="450" type="line"/>
    </contour>
    <contour>
      <point x="813" y="576" type="line"/>
      <point x="813" y="358" type="line" smooth="yes"/>
      <point x="813" y="126"/>
      <point x="713" y="11"/>
      <point x="512" y="11" type="curve" smooth="yes"/>
      <point x="297" y="11"/>
      <point x="195" y="142.368"/>
      <point x="195" y="401" type="curve" smooth="yes"/>
      <point x="195" y="663" type="line" smooth="yes"/>
      <point x="195" y="884.386"/>
      <point x="260" y="1032.67"/>
      <point x="368" y="1145" type="curve"/>
      <point x="322" y="1145" type="line"/>
      <point x="217" y="1032.66"/>
      <point x="158" y="885.395"/>
      <point x="158" y="664" type="curve" smooth="yes"/>
      <point x="158" y="401" type="line" smooth="yes"/>
      <point x="158" y="120.382"/>
      <point x="272" y="-23"/>
      <point x="511" y="-23" type="curve" smooth="yes"/>
      <point x="693" y="-23"/>
      <point x="802" y="67"/>
      <point x="830" y="233" type="curve"/>
      <point x="842" y="233" type="line"/>
      <point x="842" y="553" type="line"/>
    </contour>
    <contour>
      <point x="833" y="233" type="line"/>
      <point x="861" y="67"/>
      <point x="970" y="-23"/>
      <point x="1152" y="-23" type="curve" smooth="yes"/>
      <point x="1391" y="-23"/>
      <point x="1505" y="120.382"/>
      <point x="1505" y="401" type="curve" smooth="yes"/>
      <point x="1505" y="664" type="line" smooth="yes"/>
      <point x="1505" y="885.395"/>
      <point x="1445" y="1032.66"/>
      <point x="1341" y="1145" type="curve"/>
      <point x="1295" y="1145" type="line"/>
      <point x="1403" y="1032.67"/>
      <point x="1468" y="884.386"/>
      <point x="1468" y="663" type="curve" smooth="yes"/>
      <point x="1468" y="401" type="line" smooth="yes"/>
      <point x="1468" y="142.368"/>
      <point x="1366" y="11"/>
      <point x="1151" y="11" type="curve" smooth="yes"/>
      <point x="950" y="11"/>
      <point x="850" y="126"/>
      <point x="850" y="358" type="curve" smooth="yes"/>
      <point x="850" y="570" type="line"/>
      <point x="833" y="570" type="line"/>
    </contour>
  </outline>
</glyph>
<glyph name="Pha.mlm" format="2">
  <advance width="2073"/>
  <unicode hex="0D2B"/>
  <outline>
    <contour>
      <point x="692" y="32" type="line"/>
      <point x="674" y="0" type="line"/>
      <point x="1214" y="0" type="line"/>
      <point x="1214" y="32" type="line"/>
    </contour>
    <contour>
      <point x="471" y="756" type="curve" smooth="yes"/>
      <point x="252" y="756"/>
      <point x="144" y="632.522"/>
      <point x="144" y="401" type="curve" smooth="yes"/>
      <point x="144" y="308" type="line" smooth="yes"/>
      <point x="144" y="170.855"/>
      <point x="178" y="70.1386"/>
      <point x="242" y="0" type="curve"/>
      <point x="288" y="0" type="line"/>
      <point x="220" y="72.1716"/>
      <point x="181" y="171.871"/>
      <point x="181" y="308" type="curve" smooth="yes"/>
      <point x="181" y="401" type="line" smooth="yes"/>
      <point x="181" y="612.592"/>
      <point x="279" y="722"/>
      <point x="471" y="722" type="curve" smooth="yes"/>
      <point x="664" y="722"/>
      <point x="762" y="612.592"/>
      <point x="762" y="401" type="curve" smooth="yes"/>
      <point x="762" y="308" type="line" smooth="yes"/>
      <point x="762" y="174.879"/>
      <point x="722" y="76.1616"/>
      <point x="651" y="6" type="curve"/>
      <point x="651" y="0" type="line"/>
      <point x="686" y="0" type="line"/>
      <point x="761" y="70.1386"/>
      <point x="799" y="170.855"/>
      <point x="799" y="308" type="curve" smooth="yes"/>
      <point x="799" y="401" type="line" smooth="yes"/>
      <point x="799" y="632.522"/>
      <point x="691" y="756"/>
    </contour>
    <contour>
      <point x="1222" y="32" type="line"/>
      <point x="1213" y="0" type="line"/>
      <point x="1889" y="0" type="line" name="n00"/>
      <point x="1889" y="786" type="line" smooth="yes"/>
      <point x="1889" y="1047.76"/>
      <point x="1775" y="1173"/>
      <point x="1543" y="1173" type="curve" smooth="yes"/>
      <point x="1311" y="1173"/>
      <point x="1198" y="1047.76"/>
      <point x="1198" y="786" type="curve" smooth="yes"/>
      <point x="1198" y="0" type="line"/>
      <point x="1235" y="0" type="line"/>
      <point x="1235" y="786" type="line" smooth="yes"/>
      <point x="1235" y="1024.76"/>
      <point x="1336" y="1139"/>
      <point x="1543" y="1139" type="curve" smooth="yes"/>
      <point x="1750" y="1139"/>
      <point x="1852" y="1024.76"/>
      <point x="1852" y="786" type="curve" smooth="yes"/>
      <point x="1852" y="32" type="line"/>
    </contour>
  </outline>
</glyph>
<glyph name="Ma.mlm" format="2">
  <advance width="1331"/>
  <unicode hex="0D2E"/>
  <outline>
    <contour>
      <point x="202" y="32" type="line"/>
      <point x="200" y="0" type="line"/>
      <point x="1138" y="0" type="line"/>
      <point x="1138" y="32" type="line"/>
    </contour>
    <contour>
      <point x="666" y="1141" type="curve" smooth="yes"/>
      <point x="964" y="1141"/>
      <point x="1110" y="978.653"/>
      <point x="1110" y="656" type="curve" smooth="yes"/>
      <point x="1110" y="0" type="line"/>
      <point x="1147" y="0" type="line"/>
      <point x="1147" y="656" type="line" smooth="yes"/>
      <point x="1147" y="999.621"/>
      <point x="988" y="1175"/>
      <point x="666" y="1175" type="curve" smooth="yes"/>
      <point x="344" y="1175"/>
      <point x="184" y="999.621"/>
      <point x="184" y="656" type="curve" smooth="yes"/>
      <point x="184" y="0" type="line"/>
      <point x="221" y="0" type="line"/>
      <point x="221" y="656" type="line" smooth="yes"/>
      <point x="221" y="978.653"/>
      <point x="367" y="1141"/>
    </contour>
    <contour>
      <point x="753" y="698" type="line" smooth="yes"/>
      <point x="753" y="938.912"/>
      <point x="647.547" y="1065"/>
      <point x="450" y="1065" type="curve" smooth="yes"/>
      <point x="407.364" y="1065"/>
      <point x="360.667" y="1056.75"/>
      <point x="316" y="1037" type="curve"/>
      <point x="309" y="1009" type="line"/>
      <point x="355.951" y="1028.57"/>
      <point x="400.978" y="1034"/>
      <point x="445" y="1034" type="curve" smooth="yes"/>
      <point x="621.652" y="1034"/>
      <point x="716" y="920.785"/>
      <point x="716" y="697" type="curve" smooth="yes"/>
      <point x="716" y="674" type="line" smooth="yes" name="n15"/>
      <point x="716" y="378.636"/>
      <point x="577.622" y="169.04"/>
      <point x="350" y="29" type="curve"/>
      <point x="388" y="16" type="line"/>
      <point x="612.615" y="149.852"/>
      <point x="753" y="374.689"/>
      <point x="753" y="673" type="curve" smooth="yes"/>
    </contour>
  </outline>
</glyph>
<glyph name="La.mlm" format="2">
  <advance width="1556"/>
  <unicode hex="0D32"/>
  <outline>
    <contour>
      <point x="868" y="454" type="line"/>
      <point x="221" y="454" type="line"/>
      <point x="221" y="776" type="line" smooth="yes"/>
      <point x="221" y="1016.22"/>
      <point x="331.976" y="1140"/>
      <point x="546" y="1140" type="curve" smooth="yes"/>
      <point x="760.006" y="1140"/>
      <point x="868" y="1016.22"/>
      <point x="868" y="776" type="curve" smooth="yes"/>
    </contour>
    <contour>
      <point x="184" y="0" type="line"/>
      <point x="1362" y="0" type="line"/>
      <point x="1362" y="1149" type="line"/>
      <point x="1325" y="1149" type="line"/>
      <point x="1325" y="32" type="line"/>
      <point x="221" y="32" type="line"/>
      <point x="221" y="422" type="line"/>
      <point x="905" y="422" type="line"/>
      <point x="905" y="776" type="line" smooth="yes"/>
      <point x="905" y="1038.2"/>
      <point x="785.003" y="1174"/>
      <point x="546" y="1174" type="curve" smooth="yes"/>
      <point x="307.973" y="1174"/>
      <point x="184" y="1038.2"/>
      <point x="184" y="776" type="curve" smooth="yes"/>
    </contour>
  </outline>
</glyph>
<glyph name="Lla.mlm" format="2">
  <advance width="1362"/>
  <unicode hex="0D33"/>
  <outline>
    <contour>
      <point x="367" y="-353" type="curve" smooth="yes"/>
      <point x="1204" y="-353" type="line"/>
      <point x="1211" y="-321" type="line"/>
      <point x="367" y="-321" type="line" smooth="yes"/>
      <point x="249" y="-321"/>
      <point x="187" y="-265.329"/>
      <point x="187" y="-155" type="curve" smooth="yes"/>
      <point x="187" y="-47.6914"/>
      <point x="249" y="9"/>
      <point x="367" y="9" type="curve" smooth="yes"/>
      <point x="912" y="9" type="line" smooth="yes"/>
      <point x="1113.13" y="9"/>
      <point x="1215" y="103.136"/>
      <point x="1215" y="289" type="curve" smooth="yes"/>
      <point x="1215" y="305" type="line" smooth="yes"/>
      <point x="1215" y="467.011"/>
      <point x="1142" y="553.621"/>
      <point x="991" y="574" type="curve"/>
      <point x="991" y="576" type="line"/>
      <point x="1130" y="596.32"/>
      <point x="1201" y="677.6"/>
      <point x="1201" y="830" type="curve" smooth="yes"/>
      <point x="1201" y="840" type="line" smooth="yes"/>
      <point x="1201" y="1060.63"/>
      <point x="1040" y="1175"/>
      <point x="718" y="1175" type="curve" smooth="yes"/>
      <point x="346.398" y="1175"/>
      <point x="154" y="1014.32"/>
      <point x="154" y="696" type="curve" smooth="yes"/>
      <point x="154" y="527" type="line" smooth="yes"/>
      <point x="154" y="323.317"/>
      <point x="243.057" y="220"/>
      <point x="425" y="220" type="curve" smooth="yes"/>
      <point x="594.735" y="220"/>
      <point x="682" y="318.227"/>
      <point x="682" y="497" type="curve" smooth="yes"/>
      <point x="682" y="597" type="line" smooth="yes"/>
      <point x="682" y="766.796"/>
      <point x="594.865" y="862"/>
      <point x="434" y="862" type="curve" smooth="yes"/>
      <point x="300.199" y="862"/>
      <point x="204.627" y="785.944"/>
      <point x="175" y="677" type="curve"/>
      <point x="189" y="663" type="line"/>
      <point x="226.165" y="767.156"/>
      <point x="312.882" y="828"/>
      <point x="432" y="828" type="curve" smooth="yes"/>
      <point x="569.879" y="828"/>
      <point x="645" y="745.765"/>
      <point x="645" y="595" type="curve" smooth="yes"/>
      <point x="645" y="497" type="line" smooth="yes"/>
      <point x="645" y="340.226"/>
      <point x="568.81" y="254"/>
      <point x="425" y="254" type="curve" smooth="yes"/>
      <point x="268.968" y="254"/>
      <point x="190" y="343.363"/>
      <point x="190" y="527" type="curve" smooth="yes"/>
      <point x="190" y="682" type="line"/>
      <point x="198" y="714.614" type="line"/>
      <point x="190" y="714.614" type="line"/>
      <point x="190.138" y="715.275" type="line"/>
      <point x="189.519" y="972.073"/>
      <point x="357.507" y="1141"/>
      <point x="718" y="1141" type="curve" smooth="yes"/>
      <point x="1016" y="1141"/>
      <point x="1164" y="1037.63"/>
      <point x="1164" y="840" type="curve" smooth="yes"/>
      <point x="1164" y="829" type="line" smooth="yes"/>
      <point x="1164" y="668.299"/>
      <point x="1082.01" y="595.834"/>
      <point x="908" y="591" type="curve" smooth="yes"/>
      <point x="836" y="589" type="line"/>
      <point x="836" y="558" type="line"/>
      <point x="909" y="557" type="line" smooth="yes"/>
      <point x="1089.99" y="554.521"/>
      <point x="1178" y="475.374"/>
      <point x="1178" y="306" type="curve" smooth="yes"/>
      <point x="1178" y="289" type="line" smooth="yes"/>
      <point x="1178" y="125.578"/>
      <point x="1086.21" y="41"/>
      <point x="911" y="41" type="curve" smooth="yes"/>
      <point x="367" y="41" type="line" smooth="yes"/>
      <point x="224" y="41"/>
      <point x="150" y="-26.6907"/>
      <point x="150" y="-155" type="curve" smooth="yes"/>
      <point x="150" y="-285.316"/>
      <point x="224" y="-353"/>
    </contour>
  </outline>
</glyph>
<glyph name="Zha.mlm" format="2">
  <advance width="1291"/>
  <unicode hex="0D34"/>
  <outline>
    <contour>
      <point x="628" y="842" type="curve" smooth="yes"/>
      <point x="628" y="873" type="line" smooth="yes"/>
      <point x="628" y="1045.16"/>
      <point x="712" y="1140"/>
      <point x="872" y="1140" type="curve" smooth="yes"/>
      <point x="1037" y="1140"/>
      <point x="1121" y="1040.13"/>
      <point x="1121" y="862" type="curve" smooth="yes"/>
      <point x="1121" y="775" type="line" smooth="yes"/>
      <point x="1121" y="515.611"/>
      <point x="968" y="369"/>
      <point x="666" y="369" type="curve" smooth="yes"/>
      <point x="338" y="369"/>
      <point x="177" y="508.4"/>
      <point x="177" y="779" type="curve" smooth="yes"/>
      <point x="177" y="834" type="line" smooth="yes"/>
      <point x="177" y="972.553"/>
      <point x="209" y="1077.24"/>
      <point x="265" y="1146" type="curve"/>
      <point x="224" y="1146" type="line"/>
      <point x="171" y="1077.23"/>
      <point x="140" y="973.564"/>
      <point x="140" y="835" type="curve" smooth="yes"/>
      <point x="140" y="779" type="line" smooth="yes"/>
      <point x="140" y="486.41"/>
      <point x="314" y="335"/>
      <point x="666" y="335" type="curve" smooth="yes"/>
      <point x="994" y="335"/>
      <point x="1158" y="493.605"/>
      <point x="1158" y="775" type="curve" smooth="yes"/>
      <point x="1158" y="862" type="line" smooth="yes"/>
      <point x="1158" y="1062.13"/>
      <point x="1065" y="1174"/>
      <point x="872" y="1174" type="curve" smooth="yes"/>
      <point x="683" y="1174"/>
      <point x="591" y="1066.13"/>
      <point x="591" y="873" type="curve" smooth="yes"/>
      <point x="591" y="841" type="line" smooth="yes"/>
      <point x="591" y="626.668"/>
      <point x="676" y="484.439"/>
      <point x="755" y="359" type="curve"/>
      <point x="760" y="347" type="line"/>
      <point x="790" y="297.067"/>
      <point x="804" y="246.094"/>
      <point x="804" y="192" type="curve" smooth="yes"/>
      <point x="804" y="65"/>
      <point x="732" y="0"/>
      <point x="580" y="0" type="curve" smooth="yes"/>
      <point x="514" y="0"/>
      <point x="431" y="14"/>
      <point x="366" y="42" type="curve"/>
      <point x="376" y="6" type="line"/>
      <point x="438" y="-22"/>
      <point x="519" y="-34"/>
      <point x="584" y="-34" type="curve" smooth="yes"/>
      <point x="756" y="-34"/>
      <point x="841" y="42"/>
      <point x="841" y="191" type="curve" smooth="yes"/>
      <point x="841" y="248.129"/>
      <point x="826" y="300.065"/>
      <point x="796" y="352" type="curve"/>
      <point x="790" y="367" type="line"/>
      <point x="710" y="493.403"/>
      <point x="628" y="634.62"/>
    </contour>
  </outline>
</glyph>
<glyph name="Ssa.mlm" format="2">
  <advance width="2154"/>
  <unicode hex="0D37"/>
  <outline>
    <contour>
      <point x="471" y="756" type="curve" smooth="yes"/>
      <point x="252" y="756"/>
      <point x="144" y="632.522"/>
      <point x="144" y="401" type="curve" smooth="yes"/>
      <point x="144" y="308" type="line" smooth="yes"/>
      <point x="144" y="170.855"/>
      <point x="178" y="70.1386"/>
      <point x="242" y="0" type="curve"/>
      <point x="288" y="0" type="line"/>
      <point x="220" y="72.1716"/>
      <point x="181" y="171.871"/>
      <point x="181" y="308" type="curve" smooth="yes"/>
      <point x="181" y="401" type="line" smooth="yes"/>
      <point x="181" y="612.592"/>
      <point x="279" y="722"/>
      <point x="471" y="722" type="curve" smooth="yes"/>
      <point x="664" y="722"/>
      <point x="762" y="612.592"/>
      <point x="762" y="401" type="curve" smooth="yes"/>
      <point x="762" y="308" type="line" smooth="yes"/>
      <point x="762" y="174.879"/>
      <point x="722" y="76.1616"/>
      <point x="651" y="6" type="curve"/>
      <point x="651" y="0" type="line"/>
      <point x="686" y="0" type="line"/>
      <point x="761" y="70.1386"/>
      <point x="799" y="170.855"/>
      <point x="799" y="308" type="curve" smooth="yes"/>
      <point x="799" y="401" type="line" smooth="yes"/>
      <point x="799" y="632.522"/>
      <point x="691" y="756"/>
    </contour>
    <contour>
      <point x="669" y="0" type="line"/>
      <point x="1960" y="0" type="line"/>
      <point x="1960" y="1149" type="line"/>
      <point x="1923" y="1149" type="line"/>
      <point x="1923" y="32" type="line"/>
      <point x="695" y="32" type="line"/>
    </contour>
    <contour>
      <point x="1520" y="766" type="line" smooth="yes"/>
      <point x="1520" y="652.667"/>
      <point x="1493.01" y="549.452"/>
      <point x="1440" y="426" type="curve" smooth="yes"/>
      <point x="1439.12" y="423.945"/>
      <point x="1437" y="417"/>
      <point x="1435" y="415" type="curve"/>
      <point x="1247" y="16" type="line"/>
      <point x="1283" y="10" type="line"/>
      <point x="1471" y="413" type="line"/>
      <point x="1473" y="416"/>
      <point x="1475.74" y="423.098"/>
      <point x="1477" y="426" type="curve" smooth="yes"/>
      <point x="1530.01" y="548.44"/>
      <point x="1557" y="651.655"/>
      <point x="1557" y="766" type="curve" smooth="yes"/>
      <point x="1557" y="852" type="line" smooth="yes"/>
      <point x="1557" y="1062.28"/>
      <point x="1463.97" y="1173"/>
      <point x="1270" y="1173" type="curve" smooth="yes"/>
      <point x="1077" y="1173"/>
      <point x="981" y="1063.28"/>
      <point x="981" y="854" type="curve" smooth="yes"/>
      <point x="981" y="774" type="line" smooth="yes"/>
      <point x="981" y="524.33"/>
      <point x="1118.98" y="400"/>
      <point x="1386" y="400" type="curve" smooth="yes"/>
      <point x="1403" y="400" type="line" smooth="yes"/>
      <point x="1419" y="400"/>
      <point x="1433.98" y="401.327"/>
      <point x="1451" y="402" type="curve" smooth="yes"/>
      <point x="1635.81" y="409.313"/>
      <point x="1802.28" y="457"/>
      <point x="1934" y="538" type="curve"/>
      <point x="1934" y="574" type="line"/>
      <point x="1804.26" y="493"/>
      <point x="1638.75" y="443"/>
      <point x="1461" y="434" type="curve"/>
      <point x="1443" y="432"/>
      <point x="1424" y="433"/>
      <point x="1405" y="433" type="curve" smooth="yes"/>
      <point x="1388" y="433" type="line" smooth="yes"/>
      <point x="1143.98" y="433"/>
      <point x="1018" y="546.329"/>
      <point x="1018" y="774" type="curve" smooth="yes"/>
      <point x="1018" y="854" type="line" smooth="yes"/>
      <point x="1018" y="1042.3"/>
      <point x="1102" y="1139"/>
      <point x="1270" y="1139" type="curve" smooth="yes"/>
      <point x="1437.98" y="1139"/>
      <point x="1520" y="1041.3"/>
      <point x="1520" y="852" type="curve" smooth="yes"/>
    </contour>
  </outline>
</glyph>
<glyph name="Praslesham.mlm" format="2">
  <advance width="642"/>
  <unicode hex="0D3D"/>
  <outline>
    <contour>
      <point x="307" y="-96" type="curve" smooth="yes"/>
      <point x="383" y="1198" type="line" smooth="yes"/>
      <point x="393" y="1363"/>
      <point x="453" y="1446"/>
      <point x="598" y="1446" type="curve" smooth="yes"/>
      <point x="665" y="1446"/>
      <point x="730" y="1427"/>
      <point x="778" y="1401" type="curve"/>
      <point x="771" y="1439" type="line"/>
      <point x="727" y="1462"/>
      <point x="666" y="1480"/>
      <point x="597" y="1480" type="curve" smooth="yes"/>
      <point x="429" y="1480"/>
      <point x="357" y="1386"/>
      <point x="346" y="1200" type="curve" smooth="yes"/>
      <point x="270" y="-94" type="line" smooth="yes"/>
      <point x="260" y="-262"/>
      <point x="194" y="-346"/>
      <point x="42" y="-346" type="curve" smooth="yes"/>
      <point x="-35" y="-346"/>
      <point x="-105" y="-326"/>
      <point x="-162" y="-296" type="curve"/>
      <point x="-154" y="-334" type="line"/>
      <point x="-102" y="-361"/>
      <point x="-36" y="-380"/>
      <point x="43" y="-380" type="curve" smooth="yes"/>
      <point x="217" y="-380"/>
      <point x="296" y="-285"/>
    </contour>
  </outline>
</glyph>
<glyph name="matraIi.mlm" format="2">
  <advance width="468"/>
  <unicode hex="0D40"/>
  <outline>
    <contour>
      <point x="-245" y="1394" type="line" smooth="yes"/>
      <point x="-245" y="1243.75"/>
      <point x="-158" y="1163"/>
      <point x="6" y="1163" type="curve" smooth="yes"/>
      <point x="109" y="1163"/>
      <point x="190" y="1204"/>
      <point x="237" y="1258" type="curve"/>
      <point x="244" y="1258" type="line"/>
      <point x="244" y="1303" type="line"/>
      <point x="191" y="1236"/>
      <point x="110" y="1195"/>
      <point x="6" y="1195" type="curve" smooth="yes"/>
      <point x="-133" y="1195"/>
      <point x="-209" y="1264.75"/>
      <point x="-209" y="1394" type="curve" smooth="yes"/>
      <point x="-209" y="1415" type="line" smooth="yes" name="n03"/>
      <point x="-209" y="1547.23"/>
      <point x="-129" y="1620"/>
      <point x="14" y="1620" type="curve" smooth="yes"/>
      <point x="159" y="1620"/>
      <point x="238" y="1541.24"/>
      <point x="238" y="1396" type="curve" smooth="yes"/>
      <point x="238" y="1288" type="line" name="n03"/>
      <point x="237" y="1282" type="line"/>
      <point x="237" y="0" type="line"/>
      <point x="274" y="0" type="line"/>
      <point x="274" y="1396" type="line" smooth="yes"/>
      <point x="274" y="1565.31"/>
      <point x="182" y="1652"/>
      <point x="14" y="1652" type="curve" smooth="yes"/>
      <point x="-153" y="1652"/>
      <point x="-245" y="1568.23"/>
      <point x="-245" y="1415" type="curve" smooth="yes"/>
    </contour>
  </outline>
</glyph>
<glyph name="matraU.mlm" format="2">
  <advance width="783"/>
  <unicode hex="0D41"/>
  <outline>
    <contour>
      <point x="374" y="-315" type="curve" smooth="yes"/>
      <point x="209.63" y="-315"/>
      <point x="124" y="-221.293"/>
      <point x="124" y="-50" type="curve" smooth="yes"/>
      <point x="124" y="2" type="line" smooth="yes"/>
      <point x="124" y="173.298"/>
      <point x="209.63" y="266"/>
      <point x="374" y="266" type="curve" smooth="yes"/>
      <point x="539.354" y="266"/>
      <point x="624" y="173.298"/>
      <point x="624" y="2" type="curve" smooth="yes"/>
      <point x="624" y="-49" type="line" smooth="yes"/>
      <point x="624" y="-220.288"/>
      <point x="539.354" y="-315"/>
    </contour>
    <contour>
      <point x="374" y="300" type="curve" smooth="yes"/>
      <point x="185.625" y="300"/>
      <point x="87" y="196.963"/>
      <point x="87" y="2" type="curve" smooth="yes"/>
      <point x="87" y="-50" type="line" smooth="yes"/>
      <point x="87" y="-246.631"/>
      <point x="185.625" y="-349"/>
      <point x="374" y="-349" type="curve" smooth="yes"/>
      <point x="563.361" y="-349"/>
      <point x="661" y="-246.288"/>
      <point x="661" y="-49" type="curve" smooth="yes"/>
      <point x="661" y="2" type="line" smooth="yes"/>
      <point x="661" y="189.898"/>
      <point x="571.358" y="289.908"/>
      <point x="397" y="299" type="curve"/>
      <point x="389" y="299"/>
      <point x="382" y="300"/>
    </contour>
    <contour>
      <point x="644" y="847" type="curve" smooth="yes"/>
      <point x="644" y="866" type="line" smooth="yes"/>
      <point x="644" y="1070"/>
      <point x="548.386" y="1173"/>
      <point x="368" y="1173" type="curve" smooth="yes"/>
      <point x="267.343" y="1173"/>
      <point x="183.971" y="1141"/>
      <point x="125" y="1093" type="curve"/>
      <point x="117" y="1049" type="line"/>
      <point x="182.045" y="1104"/>
      <point x="267.416" y="1139"/>
      <point x="366" y="1139" type="curve" smooth="yes"/>
      <point x="526.339" y="1139"/>
      <point x="607" y="1046"/>
      <point x="607" y="864" type="curve" smooth="yes"/>
      <point x="607" y="845" type="line" smooth="yes" name="n15"/>
      <point x="607" y="601.237"/>
      <point x="503" y="410.86"/>
      <point x="358" y="292" type="curve"/>
      <point x="398" y="278" type="line"/>
      <point x="537" y="389.786"/>
      <point x="644" y="599.258"/>
    </contour>
  </outline>
</glyph>
<glyph name="matraUu.mlm" format="2">
  <advance width="783"/>
  <unicode hex="0D42"/>
  <outline>
    <contour>
      <point x="373" y="-37" type="curve" smooth="yes"/>
      <point x="246" y="-37"/>
      <point x="162" y="15"/>
      <point x="125" y="109" type="curve"/>
      <point x="113" y="89" type="line"/>
      <point x="118" y="66" type="line"/>
      <point x="156" y="-23"/>
      <point x="248" y="-71"/>
      <point x="373" y="-71" type="curve" smooth="yes"/>
      <point x="498" y="-71"/>
      <point x="587" y="-23"/>
      <point x="629" y="66" type="curve"/>
      <point x="630" y="89" type="line"/>
      <point x="622" y="109" type="line"/>
      <point x="585" y="15"/>
      <point x="500" y="-37"/>
    </contour>
    <contour>
      <point x="374" y="-315" type="curve" smooth="yes"/>
      <point x="208.635" y="-315"/>
      <point x="123" y="-221.646"/>
      <point x="123" y="-51" type="curve" smooth="yes"/>
      <point x="123" y="3" type="line" smooth="yes"/>
      <point x="123" y="173.649"/>
      <point x="208.635" y="266"/>
      <point x="374" y="266" type="curve" smooth="yes"/>
      <point x="540.349" y="266"/>
      <point x="625" y="173.649"/>
      <point x="625" y="3" type="curve" smooth="yes"/>
      <point x="625" y="-50" type="line" smooth="yes"/>
      <point x="625" y="-220.644"/>
      <point x="540.349" y="-315"/>
    </contour>
    <contour>
      <point x="374" y="300" type="curve" smooth="yes"/>
      <point x="185.625" y="300"/>
      <point x="87" y="197.308"/>
      <point x="87" y="3" type="curve" smooth="yes"/>
      <point x="87" y="-51" type="line" smooth="yes"/>
      <point x="87" y="-246.973"/>
      <point x="185.625" y="-349"/>
      <point x="374" y="-349" type="curve" smooth="yes"/>
      <point x="563.361" y="-349"/>
      <point x="661" y="-246.973"/>
      <point x="661" y="-51" type="curve" smooth="yes"/>
      <point x="661" y="3" type="line" smooth="yes"/>
      <point x="661" y="190.265"/>
      <point x="571.358" y="289.939"/>
      <point x="397" y="299" type="curve"/>
      <point x="389" y="299"/>
      <point x="382" y="300"/>
    </contour>
    <contour>
      <point x="644" y="847" type="curve" smooth="yes"/>
      <point x="644" y="866" type="line" smooth="yes"/>
      <point x="644" y="1070"/>
      <point x="548.386" y="1173"/>
      <point x="368" y="1173" type="curve" smooth="yes"/>
      <point x="267.343" y="1173"/>
      <point x="183.971" y="1141"/>
      <point x="125" y="1093" type="curve"/>
      <point x="117" y="1049" type="line"/>
      <point x="182.045" y="1104"/>
      <point x="267.416" y="1139"/>
      <point x="366" y="1139" type="curve" smooth="yes"/>
      <point x="526.339" y="1139"/>
      <point x="607" y="1046"/>
      <point x="607" y="864" type="curve" smooth="yes"/>
      <point x="607" y="845" type="line" smooth="yes" name="n15"/>
      <point x="607" y="601.237"/>
      <point x="503" y="410.86"/>
      <point x="358" y="292" type="curve"/>
      <point x="398" y="278" type="line"/>
      <point x="537" y="389.786"/>
      <point x="644" y="599.258"/>
    </contour>
  </outline>
</glyph>
<glyph name="matraRu.mlm" format="2">
  <advance width="519"/>
  <unicode hex="0D43"/>
  <outline>
    <contour>
      <point x="170" y="-512" type="curve" smooth="yes" name="n03"/>
      <point x="336" y="-512"/>
      <point x="427" y="-423"/>
      <point x="427" y="-253" type="curve" smooth="yes"/>
      <point x="427" y="-228" type="line" smooth="yes"/>
      <point x="427" y="22"/>
      <point x="260" y="317"/>
      <point x="260" y="703" type="curve" smooth="yes"/>
      <point x="260" y="866"/>
      <point x="280" y="1004"/>
      <point x="313" y="1149" type="curve"/>
      <point x="277" y="1149" type="line"/>
      <point x="240" y="1004"/>
      <point x="223" y="866"/>
      <point x="223" y="703" type="curve" smooth="yes"/>
      <point x="223" y="373"/>
      <point x="349" y="91"/>
      <point x="381" y="-118" type="curve" smooth="yes"/>
      <point x="384" y="-136" type="line"/>
      <point x="388" y="-167"/>
      <point x="390" y="-198"/>
      <point x="390" y="-228" type="curve" smooth="yes"/>
      <point x="390" y="-253" type="line" smooth="yes"/>
      <point x="390" y="-399"/>
      <point x="311" y="-478"/>
      <point x="170" y="-478" type="curve" smooth="yes"/>
      <point x="29" y="-478"/>
      <point x="-51" y="-404"/>
      <point x="-51" y="-272" type="curve" smooth="yes"/>
      <point x="-51" y="-246" type="line" smooth="yes"/>
      <point x="-51" y="-118"/>
      <point x="28" y="-48"/>
      <point x="165" y="-48" type="curve" smooth="yes"/>
      <point x="266" y="-48"/>
      <point x="342" y="-88"/>
      <point x="394" y="-158" type="curve"/>
      <point x="395" y="-103" type="line"/>
      <point x="378" y="-103" type="line"/>
      <point x="335" y="-52"/>
      <point x="263" y="-14"/>
      <point x="162" y="-14" type="curve" smooth="yes" name="n03"/>
      <point x="2" y="-14"/>
      <point x="-88" y="-96"/>
      <point x="-88" y="-246" type="curve" smooth="yes"/>
      <point x="-88" y="-272" type="line" smooth="yes"/>
      <point x="-88" y="-426"/>
      <point x="4" y="-512"/>
    </contour>
  </outline>
</glyph>
<glyph name="matrashortE.mlm" format="2">
  <advance width="1366"/>
  <unicode hex="0D46"/>
  <outline>
    <contour>
      <point x="681" y="1141" type="curve" smooth="yes"/>
      <point x="1011" y="1141"/>
      <point x="1173" y="968.712"/>
      <point x="1173" y="617" type="curve" smooth="yes"/>
      <point x="1173" y="450" type="line" smooth="yes"/>
      <point x="1173" y="243.636"/>
      <point x="1121" y="104.318"/>
      <point x="1031" y="0" type="curve"/>
      <point x="1077" y="0" type="line"/>
      <point x="1161" y="104.323"/>
      <point x="1210" y="239.558"/>
      <point x="1210" y="449" type="curve" smooth="yes"/>
      <point x="1210" y="617" type="line" smooth="yes"/>
      <point x="1210" y="989.679"/>
      <point x="1037" y="1175"/>
      <point x="681" y="1175" type="curve" smooth="yes"/>
      <point x="328.343" y="1175"/>
      <point x="156" y="984.345"/>
      <point x="156" y="602" type="curve" smooth="yes"/>
      <point x="156" y="341" type="line" smooth="yes"/>
      <point x="156" y="95.2849"/>
      <point x="258.658" y="-21"/>
      <point x="456" y="-21" type="curve" smooth="yes"/>
      <point x="643.345" y="-21"/>
      <point x="742" y="92.387"/>
      <point x="742" y="306" type="curve" smooth="yes"/>
      <point x="742" y="440" type="line" smooth="yes"/>
      <point x="742" y="639.609"/>
      <point x="643.357" y="746"/>
      <point x="466" y="746" type="curve" smooth="yes"/>
      <point x="320.507" y="746"/>
      <point x="212.882" y="664"/>
      <point x="179" y="544" type="curve"/>
      <point x="193" y="530" type="line"/>
      <point x="238.831" y="646"/>
      <point x="331.489" y="712"/>
      <point x="464" y="712" type="curve" smooth="yes"/>
      <point x="620.351" y="712"/>
      <point x="705" y="619.652"/>
      <point x="705" y="438" type="curve" smooth="yes"/>
      <point x="705" y="306" type="line" smooth="yes"/>
      <point x="705" y="109.315"/>
      <point x="619.344" y="13"/>
      <point x="456" y="13" type="curve" smooth="yes"/>
      <point x="282.659" y="13"/>
      <point x="193" y="116.259"/>
      <point x="193" y="341" type="curve" smooth="yes"/>
      <point x="193" y="556" type="line"/>
      <point x="193.601" y="557.421"/>
      <point x="203.467" y="580.741"/>
      <point x="204" y="582" type="curve"/>
      <point x="203.465" y="582"/>
      <point x="193.6" y="582"/>
      <point x="193" y="582" type="curve"/>
      <point x="193" y="602" type="line" smooth="yes"/>
      <point x="193" y="963.41"/>
      <point x="353.343" y="1141"/>
    </contour>
  </outline>
</glyph>
<glyph name="Virama.mlm" format="2">
  <unicode hex="0D4D"/>
  <outline>
    <contour>
      <point x="-217" y="1336" type="curve" smooth="yes"/>
      <point x="-375.542" y="1336"/>
      <point x="-475" y="1421.46"/>
      <point x="-475" y="1583" type="curve" smooth="yes"/>
      <point x="-475" y="1613" type="line"/>
      <point x="-510" y="1613" type="line"/>
      <point x="-510" y="1582" type="line" smooth="yes"/>
      <point x="-510" y="1404.62"/>
      <point x="-401.481" y="1304"/>
      <point x="-217" y="1304" type="curve" smooth="yes"/>
      <point x="-32.5185" y="1304"/>
      <point x="76" y="1404.62"/>
      <point x="76" y="1582" type="curve" smooth="yes"/>
      <point x="76" y="1613" type="line"/>
      <point x="41" y="1613" type="line"/>
      <point x="41" y="1583" type="line" smooth="yes"/>
      <point x="41" y="1420.42"/>
      <point x="-58.458" y="1336"/>
    </contour>
  </outline>
</glyph>
<glyph name="dotreph.mlm" format="2">
  <unicode hex="0D4E"/>
  <outline>
    <contour>
      <point x="-889" y="1419" type="line" smooth="yes"/>
      <point x="-889" y="1382"/>
      <point x="-870" y="1364"/>
      <point x="-831" y="1364" type="curve" smooth="yes"/>
      <point x="-793" y="1364"/>
      <point x="-773" y="1382"/>
      <point x="-773" y="1419" type="curve" smooth="yes"/>
      <point x="-773" y="1426" type="line" smooth="yes"/>
      <point x="-773" y="1463"/>
      <point x="-793" y="1481"/>
      <point x="-831" y="1481" type="curve" smooth="yes"/>
      <point x="-870" y="1481"/>
      <point x="-889" y="1463"/>
      <point x="-889" y="1426" type="curve" smooth="yes"/>
    </contour>
  </outline>
</glyph>
<glyph name="chilluZh.mlm" format="2">
  <advance width="1390"/>
  <unicode hex="0D56"/>
  <outline>
    <contour>
      <point x="532" y="1131" type="curve" smooth="yes"/>
      <point x="532" y="883.329"/>
      <point x="453" y="606.461"/>
      <point x="417" y="390" type="curve"/>
      <point x="416" y="385"/>
      <point x="415" y="381"/>
      <point x="414" y="376" type="curve"/>
      <point x="404" y="321"/>
      <point x="398" y="271"/>
      <point x="398" y="225" type="curve" smooth="yes"/>
      <point x="398" y="54"/>
      <point x="486" y="-34"/>
      <point x="667" y="-34" type="curve" smooth="yes"/>
      <point x="853" y="-34"/>
      <point x="944" y="46"/>
      <point x="944" y="202" type="curve" smooth="yes"/>
      <point x="944" y="258"/>
      <point x="933" y="302"/>
      <point x="910" y="350" type="curve" smooth="yes"/>
      <point x="903" y="365" type="line"/>
      <point x="831" y="493.331"/>
      <point x="758" y="636.82"/>
      <point x="758" y="847" type="curve" smooth="yes"/>
      <point x="758" y="881" type="line" smooth="yes"/>
      <point x="758" y="1048.23"/>
      <point x="837" y="1140"/>
      <point x="987" y="1140" type="curve" smooth="yes"/>
      <point x="1141" y="1140"/>
      <point x="1220" y="1042.19"/>
      <point x="1220" y="870" type="curve" smooth="yes"/>
      <point x="1220" y="780" type="line" smooth="yes"/>
      <point x="1220" y="510.803"/>
      <point x="1051" y="359"/>
      <point x="716" y="359" type="curve" smooth="yes"/>
      <point x="354" y="359"/>
      <point x="177" y="503.702"/>
      <point x="177" y="784" type="curve" smooth="yes"/>
      <point x="177" y="833" type="line" smooth="yes"/>
      <point x="177" y="971.997"/>
      <point x="209" y="1077.02"/>
      <point x="265" y="1146" type="curve"/>
      <point x="224" y="1146" type="line"/>
      <point x="171" y="1077.01"/>
      <point x="140" y="973.01"/>
      <point x="140" y="834" type="curve" smooth="yes"/>
      <point x="140" y="784" type="line" smooth="yes"/>
      <point x="140" y="481.707"/>
      <point x="331" y="325"/>
      <point x="716" y="325" type="curve" smooth="yes"/>
      <point x="1077" y="325"/>
      <point x="1257" y="488.8"/>
      <point x="1257" y="780" type="curve" smooth="yes"/>
      <point x="1257" y="870" type="line" smooth="yes"/>
      <point x="1257" y="1064.19"/>
      <point x="1169" y="1174"/>
      <point x="987" y="1174" type="curve" smooth="yes"/>
      <point x="808" y="1174"/>
      <point x="721" y="1069.21"/>
      <point x="721" y="881" type="curve" smooth="yes"/>
      <point x="721" y="846" type="line" smooth="yes"/>
      <point x="721" y="628.779"/>
      <point x="797" y="484.302"/>
      <point x="868" y="357" type="curve"/>
      <point x="874" y="345" type="line" smooth="yes"/>
      <point x="897" y="299"/>
      <point x="907" y="255"/>
      <point x="907" y="202" type="curve" smooth="yes"/>
      <point x="907" y="69"/>
      <point x="830" y="0"/>
      <point x="667" y="0" type="curve" smooth="yes"/>
      <point x="510" y="0"/>
      <point x="435" y="77"/>
      <point x="435" y="225" type="curve" smooth="yes"/>
      <point x="435" y="267"/>
      <point x="440" y="314"/>
      <point x="448" y="366" type="curve"/>
      <point x="449" y="371"/>
      <point x="450" y="375"/>
      <point x="451" y="380" type="curve"/>
      <point x="488" y="595.436"/>
      <point x="569" y="876.309"/>
      <point x="569" y="1130" type="curve" smooth="yes"/>
      <point x="569" y="1272.84"/>
      <point x="537" y="1403.44"/>
      <point x="464" y="1532" type="curve"/>
      <point x="427" y="1532" type="line"/>
      <point x="506" y="1390.17"/>
      <point x="532" y="1269.77"/>
    </contour>
  </outline>
</glyph>
<glyph name="lengthAu.mlm" format="2">
  <advance width="1384"/>
  <unicode hex="0D57"/>
  <outline>
    <contour>
      <point x="697" y="19" type="curve" smooth="yes"/>
      <point x="609" y="19"/>
      <point x="503" y="36"/>
      <point x="417" y="67" type="curve"/>
      <point x="430" y="28" type="line"/>
      <point x="513" y="-1"/>
      <point x="612" y="-15"/>
      <point x="699" y="-15" type="curve" smooth="yes"/>
      <point x="1054" y="-15"/>
      <point x="1230" y="172.376"/>
      <point x="1230" y="540" type="curve" smooth="yes"/>
      <point x="1230" y="820" type="line" smooth="yes"/>
      <point x="1230" y="1053.62"/>
      <point x="1135" y="1173"/>
      <point x="938" y="1173" type="curve" smooth="yes"/>
      <point x="794" y="1173"/>
      <point x="710" y="1100.57"/>
      <point x="685" y="962" type="curve"/>
      <point x="683" y="962" type="line"/>
      <point x="659" y="1100.57"/>
      <point x="573" y="1173"/>
      <point x="423" y="1173" type="curve" smooth="yes"/>
      <point x="232" y="1173"/>
      <point x="140" y="1053.73"/>
      <point x="140" y="856" type="curve" smooth="yes"/>
      <point x="140" y="730" type="line" smooth="yes"/>
      <point x="140" y="610.868"/>
      <point x="162" y="519.147"/>
      <point x="195" y="458" type="curve"/>
      <point x="237" y="458" type="line"/>
      <point x="203" y="519.135"/>
      <point x="177" y="612.946"/>
      <point x="177" y="731" type="curve" smooth="yes"/>
      <point x="177" y="856" type="line" smooth="yes"/>
      <point x="177" y="1031.69"/>
      <point x="258" y="1139"/>
      <point x="424" y="1139" type="curve" smooth="yes"/>
      <point x="588" y="1139"/>
      <point x="666" y="1040.64"/>
      <point x="666" y="846" type="curve" smooth="yes"/>
      <point x="666" y="469" type="line"/>
      <point x="703" y="469" type="line"/>
      <point x="703" y="846" type="line" smooth="yes"/>
      <point x="703" y="1040.64"/>
      <point x="779" y="1139"/>
      <point x="937" y="1139" type="curve" smooth="yes"/>
      <point x="1110" y="1139"/>
      <point x="1193" y="1031.63"/>
      <point x="1193" y="820" type="curve" smooth="yes"/>
      <point x="1193" y="541" type="line" smooth="yes"/>
      <point x="1193" y="194.359"/>
      <point x="1027" y="19"/>
    </contour>
  </outline>
</glyph>
<glyph name="onetwentieth.mlm" format="2">
  <advance width="1655"/>
  <unicode hex="0D5B"/>
  <outline>
    <contour>
      <point x="221" y="0" type="line"/>
      <point x="221" y="1149" type="line"/>
      <point x="184" y="1149" type="line"/>
      <point x="184" y="0" type="line"/>
    </contour>
    <contour>
      <point x="847" y="1117" type="line"/>
      <point x="896" y="1149" type="line"/>
      <point x="202" y="1149" type="line"/>
      <point x="202" y="1117" type="line"/>
    </contour>
    <contour>
      <point x="1097" y="7" type="curve" smooth="yes"/>
      <point x="856" y="7"/>
      <point x="735" y="151.804"/>
      <point x="735" y="429" type="curve" smooth="yes"/>
      <point x="735" y="685" type="line" smooth="yes"/>
      <point x="735" y="894.353"/>
      <point x="794" y="1037.7"/>
      <point x="896" y="1143" type="curve"/>
      <point x="896" y="1149" type="line"/>
      <point x="857" y="1149" type="line"/>
      <point x="757" y="1043.73"/>
      <point x="698" y="900.415"/>
      <point x="698" y="686" type="curve" smooth="yes"/>
      <point x="698" y="429" type="line" smooth="yes"/>
      <point x="698" y="129.814"/>
      <point x="831" y="-27"/>
      <point x="1097" y="-27" type="curve" smooth="yes"/>
      <point x="1363" y="-27"/>
      <point x="1497" y="129.814"/>
      <point x="1497" y="429" type="curve" smooth="yes"/>
      <point x="1497" y="686" type="line" smooth="yes"/>
      <point x="1497" y="900.415"/>
      <point x="1442" y="1043.73"/>
      <point x="1343" y="1149" type="curve"/>
      <point x="1299" y="1149" type="line"/>
      <point x="1400" y="1044.75"/>
      <point x="1460" y="897.361"/>
      <point x="1460" y="685" type="curve" smooth="yes"/>
      <point x="1460" y="429" type="line" smooth="yes"/>
      <point x="1460" y="151.804"/>
      <point x="1338" y="7"/>
    </contour>
  </outline>
</glyph>
<glyph name="onetenth.mlm" format="2">
  <advance width="2764"/>
  <unicode hex="0D5C"/>
  <outline>
    <contour>
      <point x="1940" y="345" type="curve" smooth="yes"/>
      <point x="1940" y="103.436"/>
      <point x="2050" y="-23"/>
      <point x="2264" y="-23" type="curve" smooth="yes"/>
      <point x="2494" y="-23"/>
      <point x="2606" y="117.4"/>
      <point x="2606" y="390" type="curve" smooth="yes"/>
      <point x="2606" y="662" type="line" smooth="yes"/>
      <point x="2606" y="885.409"/>
      <point x="2544" y="1034.7"/>
      <point x="2431" y="1146" type="curve"/>
      <point x="2384" y="1146" type="line"/>
      <point x="2501" y="1033.68"/>
      <point x="2569" y="886.442"/>
      <point x="2569" y="661" type="curve" smooth="yes"/>
      <point x="2569" y="390" type="line" smooth="yes"/>
      <point x="2569" y="136.306"/>
      <point x="2469" y="11"/>
      <point x="2264" y="11" type="curve" smooth="yes"/>
      <point x="2073" y="11"/>
      <point x="1977" y="123.344"/>
      <point x="1977" y="347" type="curve" smooth="yes"/>
      <point x="1977" y="491.734"/>
      <point x="1991" y="664.266"/>
      <point x="1991" y="809" type="curve" smooth="yes"/>
      <point x="1991" y="1051.67"/>
      <point x="1884" y="1173"/>
      <point x="1673" y="1173" type="curve" smooth="yes"/>
      <point x="1463" y="1173"/>
      <point x="1356" y="1051.67"/>
      <point x="1356" y="809" type="curve" smooth="yes"/>
      <point x="1356" y="663.281"/>
      <point x="1370" y="491.678"/>
      <point x="1370" y="345" type="curve" smooth="yes"/>
      <point x="1370" y="123.364"/>
      <point x="1279" y="11"/>
      <point x="1093" y="11" type="curve" smooth="yes"/>
      <point x="907" y="11"/>
      <point x="814" y="123.364"/>
      <point x="814" y="345" type="curve" smooth="yes"/>
      <point x="814" y="490.693"/>
      <point x="828" y="662.266"/>
      <point x="828" y="807" type="curve" smooth="yes"/>
      <point x="828" y="1049.63"/>
      <point x="720" y="1173"/>
      <point x="507" y="1173" type="curve" smooth="yes"/>
      <point x="272" y="1173"/>
      <point x="158" y="1033.65"/>
      <point x="158" y="757" type="curve" smooth="yes"/>
      <point x="158" y="481" type="line" smooth="yes"/>
      <point x="158" y="259.605"/>
      <point x="216" y="111.314"/>
      <point x="323" y="0" type="curve"/>
      <point x="373" y="0" type="line"/>
      <point x="258" y="112.331"/>
      <point x="195" y="258.572"/>
      <point x="195" y="482" type="curve" smooth="yes"/>
      <point x="195" y="757" type="line" smooth="yes"/>
      <point x="195" y="1013.72"/>
      <point x="298" y="1139"/>
      <point x="507" y="1139" type="curve" smooth="yes"/>
      <point x="697" y="1139"/>
      <point x="791" y="1027.68"/>
      <point x="791" y="804" type="curve" smooth="yes"/>
      <point x="791" y="659.266"/>
      <point x="777" y="487.693"/>
      <point x="777" y="342" type="curve" smooth="yes"/>
      <point x="777" y="101.408"/>
      <point x="884" y="-23"/>
      <point x="1093" y="-23" type="curve" smooth="yes"/>
      <point x="1302" y="-23"/>
      <point x="1407" y="101.408"/>
      <point x="1407" y="342" type="curve" smooth="yes"/>
      <point x="1407" y="488.678"/>
      <point x="1393" y="660.281"/>
      <point x="1393" y="806" type="curve" smooth="yes"/>
      <point x="1393" y="1028.69"/>
      <point x="1486" y="1139"/>
      <point x="1673" y="1139" type="curve" smooth="yes"/>
      <point x="1861" y="1139"/>
      <point x="1954" y="1028.69"/>
      <point x="1954" y="806" type="curve" smooth="yes"/>
      <point x="1954" y="661.279"/>
      <point x="1940" y="489.721"/>
    </contour>
  </outline>
</glyph>
<glyph name="threetwentieths.mlm" format="2">
  <advance width="3610"/>
  <unicode hex="0D5D"/>
  <outline>
    <contour>
      <point x="467" y="422" type="line"/>
      <point x="504" y="422" type="line"/>
      <point x="504" y="1140" type="line"/>
      <point x="467" y="1140" type="line"/>
    </contour>
    <contour>
      <point x="199" y="-23" type="curve" smooth="yes"/>
      <point x="364" y="-23"/>
      <point x="460" y="61"/>
      <point x="485" y="216" type="curve"/>
      <point x="497" y="216" type="line"/>
      <point x="497" y="563" type="line"/>
      <point x="467" y="586" type="line"/>
      <point x="467" y="340" type="line" smooth="yes"/>
      <point x="467" y="121"/>
      <point x="379" y="11"/>
      <point x="199" y="11" type="curve" smooth="yes"/>
      <point x="137" y="11"/>
      <point x="82" y="20"/>
      <point x="33" y="39" type="curve"/>
      <point x="46" y="0" type="line"/>
      <point x="93" y="-15"/>
      <point x="142" y="-23"/>
    </contour>
    <contour>
      <point x="1359" y="1173" type="curve" smooth="yes"/>
      <point x="1145" y="1173"/>
      <point x="1037" y="1049.63"/>
      <point x="1037" y="807" type="curve" smooth="yes"/>
      <point x="1037" y="662.279"/>
      <point x="1051" y="490.721"/>
      <point x="1051" y="346" type="curve" smooth="yes"/>
      <point x="1051" y="123.354"/>
      <point x="961" y="11"/>
      <point x="782" y="11" type="curve" smooth="yes"/>
      <point x="597" y="11"/>
      <point x="504" y="121"/>
      <point x="504" y="340" type="curve" smooth="yes"/>
      <point x="504" y="545" type="line"/>
      <point x="479" y="485" type="line"/>
      <point x="487" y="216" type="line"/>
      <point x="514" y="60"/>
      <point x="613" y="-23"/>
      <point x="782" y="-23" type="curve" smooth="yes"/>
      <point x="985" y="-23"/>
      <point x="1088" y="101.399"/>
      <point x="1088" y="343" type="curve" smooth="yes"/>
      <point x="1088" y="487.721"/>
      <point x="1074" y="659.279"/>
      <point x="1074" y="804" type="curve" smooth="yes"/>
      <point x="1074" y="1027.68"/>
      <point x="1170" y="1139"/>
      <point x="1360" y="1139" type="curve" smooth="yes"/>
      <point x="1550" y="1139"/>
      <point x="1645" y="1027.68"/>
      <point x="1645" y="804" type="curve" smooth="yes"/>
      <point x="1645" y="659.279"/>
      <point x="1630" y="487.721"/>
      <point x="1630" y="343" type="curve" smooth="yes"/>
      <point x="1630" y="102.427"/>
      <point x="1736" y="-23"/>
      <point x="1942" y="-23" type="curve" smooth="yes"/>
      <point x="2148" y="-23"/>
      <point x="2254" y="102.427"/>
      <point x="2254" y="343" type="curve" smooth="yes"/>
      <point x="2254" y="488.706"/>
      <point x="2240" y="660.294"/>
      <point x="2240" y="806" type="curve" smooth="yes"/>
      <point x="2240" y="1028.69"/>
      <point x="2333" y="1139"/>
      <point x="2520" y="1139" type="curve" smooth="yes"/>
      <point x="2707" y="1139"/>
      <point x="2801" y="1028.69"/>
      <point x="2801" y="806" type="curve" smooth="yes"/>
      <point x="2801" y="661.279"/>
      <point x="2786" y="489.721"/>
      <point x="2786" y="345" type="curve" smooth="yes"/>
      <point x="2786" y="103.436"/>
      <point x="2897" y="-23"/>
      <point x="3111" y="-23" type="curve" smooth="yes"/>
      <point x="3341" y="-23"/>
      <point x="3452" y="117.4"/>
      <point x="3452" y="390" type="curve" smooth="yes"/>
      <point x="3452" y="662" type="line" smooth="yes"/>
      <point x="3452" y="885.409"/>
      <point x="3391" y="1034.7"/>
      <point x="3278" y="1146" type="curve"/>
      <point x="3231" y="1146" type="line"/>
      <point x="3348" y="1033.68"/>
      <point x="3415" y="886.442"/>
      <point x="3415" y="661" type="curve" smooth="yes"/>
      <point x="3415" y="390" type="line" smooth="yes"/>
      <point x="3415" y="136.306"/>
      <point x="3316" y="11"/>
      <point x="3111" y="11" type="curve" smooth="yes"/>
      <point x="2921" y="11"/>
      <point x="2823" y="123.344"/>
      <point x="2823" y="347" type="curve" smooth="yes"/>
      <point x="2823" y="491.734"/>
      <point x="2838" y="664.266"/>
      <point x="2838" y="809" type="curve" smooth="yes"/>
      <point x="2838" y="1051.67"/>
      <point x="2732" y="1173"/>
      <point x="2520" y="1173" type="curve" smooth="yes"/>
      <point x="2308" y="1173"/>
      <point x="2203" y="1051.67"/>
      <point x="2203" y="809" type="curve" smooth="yes"/>
      <point x="2203" y="663.294"/>
      <point x="2217" y="491.706"/>
      <point x="2217" y="346" type="curve" smooth="yes"/>
      <point x="2217" y="123.354"/>
      <point x="2125" y="11"/>
      <point x="1942" y="11" type="curve" smooth="yes"/>
      <point x="1760" y="11"/>
      <point x="1667" y="123.354"/>
      <point x="1667" y="346" type="curve" smooth="yes"/>
      <point x="1667" y="490.721"/>
      <point x="1682" y="662.279"/>
      <point x="1682" y="807" type="curve" smooth="yes"/>
      <point x="1682" y="1049.63"/>
      <point x="1573" y="1173"/>
    </contour>
  </outline>
</glyph>
<glyph name="onefifth.mlm" format="2">
  <advance width="2330"/>
  <unicode hex="0D5E"/>
  <outline>
    <contour>
      <point x="1803" y="1116" type="line"/>
      <point x="1847" y="1148" type="line"/>
      <point x="1355" y="1148" type="line"/>
      <point x="1398" y="1116" type="line"/>
    </contour>
    <contour>
      <point x="1983" y="688" type="curve" smooth="yes"/>
      <point x="1836" y="688"/>
      <point x="1761" y="765"/>
      <point x="1761" y="908" type="curve" smooth="yes"/>
      <point x="1761" y="923" type="line" smooth="yes"/>
      <point x="1761" y="1016"/>
      <point x="1791" y="1091"/>
      <point x="1847" y="1143" type="curve"/>
      <point x="1847" y="1148" type="line"/>
      <point x="1813" y="1148" type="line"/>
      <point x="1754" y="1097"/>
      <point x="1724" y="1020"/>
      <point x="1724" y="924" type="curve" smooth="yes"/>
      <point x="1724" y="908" type="line" smooth="yes"/>
      <point x="1724" y="743"/>
      <point x="1810" y="654"/>
      <point x="1983" y="654" type="curve" smooth="yes"/>
      <point x="2163" y="654"/>
      <point x="2244" y="743"/>
      <point x="2244" y="908" type="curve" smooth="yes"/>
      <point x="2244" y="925" type="line" smooth="yes"/>
      <point x="2244" y="1021"/>
      <point x="2217" y="1098"/>
      <point x="2170" y="1149" type="curve"/>
      <point x="2126" y="1149" type="line"/>
      <point x="2177" y="1096"/>
      <point x="2207" y="1020"/>
      <point x="2207" y="924" type="curve" smooth="yes"/>
      <point x="2207" y="908" type="line" smooth="yes"/>
      <point x="2207" y="765"/>
      <point x="2137" y="688"/>
    </contour>
    <contour>
      <point x="1441" y="910" type="line" smooth="yes"/>
      <point x="1441" y="778"/>
      <point x="1377" y="710"/>
      <point x="1245" y="710" type="curve" smooth="yes"/>
      <point x="1165" y="710" type="line"/>
      <point x="1168" y="678" type="line"/>
      <point x="1248" y="678" type="line" smooth="yes"/>
      <point x="1399" y="678"/>
      <point x="1478" y="757"/>
      <point x="1478" y="908" type="curve" smooth="yes"/>
      <point x="1478" y="926" type="line" smooth="yes"/>
      <point x="1478" y="1021"/>
      <point x="1448" y="1098"/>
      <point x="1389" y="1148" type="curve"/>
      <point x="1355" y="1148" type="line"/>
      <point x="1355" y="1143" type="line"/>
      <point x="1410" y="1092"/>
      <point x="1441" y="1017"/>
      <point x="1441" y="925" type="curve" smooth="yes"/>
    </contour>
    <contour>
      <point x="677" y="1141" type="curve" smooth="yes"/>
      <point x="996" y="1141"/>
      <point x="1150" y="956.402"/>
      <point x="1150" y="628" type="curve" smooth="yes"/>
      <point x="1150" y="330" type="line" smooth="yes"/>
      <point x="1150" y="114.603"/>
      <point x="1060" y="13"/>
      <point x="897" y="13" type="curve" smooth="yes"/>
      <point x="734" y="13"/>
      <point x="645" y="106.661"/>
      <point x="645" y="295" type="curve" smooth="yes"/>
      <point x="645" y="400" type="line" smooth="yes"/>
      <point x="645" y="580.242"/>
      <point x="732" y="678"/>
      <point x="915" y="678" type="curve" smooth="yes"/>
      <point x="1161" y="678" type="line"/>
      <point x="1171" y="710" type="line"/>
      <point x="913" y="710" type="line" smooth="yes"/>
      <point x="709" y="710"/>
      <point x="608" y="601.234"/>
      <point x="608" y="402" type="curve" smooth="yes"/>
      <point x="608" y="295" type="line" smooth="yes"/>
      <point x="608" y="86.7042"/>
      <point x="709" y="-21"/>
      <point x="897" y="-21" type="curve" smooth="yes"/>
      <point x="1085" y="-21"/>
      <point x="1187" y="91.604"/>
      <point x="1187" y="330" type="curve" smooth="yes"/>
      <point x="1187" y="627" type="line" smooth="yes"/>
      <point x="1187" y="982.487"/>
      <point x="1018" y="1175"/>
      <point x="677" y="1175" type="curve" smooth="yes"/>
      <point x="325" y="1175"/>
      <point x="156" y="988.599"/>
      <point x="156" y="627" type="curve" smooth="yes"/>
      <point x="156" y="439" type="line" smooth="yes"/>
      <point x="156" y="242.758"/>
      <point x="205" y="103.354"/>
      <point x="289" y="0" type="curve"/>
      <point x="335" y="0" type="line"/>
      <point x="246" y="103.349"/>
      <point x="193" y="243.767"/>
      <point x="193" y="440" type="curve" smooth="yes"/>
      <point x="193" y="627" type="line" smooth="yes"/>
      <point x="193" y="967.627"/>
      <point x="350" y="1141"/>
    </contour>
  </outline>
</glyph>
<glyph name="archaicIi.mlm" format="2">
  <advance width="2798"/>
  <unicode hex="0D5F"/>
  <outline>
    <component base="Ra.mlm" xOffset="710"/>
    <contour>
      <point x="589" y="570" type="curve" smooth="yes"/>
      <point x="589" y="512" type="line" smooth="yes"/>
      <point x="589" y="356.034"/>
      <point x="514" y="274"/>
      <point x="369" y="274" type="curve" smooth="yes"/>
      <point x="225" y="274"/>
      <point x="149" y="356.034"/>
      <point x="149" y="512" type="curve" smooth="yes"/>
      <point x="149" y="570" type="line" smooth="yes"/>
      <point x="149" y="725.974"/>
      <point x="225" y="807"/>
      <point x="369" y="807" type="curve" smooth="yes"/>
      <point x="514" y="807"/>
      <point x="589" y="725.974"/>
    </contour>
    <contour>
      <point x="369" y="841" type="curve" smooth="yes"/>
      <point x="199" y="841"/>
      <point x="112" y="747.97"/>
      <point x="112" y="570" type="curve" smooth="yes"/>
      <point x="112" y="512" type="line" smooth="yes"/>
      <point x="112" y="334.037"/>
      <point x="199" y="240"/>
      <point x="369" y="240" type="curve" smooth="yes"/>
      <point x="540" y="240"/>
      <point x="626" y="334.037"/>
      <point x="626" y="512" type="curve" smooth="yes"/>
      <point x="626" y="570" type="line" smooth="yes"/>
      <point x="626" y="747.97"/>
      <point x="540" y="841"/>
    </contour>
    <contour>
      <point x="2650" y="570" type="curve" smooth="yes"/>
      <point x="2650" y="512" type="line" smooth="yes"/>
      <point x="2650" y="356.034"/>
      <point x="2573" y="274"/>
      <point x="2429" y="274" type="curve" smooth="yes"/>
      <point x="2285" y="274"/>
      <point x="2209" y="356.034"/>
      <point x="2209" y="512" type="curve" smooth="yes"/>
      <point x="2209" y="570" type="line" smooth="yes"/>
      <point x="2209" y="725.974"/>
      <point x="2285" y="807"/>
      <point x="2429" y="807" type="curve" smooth="yes"/>
      <point x="2573" y="807"/>
      <point x="2650" y="725.974"/>
    </contour>
    <contour>
      <point x="2172" y="570" type="curve" smooth="yes"/>
      <point x="2172" y="512" type="line" smooth="yes"/>
      <point x="2172" y="334.037"/>
      <point x="2259" y="240"/>
      <point x="2429" y="240" type="curve" smooth="yes"/>
      <point x="2599" y="240"/>
      <point x="2686" y="334.037"/>
      <point x="2686" y="512" type="curve" smooth="yes"/>
      <point x="2686" y="570" type="line" smooth="yes"/>
      <point x="2686" y="747.97"/>
      <point x="2599" y="841"/>
      <point x="2429" y="841" type="curve" smooth="yes"/>
      <point x="2259" y="841"/>
      <point x="2172" y="747.97"/>
    </contour>
  </outline>
</glyph>
<glyph name="uni0D62" format="2">
  <unicode hex="0D62"/>
  <outline>
    <contour>
      <point x="-805.067" y="-497" type="line"/>
      <point x="-771.067" y="-497" type="line"/>
      <point x="-771.067" y="-182" type="line"/>
      <point x="-805.067" y="-182" type="line"/>
    </contour>
    <contour>
      <point x="-1097.07" y="32" type="curve" smooth="yes"/>
      <point x="-1322.4" y="32"/>
      <point x="-1435" y="-71.0699"/>
      <point x="-1435" y="-267" type="curve" smooth="yes"/>
      <point x="-1435" y="-302" type="line" smooth="yes"/>
      <point x="-1435" y="-437"/>
      <point x="-1365" y="-512"/>
      <point x="-1225" y="-512" type="curve" smooth="yes"/>
      <point x="-1096" y="-512"/>
      <point x="-1027" y="-452"/>
      <point x="-1027" y="-345" type="curve" smooth="yes"/>
      <point x="-1027" y="-331" type="line" smooth="yes"/>
      <point x="-1027" y="-222"/>
      <point x="-1096" y="-163"/>
      <point x="-1216" y="-163" type="curve" smooth="yes"/>
      <point x="-1311" y="-163"/>
      <point x="-1383" y="-205"/>
      <point x="-1414" y="-273" type="curve"/>
      <point x="-1403" y="-290" type="line"/>
      <point x="-1372" y="-230"/>
      <point x="-1308" y="-195"/>
      <point x="-1219" y="-195" type="curve" smooth="yes"/>
      <point x="-1116" y="-195"/>
      <point x="-1061" y="-244"/>
      <point x="-1061" y="-331" type="curve" smooth="yes"/>
      <point x="-1061" y="-346" type="line" smooth="yes"/>
      <point x="-1061" y="-433"/>
      <point x="-1119" y="-480"/>
      <point x="-1225" y="-480" type="curve" smooth="yes"/>
      <point x="-1343" y="-480"/>
      <point x="-1401" y="-421"/>
      <point x="-1401" y="-303" type="curve" smooth="yes"/>
      <point x="-1401" y="-279" type="line"/>
      <point x="-1394" y="-250" type="line"/>
      <point x="-1400.9" y="-250.089" type="line"/>
      <point x="-1395.3" y="-83.0372"/>
      <point x="-1293.82" y="0"/>
      <point x="-1097.07" y="0" type="curve" smooth="yes"/>
      <point x="-896.067" y="0"/>
      <point x="-805.067" y="-82"/>
      <point x="-805.067" y="-226" type="curve" smooth="yes"/>
      <point x="-805.067" y="-273" type="line"/>
      <point x="-782.067" y="-240" type="line"/>
      <point x="-788.467" y="-150.886" type="line"/>
      <point x="-809.898" y="-29.5571"/>
      <point x="-913.762" y="32"/>
    </contour>
    <contour>
      <point x="-478.915" y="32" type="curve" smooth="yes"/>
      <point x="-661.033" y="32"/>
      <point x="-764.256" y="-29.5571"/>
      <point x="-785.516" y="-150.886" type="curve"/>
      <point x="-799.626" y="-151.151" type="line"/>
      <point x="-793.915" y="-240" type="line"/>
      <point x="-770.915" y="-273" type="line"/>
      <point x="-770.915" y="-226" type="line" smooth="yes"/>
      <point x="-770.915" y="-82"/>
      <point x="-679.915" y="0"/>
      <point x="-478.915" y="0" type="curve" smooth="yes"/>
      <point x="-282.34" y="0"/>
      <point x="-179.864" y="-82.8868"/>
      <point x="-175.09" y="-249.635" type="curve"/>
      <point x="-183.77" y="-249.591" type="line"/>
      <point x="-174.981" y="-279" type="line"/>
      <point x="-174.981" y="-303" type="line" smooth="yes"/>
      <point x="-174.981" y="-421"/>
      <point x="-232.981" y="-480"/>
      <point x="-350.981" y="-480" type="curve" smooth="yes"/>
      <point x="-456.981" y="-480"/>
      <point x="-514.981" y="-433"/>
      <point x="-514.981" y="-346" type="curve" smooth="yes"/>
      <point x="-514.981" y="-331" type="line" smooth="yes"/>
      <point x="-514.981" y="-244"/>
      <point x="-459.981" y="-195"/>
      <point x="-356.981" y="-195" type="curve" smooth="yes"/>
      <point x="-267.981" y="-195"/>
      <point x="-203.981" y="-230"/>
      <point x="-172.981" y="-290" type="curve"/>
      <point x="-161.981" y="-273" type="line"/>
      <point x="-192.981" y="-205"/>
      <point x="-264.981" y="-163"/>
      <point x="-359.981" y="-163" type="curve" smooth="yes"/>
      <point x="-479.981" y="-163"/>
      <point x="-548.981" y="-222"/>
      <point x="-548.981" y="-331" type="curve" smooth="yes"/>
      <point x="-548.981" y="-345" type="line" smooth="yes"/>
      <point x="-548.981" y="-452"/>
      <point x="-479.981" y="-512"/>
      <point x="-350.981" y="-512" type="curve" smooth="yes"/>
      <point x="-210.981" y="-512"/>
      <point x="-140.981" y="-437"/>
      <point x="-140.981" y="-302" type="curve" smooth="yes"/>
      <point x="-140.981" y="-267" type="line" smooth="yes"/>
      <point x="-140.981" y="-70.0699"/>
      <point x="-253.582" y="32"/>
    </contour>
  </outline>
</glyph>
<glyph name="zero.mlm" format="2">
  <advance width="1094"/>
  <unicode hex="0D66"/>
  <outline>
    <contour>
      <point x="547" y="56" type="curve" smooth="yes"/>
      <point x="310" y="56"/>
      <point x="186" y="195.452"/>
      <point x="186" y="460" type="curve" smooth="yes"/>
      <point x="186" y="695" type="line" smooth="yes"/>
      <point x="186" y="960.557"/>
      <point x="309" y="1100"/>
      <point x="547" y="1100" type="curve" smooth="yes"/>
      <point x="785" y="1100"/>
      <point x="908" y="960.557"/>
      <point x="908" y="695" type="curve" smooth="yes"/>
      <point x="908" y="460" type="line" smooth="yes"/>
      <point x="908" y="195.452"/>
      <point x="785" y="56"/>
    </contour>
    <contour>
      <point x="547" y="22" type="curve" smooth="yes"/>
      <point x="810" y="22"/>
      <point x="945" y="173.458"/>
      <point x="945" y="460" type="curve" smooth="yes"/>
      <point x="945" y="695" type="line" smooth="yes"/>
      <point x="945" y="983.573"/>
      <point x="810" y="1134"/>
      <point x="547" y="1134" type="curve" smooth="yes"/>
      <point x="284" y="1134"/>
      <point x="149" y="983.573"/>
      <point x="149" y="695" type="curve" smooth="yes"/>
      <point x="149" y="460" type="line" smooth="yes"/>
      <point x="149" y="173.458"/>
      <point x="285" y="22"/>
    </contour>
  </outline>
</glyph>
<glyph name="one.mlm" format="2">
  <advance width="1389"/>
  <unicode hex="0D67"/>
  <outline>
    <contour>
      <point x="538" y="32" type="line"/>
      <point x="529" y="0" type="line"/>
      <point x="1205" y="0" type="line" name="n00"/>
      <point x="1205" y="786" type="line" smooth="yes"/>
      <point x="1205" y="1047.76"/>
      <point x="1091" y="1173"/>
      <point x="859" y="1173" type="curve" smooth="yes"/>
      <point x="627" y="1173"/>
      <point x="514" y="1047.76"/>
      <point x="514" y="786" type="curve" smooth="yes"/>
      <point x="514" y="0" type="line"/>
      <point x="551" y="0" type="line"/>
      <point x="551" y="786" type="line" smooth="yes"/>
      <point x="551" y="1024.76"/>
      <point x="652" y="1139"/>
      <point x="859" y="1139" type="curve" smooth="yes"/>
      <point x="1066" y="1139"/>
      <point x="1168" y="1024.76"/>
      <point x="1168" y="786" type="curve" smooth="yes"/>
      <point x="1168" y="32" type="line"/>
    </contour>
    <contour>
      <point x="531" y="32" type="line"/>
      <point x="223" y="32" type="line" smooth="yes"/>
      <point x="80" y="32"/>
      <point x="5" y="-36"/>
      <point x="5" y="-162" type="curve" smooth="yes"/>
      <point x="5" y="-290"/>
      <point x="80" y="-357"/>
      <point x="223" y="-357" type="curve" smooth="yes"/>
      <point x="514" y="-357" type="line"/>
      <point x="524" y="-325" type="line"/>
      <point x="223" y="-325" type="line" smooth="yes"/>
      <point x="104" y="-325"/>
      <point x="43" y="-270"/>
      <point x="43" y="-162" type="curve" smooth="yes"/>
      <point x="43" y="-57"/>
      <point x="104" y="0"/>
      <point x="223" y="0" type="curve" smooth="yes"/>
      <point x="541" y="0" type="line"/>
    </contour>
  </outline>
</glyph>
<glyph name="five.mlm" format="2">
  <advance width="1937"/>
  <unicode hex="0D6B"/>
  <outline>
    <contour>
      <point x="1747" y="641" type="curve" smooth="yes"/>
      <point x="1747" y="489" type="line" smooth="yes"/>
      <point x="1747" y="272.8"/>
      <point x="1703" y="114.37"/>
      <point x="1622" y="-2" type="curve"/>
      <point x="1666" y="-2" type="line"/>
      <point x="1742" y="110.292"/>
      <point x="1784" y="271.792"/>
      <point x="1784" y="488" type="curve" smooth="yes"/>
      <point x="1784" y="642" type="line" smooth="yes"/>
      <point x="1784" y="1160.69"/>
      <point x="1518" y="1417"/>
      <point x="975" y="1417" type="curve" smooth="yes"/>
      <point x="427" y="1417"/>
      <point x="157" y="1146.67"/>
      <point x="157" y="605" type="curve" smooth="yes"/>
      <point x="157" y="413" type="line" smooth="yes"/>
      <point x="157" y="-35.5676"/>
      <point x="371" y="-270"/>
      <point x="815" y="-270" type="curve" smooth="yes"/>
      <point x="1171" y="-270"/>
      <point x="1349" y="-118.355"/>
      <point x="1349" y="191" type="curve" smooth="yes"/>
      <point x="1349" y="202" type="line" smooth="yes"/>
      <point x="1349" y="376.759"/>
      <point x="1276" y="477.776"/>
      <point x="1125" y="500" type="curve"/>
      <point x="1125" y="503" type="line"/>
      <point x="1255" y="523.321"/>
      <point x="1318" y="608.671"/>
      <point x="1318" y="756" type="curve" smooth="yes"/>
      <point x="1318" y="767" type="line" smooth="yes"/>
      <point x="1318" y="972.961"/>
      <point x="1201" y="1079"/>
      <point x="969" y="1079" type="curve" smooth="yes"/>
      <point x="712" y="1079"/>
      <point x="584" y="937.329"/>
      <point x="584" y="655" type="curve" smooth="yes"/>
      <point x="584" y="423" type="line" smooth="yes"/>
      <point x="584" y="249.866"/>
      <point x="622" y="123.195"/>
      <point x="684" y="29" type="curve"/>
      <point x="727" y="29" type="line"/>
      <point x="662" y="124.205"/>
      <point x="621" y="250.872"/>
      <point x="621" y="424" type="curve" smooth="yes"/>
      <point x="621" y="655" type="line" smooth="yes"/>
      <point x="621" y="914.325"/>
      <point x="735" y="1045"/>
      <point x="969" y="1045" type="curve" smooth="yes"/>
      <point x="1178" y="1045"/>
      <point x="1281" y="948.926"/>
      <point x="1281" y="767" type="curve" smooth="yes"/>
      <point x="1281" y="756" type="line" smooth="yes"/>
      <point x="1281" y="595.299"/>
      <point x="1201.01" y="520.756"/>
      <point x="1037" y="518" type="curve" smooth="yes"/>
      <point x="918" y="516" type="line"/>
      <point x="918" y="484" type="line"/>
      <point x="1037" y="483" type="line" smooth="yes"/>
      <point x="1224" y="481.429"/>
      <point x="1312" y="388.993"/>
      <point x="1312" y="203" type="curve" smooth="yes"/>
      <point x="1312" y="192" type="line" smooth="yes"/>
      <point x="1312" y="-96.3688"/>
      <point x="1149" y="-236"/>
      <point x="815" y="-236" type="curve" smooth="yes"/>
      <point x="394" y="-236"/>
      <point x="194" y="-12.5625"/>
      <point x="194" y="414" type="curve" smooth="yes"/>
      <point x="194" y="604" type="line" smooth="yes"/>
      <point x="194" y="1122.66"/>
      <point x="449" y="1383"/>
      <point x="975" y="1383" type="curve" smooth="yes"/>
      <point x="1496" y="1383"/>
      <point x="1747" y="1136.68"/>
    </contour>
  </outline>
</glyph>
<glyph name="six.mlm" format="2">
  <advance width="2296"/>
  <unicode hex="0D6C"/>
  <outline>
    <contour>
      <point x="1771" y="1139" type="curve" smooth="yes"/>
      <point x="1995" y="1139"/>
      <point x="2101" y="994"/>
      <point x="2101" y="708" type="curve" smooth="yes"/>
      <point x="2101" y="337" type="line" smooth="yes"/>
      <point x="2101" y="-62.5609"/>
      <point x="1930" y="-272"/>
      <point x="1597" y="-272" type="curve" smooth="yes"/>
      <point x="1493" y="-272"/>
      <point x="1402" y="-259"/>
      <point x="1327" y="-232" type="curve"/>
      <point x="1339" y="-271" type="line"/>
      <point x="1414" y="-296"/>
      <point x="1498" y="-306"/>
      <point x="1597" y="-306" type="curve" smooth="yes"/>
      <point x="1956" y="-306"/>
      <point x="2138" y="-83.5403"/>
      <point x="2138" y="337" type="curve" smooth="yes"/>
      <point x="2138" y="708" type="line" smooth="yes"/>
      <point x="2138" y="1017"/>
      <point x="2022" y="1173"/>
      <point x="1772" y="1173" type="curve" smooth="yes"/>
      <point x="1592" y="1173"/>
      <point x="1486" y="1082"/>
      <point x="1457" y="913" type="curve"/>
      <point x="1446" y="913" type="line"/>
      <point x="1446" y="588" type="line"/>
      <point x="1474" y="565" type="line"/>
      <point x="1474" y="788" type="line" smooth="yes"/>
      <point x="1474" y="1021"/>
      <point x="1571" y="1139"/>
    </contour>
    <contour>
      <point x="158" y="742" type="curve" smooth="yes"/>
      <point x="158" y="475" type="line" smooth="yes"/>
      <point x="158" y="256.493"/>
      <point x="215" y="110.323"/>
      <point x="314" y="0" type="curve"/>
      <point x="363" y="0" type="line"/>
      <point x="258" y="109.296"/>
      <point x="195" y="258.51"/>
      <point x="195" y="476" type="curve" smooth="yes"/>
      <point x="195" y="742" type="line" smooth="yes"/>
      <point x="195" y="1004.61"/>
      <point x="301" y="1139"/>
      <point x="518" y="1139" type="curve" smooth="yes"/>
      <point x="719" y="1139"/>
      <point x="817" y="1021"/>
      <point x="817" y="788" type="curve" smooth="yes"/>
      <point x="817" y="555" type="line"/>
      <point x="835" y="555" type="line"/>
      <point x="835" y="913" type="line"/>
      <point x="806" y="1082"/>
      <point x="698" y="1173"/>
      <point x="517" y="1173" type="curve" smooth="yes"/>
      <point x="275" y="1173"/>
      <point x="158" y="1027.63"/>
    </contour>
    <contour>
      <point x="817" y="707" type="line"/>
      <point x="817" y="5" type="line"/>
      <point x="854" y="5" type="line"/>
      <point x="854" y="707" type="line"/>
    </contour>
    <contour>
      <point x="1146" y="1139" type="curve" smooth="yes"/>
      <point x="1343" y="1139"/>
      <point x="1437" y="1021"/>
      <point x="1437" y="788" type="curve" smooth="yes"/>
      <point x="1437" y="565" type="line"/>
      <point x="1457" y="565" type="line"/>
      <point x="1455" y="913" type="line"/>
      <point x="1430" y="1083"/>
      <point x="1324" y="1173"/>
      <point x="1146" y="1173" type="curve" smooth="yes"/>
      <point x="968" y="1173"/>
      <point x="863" y="1083"/>
      <point x="837" y="913" type="curve"/>
      <point x="829" y="913" type="line"/>
      <point x="828" y="565" type="line"/>
      <point x="854" y="565" type="line"/>
      <point x="854" y="788" type="line" smooth="yes"/>
      <point x="854" y="1021"/>
      <point x="949" y="1139"/>
    </contour>
    <contour>
      <point x="1437" y="705" type="line"/>
      <point x="1437" y="5" type="line"/>
      <point x="1474" y="5" type="line"/>
      <point x="1474" y="705" type="line"/>
    </contour>
  </outline>
</glyph>
<glyph name="nine.mlm" format="2">
  <advance width="1964"/>
  <unicode hex="0D6F"/>
  <outline>
    <contour>
      <point x="833" y="700" type="line"/>
      <point x="833" y="5" type="line"/>
      <point x="870" y="5" type="line"/>
      <point x="870" y="700" type="line"/>
    </contour>
    <contour>
      <point x="526" y="1139" type="curve" smooth="yes"/>
      <point x="731" y="1139"/>
      <point x="833" y="1021"/>
      <point x="833" y="788" type="curve" smooth="yes"/>
      <point x="833" y="559" type="line"/>
      <point x="852" y="559" type="line"/>
      <point x="855" y="889" type="line"/>
      <point x="828" y="1082"/>
      <point x="712" y="1173"/>
      <point x="525" y="1173" type="curve" smooth="yes"/>
      <point x="278" y="1173"/>
      <point x="158" y="1027.63"/>
      <point x="158" y="742" type="curve" smooth="yes"/>
      <point x="158" y="475" type="line" smooth="yes"/>
      <point x="158" y="255.591"/>
      <point x="215" y="110.323"/>
      <point x="314" y="0" type="curve"/>
      <point x="362" y="0" type="line"/>
      <point x="257" y="109.296"/>
      <point x="195" y="257.622"/>
      <point x="195" y="476" type="curve" smooth="yes"/>
      <point x="195" y="742" type="line" smooth="yes"/>
      <point x="195" y="1004.61"/>
      <point x="304" y="1139"/>
    </contour>
    <contour>
      <point x="1293" y="1139" type="curve" smooth="yes"/>
      <point x="1424" y="1139"/>
      <point x="1527" y="1106.3"/>
      <point x="1605" y="1045" type="curve"/>
      <point x="1618" y="1034" type="line" smooth="yes"/>
      <point x="1721.76" y="946.205"/>
      <point x="1772" y="801.626"/>
      <point x="1772" y="609" type="curve" smooth="yes"/>
      <point x="1772" y="345" type="line" smooth="yes"/>
      <point x="1772" y="126.391"/>
      <point x="1694" y="13"/>
      <point x="1522" y="13" type="curve" smooth="yes"/>
      <point x="1362" y="13"/>
      <point x="1276" y="121.409"/>
      <point x="1276" y="328" type="curve" smooth="yes"/>
      <point x="1276" y="466" type="line" smooth="yes"/>
      <point x="1276" y="755.526"/>
      <point x="1412.68" y="893.736"/>
      <point x="1631" y="1035" type="curve" smooth="yes"/>
      <point x="1648" y="1046" type="line" smooth="yes"/>
      <point x="1737.95" y="1104.2"/>
      <point x="1794" y="1183.86"/>
      <point x="1794" y="1296" type="curve" smooth="yes"/>
      <point x="1794" y="1384.04"/>
      <point x="1772" y="1458.61"/>
      <point x="1723" y="1528" type="curve"/>
      <point x="1684" y="1528" type="line"/>
      <point x="1738" y="1450.32"/>
      <point x="1758" y="1379.89"/>
      <point x="1758" y="1296" type="curve" smooth="yes"/>
      <point x="1758" y="1193.89"/>
      <point x="1706" y="1119.63"/>
      <point x="1619" y="1066" type="curve"/>
      <point x="1605" y="1058" type="line"/>
      <point x="1388" y="915.274"/>
      <point x="1239" y="782.6"/>
      <point x="1239" y="468" type="curve" smooth="yes"/>
      <point x="1239" y="328" type="line" smooth="yes"/>
      <point x="1239" y="98.3947"/>
      <point x="1338" y="-21"/>
      <point x="1522" y="-21" type="curve" smooth="yes"/>
      <point x="1718" y="-21"/>
      <point x="1809" y="104.398"/>
      <point x="1809" y="345" type="curve" smooth="yes"/>
      <point x="1809" y="609" type="line" smooth="yes"/>
      <point x="1809" y="807.57"/>
      <point x="1754.89" y="957.183"/>
      <point x="1650" y="1054" type="curve" smooth="yes"/>
      <point x="1637" y="1066" type="line"/>
      <point x="1553" y="1135.3"/>
      <point x="1440" y="1173"/>
      <point x="1293" y="1173" type="curve" smooth="yes"/>
      <point x="1060" y="1173"/>
      <point x="900" y="1080"/>
      <point x="857" y="889" type="curve"/>
      <point x="844" y="889" type="line"/>
      <point x="845" y="611" type="line"/>
      <point x="870" y="611" type="line"/>
      <point x="870" y="760" type="line" smooth="yes"/>
      <point x="870" y="1006"/>
      <point x="1014" y="1139"/>
    </contour>
  </outline>
</glyph>
<glyph name="onesixteenth.mlm" format="2">
  <advance width="2301"/>
  <unicode hex="0D76"/>
  <outline>
    <contour>
      <point x="692" y="32" type="line"/>
      <point x="674" y="0" type="line"/>
      <point x="1218" y="0" type="line"/>
      <point x="1218" y="32" type="line"/>
    </contour>
    <contour>
      <point x="471" y="756" type="curve" smooth="yes"/>
      <point x="252" y="756"/>
      <point x="144" y="632.522"/>
      <point x="144" y="401" type="curve" smooth="yes"/>
      <point x="144" y="308" type="line" smooth="yes"/>
      <point x="144" y="170.855"/>
      <point x="178" y="70.1386"/>
      <point x="242" y="0" type="curve"/>
      <point x="288" y="0" type="line"/>
      <point x="220" y="72.1716"/>
      <point x="181" y="171.871"/>
      <point x="181" y="308" type="curve" smooth="yes"/>
      <point x="181" y="401" type="line" smooth="yes"/>
      <point x="181" y="612.592"/>
      <point x="279" y="722"/>
      <point x="471" y="722" type="curve" smooth="yes"/>
      <point x="664" y="722"/>
      <point x="762" y="612.592"/>
      <point x="762" y="401" type="curve" smooth="yes"/>
      <point x="762" y="308" type="line" smooth="yes"/>
      <point x="762" y="174.879"/>
      <point x="722" y="76.1616"/>
      <point x="651" y="6" type="curve"/>
      <point x="651" y="0" type="line"/>
      <point x="686" y="0" type="line"/>
      <point x="761" y="70.1386"/>
      <point x="799" y="170.855"/>
      <point x="799" y="308" type="curve" smooth="yes"/>
      <point x="799" y="401" type="line" smooth="yes"/>
      <point x="799" y="632.522"/>
      <point x="691" y="756"/>
    </contour>
    <contour>
      <point x="1172" y="32" type="line"/>
      <point x="1170" y="0" type="line"/>
      <point x="2108" y="0" type="line"/>
      <point x="2108" y="32" type="line"/>
    </contour>
    <contour>
      <point x="1635" y="1141" type="curve" smooth="yes"/>
      <point x="1933" y="1141"/>
      <point x="2080" y="978.653"/>
      <point x="2080" y="656" type="curve" smooth="yes"/>
      <point x="2080" y="0" type="line"/>
      <point x="2117" y="0" type="line"/>
      <point x="2117" y="656" type="line" smooth="yes"/>
      <point x="2117" y="999.621"/>
      <point x="1957" y="1175"/>
      <point x="1635" y="1175" type="curve" smooth="yes"/>
      <point x="1313" y="1175"/>
      <point x="1153" y="999.621"/>
      <point x="1153" y="656" type="curve" smooth="yes"/>
      <point x="1153" y="0" type="line"/>
      <point x="1190" y="0" type="line"/>
      <point x="1190" y="656" type="line" smooth="yes"/>
      <point x="1190" y="978.653"/>
      <point x="1336" y="1141"/>
    </contour>
    <contour>
      <point x="1722.04" y="698" type="line" smooth="yes"/>
      <point x="1722.04" y="938.912"/>
      <point x="1616.59" y="1065"/>
      <point x="1419.04" y="1065" type="curve" smooth="yes"/>
      <point x="1376.4" y="1065"/>
      <point x="1329.7" y="1056.75"/>
      <point x="1285.04" y="1037" type="curve"/>
      <point x="1278.04" y="1009" type="line"/>
      <point x="1324.99" y="1028.57"/>
      <point x="1370.02" y="1034"/>
      <point x="1414.04" y="1034" type="curve" smooth="yes"/>
      <point x="1590.69" y="1034"/>
      <point x="1685.04" y="920.785"/>
      <point x="1685.04" y="697" type="curve" smooth="yes"/>
      <point x="1685.04" y="674" type="line" smooth="yes" name="n15"/>
      <point x="1685.04" y="378.636"/>
      <point x="1546.66" y="169.04"/>
      <point x="1319.04" y="29" type="curve"/>
      <point x="1357.04" y="16" type="line"/>
      <point x="1581.65" y="149.852"/>
      <point x="1722.04" y="374.689"/>
      <point x="1722.04" y="673" type="curve" smooth="yes"/>
    </contour>
  </outline>
</glyph>
<glyph name="threesixteenths.mlm" format="2">
  <advance width="3971"/>
  <unicode hex="0D78"/>
  <outline>
    <contour>
      <point x="467" y="422" type="line"/>
      <point x="504" y="422" type="line"/>
      <point x="504" y="1140" type="line"/>
      <point x="467" y="1140" type="line"/>
    </contour>
    <contour>
      <point x="199" y="-23" type="curve" smooth="yes"/>
      <point x="364" y="-23"/>
      <point x="460" y="61"/>
      <point x="485" y="216" type="curve"/>
      <point x="497" y="216" type="line"/>
      <point x="497" y="563" type="line"/>
      <point x="467" y="586" type="line"/>
      <point x="467" y="340" type="line" smooth="yes"/>
      <point x="467" y="121"/>
      <point x="379" y="11"/>
      <point x="199" y="11" type="curve" smooth="yes"/>
      <point x="137" y="11"/>
      <point x="82" y="20"/>
      <point x="33" y="39" type="curve"/>
      <point x="46" y="0" type="line"/>
      <point x="93" y="-15"/>
      <point x="142" y="-23"/>
    </contour>
    <contour>
      <point x="2532" y="1173" type="curve" smooth="yes"/>
      <point x="2317" y="1173"/>
      <point x="2211" y="1051.67"/>
      <point x="2211" y="809" type="curve" smooth="yes"/>
      <point x="2211" y="663.294"/>
      <point x="2225" y="491.706"/>
      <point x="2225" y="346" type="curve" smooth="yes"/>
      <point x="2225" y="123.354"/>
      <point x="2132" y="11"/>
      <point x="1946" y="11" type="curve" smooth="yes"/>
      <point x="1761" y="11"/>
      <point x="1667" y="123.354"/>
      <point x="1667" y="346" type="curve" smooth="yes"/>
      <point x="1667" y="490.721"/>
      <point x="1682" y="662.279"/>
      <point x="1682" y="807" type="curve" smooth="yes"/>
      <point x="1682" y="1049.63"/>
      <point x="1573" y="1173"/>
      <point x="1359" y="1173" type="curve" smooth="yes"/>
      <point x="1145" y="1173"/>
      <point x="1037" y="1049.63"/>
      <point x="1037" y="807" type="curve" smooth="yes"/>
      <point x="1037" y="662.279"/>
      <point x="1051" y="490.721"/>
      <point x="1051" y="346" type="curve" smooth="yes"/>
      <point x="1051" y="123.354"/>
      <point x="961" y="11"/>
      <point x="782" y="11" type="curve" smooth="yes"/>
      <point x="597" y="11"/>
      <point x="504" y="121"/>
      <point x="504" y="340" type="curve" smooth="yes"/>
      <point x="504" y="545" type="line"/>
      <point x="479" y="485" type="line"/>
      <point x="487" y="216" type="line"/>
      <point x="514" y="60"/>
      <point x="613" y="-23"/>
      <point x="782" y="-23" type="curve" smooth="yes"/>
      <point x="985" y="-23"/>
      <point x="1088" y="101.399"/>
      <point x="1088" y="343" type="curve" smooth="yes"/>
      <point x="1088" y="487.721"/>
      <point x="1074" y="659.279"/>
      <point x="1074" y="804" type="curve" smooth="yes"/>
      <point x="1074" y="1027.68"/>
      <point x="1170" y="1139"/>
      <point x="1360" y="1139" type="curve" smooth="yes"/>
      <point x="1550" y="1139"/>
      <point x="1645" y="1027.68"/>
      <point x="1645" y="804" type="curve" smooth="yes"/>
      <point x="1645" y="659.279"/>
      <point x="1630" y="487.721"/>
      <point x="1630" y="343" type="curve" smooth="yes"/>
      <point x="1630" y="102.427"/>
      <point x="1737" y="-23"/>
      <point x="1946" y="-23" type="curve" smooth="yes"/>
      <point x="2155" y="-23"/>
      <point x="2262" y="102.427"/>
      <point x="2262" y="343" type="curve" smooth="yes"/>
      <point x="2262" y="488.706"/>
      <point x="2248" y="660.294"/>
      <point x="2248" y="806" type="curve" smooth="yes"/>
      <point x="2248" y="1028.69"/>
      <point x="2341" y="1139"/>
      <point x="2532" y="1139" type="curve" smooth="yes"/>
      <point x="2726" y="1139"/>
      <point x="2824" y="1021"/>
      <point x="2824" y="810" type="curve" smooth="yes"/>
      <point x="2824" y="559" type="line"/>
      <point x="2843" y="559" type="line"/>
      <point x="2851" y="853" type="line"/>
      <point x="2840" y="1074"/>
      <point x="2720" y="1173"/>
    </contour>
    <contour>
      <point x="3306" y="1173" type="curve" smooth="yes"/>
      <point x="3060" y="1173"/>
      <point x="2903" y="1069"/>
      <point x="2853" y="853" type="curve"/>
      <point x="2842" y="853" type="line"/>
      <point x="2824" y="629" type="line"/>
      <point x="2824" y="0" type="line"/>
      <point x="2861" y="0" type="line"/>
      <point x="2861" y="664" type="line" smooth="yes"/>
      <point x="2861" y="980"/>
      <point x="3008" y="1139"/>
      <point x="3306" y="1139" type="curve" smooth="yes"/>
      <point x="3604" y="1139"/>
      <point x="3750" y="976.653"/>
      <point x="3750" y="654" type="curve" smooth="yes"/>
      <point x="3750" y="0" type="line"/>
      <point x="3787" y="0" type="line"/>
      <point x="3787" y="654" type="line" smooth="yes"/>
      <point x="3787" y="997.621"/>
      <point x="3628" y="1173"/>
    </contour>
    <contour>
      <point x="2842" y="32" type="line"/>
      <point x="2840" y="0" type="line"/>
      <point x="3778" y="0" type="line"/>
      <point x="3778" y="32" type="line"/>
    </contour>
    <contour>
      <point x="3391.04" y="698" type="line" smooth="yes"/>
      <point x="3391.04" y="938.912"/>
      <point x="3285.58" y="1065"/>
      <point x="3088.04" y="1065" type="curve" smooth="yes"/>
      <point x="3045.4" y="1065"/>
      <point x="2998.7" y="1056.75"/>
      <point x="2954.04" y="1037" type="curve"/>
      <point x="2947.04" y="1009" type="line"/>
      <point x="2993.99" y="1028.57"/>
      <point x="3039.01" y="1034"/>
      <point x="3083.04" y="1034" type="curve" smooth="yes"/>
      <point x="3259.69" y="1034"/>
      <point x="3354.04" y="920.785"/>
      <point x="3354.04" y="697" type="curve" smooth="yes"/>
      <point x="3354.04" y="674" type="line" smooth="yes" name="n15"/>
      <point x="3354.04" y="378.636"/>
      <point x="3215.66" y="169.04"/>
      <point x="2988.04" y="29" type="curve"/>
      <point x="3026.04" y="16" type="line"/>
      <point x="3250.65" y="149.852"/>
      <point x="3391.04" y="374.689"/>
      <point x="3391.04" y="673" type="curve" smooth="yes"/>
    </contour>
  </outline>
</glyph>
<glyph name="date.mlm" format="2">
  <advance width="2234"/>
  <unicode hex="0D79"/>
  <outline>
    <contour>
      <point x="833" y="700" type="line"/>
      <point x="833" y="5" type="line"/>
      <point x="870" y="5" type="line"/>
      <point x="870" y="700" type="line"/>
    </contour>
    <contour>
      <point x="526" y="1139" type="curve" smooth="yes"/>
      <point x="731" y="1139"/>
      <point x="833" y="1021"/>
      <point x="833" y="788" type="curve" smooth="yes"/>
      <point x="833" y="559" type="line"/>
      <point x="852" y="559" type="line"/>
      <point x="855" y="889" type="line"/>
      <point x="828" y="1082"/>
      <point x="712" y="1173"/>
      <point x="525" y="1173" type="curve" smooth="yes"/>
      <point x="278" y="1173"/>
      <point x="158" y="1027.63"/>
      <point x="158" y="742" type="curve" smooth="yes"/>
      <point x="158" y="475" type="line" smooth="yes"/>
      <point x="158" y="255.591"/>
      <point x="215" y="110.323"/>
      <point x="314" y="0" type="curve"/>
      <point x="362" y="0" type="line"/>
      <point x="257" y="109.296"/>
      <point x="195" y="257.622"/>
      <point x="195" y="476" type="curve" smooth="yes"/>
      <point x="195" y="742" type="line" smooth="yes"/>
      <point x="195" y="1004.61"/>
      <point x="304" y="1139"/>
    </contour>
    <contour>
      <point x="1294" y="1173" type="curve" smooth="yes"/>
      <point x="1062" y="1173"/>
      <point x="899" y="1080"/>
      <point x="856" y="889" type="curve"/>
      <point x="844" y="889" type="line"/>
      <point x="845" y="611" type="line"/>
      <point x="870" y="611" type="line"/>
      <point x="870" y="760" type="line" smooth="yes"/>
      <point x="870" y="1006"/>
      <point x="1016" y="1139"/>
      <point x="1294" y="1139" type="curve" smooth="yes"/>
      <point x="1597" y="1139"/>
      <point x="1744" y="955.407"/>
      <point x="1744" y="628" type="curve" smooth="yes"/>
      <point x="1744" y="328" type="line" smooth="yes"/>
      <point x="1744" y="113.962"/>
      <point x="1654.71" y="13"/>
      <point x="1493" y="13" type="curve" smooth="yes"/>
      <point x="1331.29" y="13"/>
      <point x="1243" y="105.996"/>
      <point x="1243" y="293" type="curve" smooth="yes"/>
      <point x="1243" y="400" type="line" smooth="yes"/>
      <point x="1243" y="580.242"/>
      <point x="1330" y="678"/>
      <point x="1513" y="678" type="curve" smooth="yes"/>
      <point x="2185" y="678" type="line"/>
      <point x="2195" y="710" type="line"/>
      <point x="1511" y="710" type="line" smooth="yes"/>
      <point x="1307" y="710"/>
      <point x="1206" y="601.234"/>
      <point x="1206" y="402" type="curve" smooth="yes"/>
      <point x="1206" y="293" type="line" smooth="yes"/>
      <point x="1206" y="86.0225"/>
      <point x="1306.3" y="-21"/>
      <point x="1493" y="-21" type="curve" smooth="yes"/>
      <point x="1679.7" y="-21"/>
      <point x="1781" y="90.9624"/>
      <point x="1781" y="328" type="curve" smooth="yes"/>
      <point x="1781" y="627" type="line" smooth="yes"/>
      <point x="1781" y="981.493"/>
      <point x="1620" y="1173"/>
    </contour>
  </outline>
</glyph>
<glyph name="chilluNn.mlm" format="2">
  <advance width="2839"/>
  <unicode hex="0D7A"/>
  <outline>
    <contour>
      <point x="1085" y="5" type="line"/>
      <point x="1122" y="5" type="line"/>
      <point x="1122" y="700" type="line"/>
      <point x="1085" y="700" type="line"/>
    </contour>
    <contour>
      <point x="655" y="1173" type="curve" smooth="yes"/>
      <point x="320" y="1173"/>
      <point x="156" y="983.345"/>
      <point x="156" y="603" type="curve" smooth="yes"/>
      <point x="156" y="339" type="line" smooth="yes"/>
      <point x="156" y="94.6056"/>
      <point x="258" y="-21"/>
      <point x="455" y="-21" type="curve" smooth="yes"/>
      <point x="641" y="-21"/>
      <point x="739" y="91.7344"/>
      <point x="739" y="304" type="curve" smooth="yes"/>
      <point x="739" y="439" type="line" smooth="yes"/>
      <point x="739" y="637.261"/>
      <point x="641" y="743"/>
      <point x="465" y="743" type="curve" smooth="yes"/>
      <point x="320" y="743"/>
      <point x="213" y="662"/>
      <point x="179" y="543" type="curve"/>
      <point x="193" y="529" type="line"/>
      <point x="239" y="644"/>
      <point x="331" y="709"/>
      <point x="463" y="709" type="curve" smooth="yes"/>
      <point x="618" y="709"/>
      <point x="702" y="617.315"/>
      <point x="702" y="437" type="curve" smooth="yes"/>
      <point x="702" y="304" type="line" smooth="yes"/>
      <point x="702" y="108.643"/>
      <point x="617" y="13"/>
      <point x="455" y="13" type="curve" smooth="yes"/>
      <point x="282" y="13"/>
      <point x="193" y="115.573"/>
      <point x="193" y="339" type="curve" smooth="yes"/>
      <point x="193" y="555" type="line"/>
      <point x="209" y="581" type="line"/>
      <point x="193" y="581" type="line"/>
      <point x="193" y="603" type="line" smooth="yes"/>
      <point x="193" y="962.411"/>
      <point x="345" y="1139"/>
      <point x="655" y="1139" type="curve" smooth="yes"/>
      <point x="941" y="1139"/>
      <point x="1085" y="1006"/>
      <point x="1085" y="760" type="curve" smooth="yes"/>
      <point x="1085" y="611" type="line"/>
      <point x="1100" y="611" type="line"/>
      <point x="1099" y="889" type="line"/>
      <point x="1055" y="1080"/>
      <point x="893" y="1173"/>
    </contour>
    <contour>
      <point x="1704" y="705" type="line"/>
      <point x="1704" y="5" type="line"/>
      <point x="1741" y="5" type="line"/>
      <point x="1741" y="705" type="line"/>
    </contour>
    <contour>
      <point x="1726" y="889" type="line"/>
      <point x="1702" y="1083"/>
      <point x="1592" y="1173"/>
      <point x="1413" y="1173" type="curve" smooth="yes"/>
      <point x="1234" y="1173"/>
      <point x="1126" y="1083"/>
      <point x="1101" y="889" type="curve"/>
      <point x="1092" y="889" type="line"/>
      <point x="1092" y="582" type="line"/>
      <point x="1122" y="581" type="line"/>
      <point x="1122" y="788" type="line" smooth="yes"/>
      <point x="1122" y="1021"/>
      <point x="1216" y="1139"/>
      <point x="1413" y="1139" type="curve" smooth="yes"/>
      <point x="1610" y="1139"/>
      <point x="1704" y="1021"/>
      <point x="1704" y="788" type="curve" smooth="yes"/>
      <point x="1704" y="565" type="line"/>
      <point x="1724" y="557" type="line"/>
    </contour>
    <contour>
      <point x="2294" y="1164" type="line"/>
      <point x="2259" y="1170"/>
      <point x="2220" y="1173"/>
      <point x="2177" y="1173" type="curve" smooth="yes"/>
      <point x="1937" y="1173"/>
      <point x="1771" y="1080"/>
      <point x="1728" y="889" type="curve"/>
      <point x="1715" y="889" type="line"/>
      <point x="1716" y="611" type="line"/>
      <point x="1741" y="611" type="line"/>
      <point x="1741" y="760" type="line" smooth="yes"/>
      <point x="1741" y="1006"/>
      <point x="1889" y="1139"/>
      <point x="2177" y="1139" type="curve" smooth="yes"/>
      <point x="2214" y="1139"/>
      <point x="2247" y="1137"/>
      <point x="2278" y="1132" type="curve"/>
      <point x="2294" y="1129" type="line" smooth="yes"/>
      <point x="2529" y="1085"/>
      <point x="2646" y="902"/>
      <point x="2646" y="609" type="curve" smooth="yes"/>
      <point x="2646" y="332" type="line" smooth="yes"/>
      <point x="2646" y="122"/>
      <point x="2569" y="13"/>
      <point x="2398" y="13" type="curve" smooth="yes"/>
      <point x="2240" y="13"/>
      <point x="2155" y="113"/>
      <point x="2155" y="305" type="curve" smooth="yes"/>
      <point x="2155" y="570" type="line" smooth="yes"/>
      <point x="2155" y="807"/>
      <point x="2224" y="964"/>
      <point x="2314" y="1139" type="curve"/>
      <point x="2316" y="1142"/>
      <point x="2318" y="1150"/>
      <point x="2320" y="1153" type="curve"/>
      <point x="2347" y="1208.64"/>
      <point x="2361" y="1264.27"/>
      <point x="2361" y="1323" type="curve" smooth="yes"/>
      <point x="2361" y="1404.01"/>
      <point x="2339" y="1472.57"/>
      <point x="2294" y="1538" type="curve"/>
      <point x="2255" y="1538" type="line"/>
      <point x="2305" y="1465.29"/>
      <point x="2324" y="1401.94"/>
      <point x="2324" y="1323" type="curve" smooth="yes"/>
      <point x="2324" y="1266.26"/>
      <point x="2310" y="1213.65"/>
      <point x="2284" y="1160" type="curve"/>
      <point x="2282" y="1157"/>
      <point x="2281" y="1150"/>
      <point x="2278" y="1147" type="curve"/>
      <point x="2188" y="975"/>
      <point x="2118" y="820"/>
      <point x="2118" y="572" type="curve" smooth="yes"/>
      <point x="2118" y="305" type="line" smooth="yes"/>
      <point x="2118" y="90"/>
      <point x="2216" y="-21"/>
      <point x="2398" y="-21" type="curve" smooth="yes"/>
      <point x="2593" y="-21"/>
      <point x="2683" y="100"/>
      <point x="2683" y="332" type="curve" smooth="yes"/>
      <point x="2683" y="609" type="line" smooth="yes"/>
      <point x="2683" y="918"/>
      <point x="2559" y="1109"/>
      <point x="2310" y="1160" type="curve"/>
    </contour>
  </outline>
</glyph>
<glyph name="chilluN.mlm" format="2">
  <advance width="1968"/>
  <unicode hex="0D7B"/>
  <outline>
    <contour>
      <point x="833" y="700" type="line"/>
      <point x="833" y="5" type="line"/>
      <point x="870" y="5" type="line"/>
      <point x="870" y="700" type="line"/>
    </contour>
    <contour>
      <point x="526" y="1139" type="curve" smooth="yes"/>
      <point x="731" y="1139"/>
      <point x="833" y="1021"/>
      <point x="833" y="788" type="curve" smooth="yes"/>
      <point x="833" y="559" type="line"/>
      <point x="852" y="559" type="line"/>
      <point x="855" y="889" type="line"/>
      <point x="828" y="1082"/>
      <point x="712" y="1173"/>
      <point x="525" y="1173" type="curve" smooth="yes"/>
      <point x="278" y="1173"/>
      <point x="158" y="1027.63"/>
      <point x="158" y="742" type="curve" smooth="yes"/>
      <point x="158" y="475" type="line" smooth="yes"/>
      <point x="158" y="255.591"/>
      <point x="215" y="110.323"/>
      <point x="314" y="0" type="curve"/>
      <point x="362" y="0" type="line"/>
      <point x="257" y="109.296"/>
      <point x="195" y="257.622"/>
      <point x="195" y="476" type="curve" smooth="yes"/>
      <point x="195" y="742" type="line" smooth="yes"/>
      <point x="195" y="1004.61"/>
      <point x="304" y="1139"/>
    </contour>
    <contour>
      <point x="1423" y="1164" type="line"/>
      <point x="1388" y="1170"/>
      <point x="1349" y="1173"/>
      <point x="1306" y="1173" type="curve" smooth="yes"/>
      <point x="1066" y="1173"/>
      <point x="900" y="1080"/>
      <point x="857" y="889" type="curve"/>
      <point x="844" y="889" type="line"/>
      <point x="845" y="611" type="line"/>
      <point x="870" y="611" type="line"/>
      <point x="870" y="760" type="line" smooth="yes"/>
      <point x="870" y="1006"/>
      <point x="1018" y="1139"/>
      <point x="1306" y="1139" type="curve" smooth="yes"/>
      <point x="1343" y="1139"/>
      <point x="1376" y="1137"/>
      <point x="1407" y="1132" type="curve"/>
      <point x="1423" y="1129" type="line" smooth="yes"/>
      <point x="1658" y="1085"/>
      <point x="1775" y="902"/>
      <point x="1775" y="609" type="curve" smooth="yes"/>
      <point x="1775" y="332" type="line" smooth="yes"/>
      <point x="1775" y="122"/>
      <point x="1698" y="13"/>
      <point x="1527" y="13" type="curve" smooth="yes"/>
      <point x="1369" y="13"/>
      <point x="1284" y="113"/>
      <point x="1284" y="305" type="curve" smooth="yes"/>
      <point x="1284" y="570" type="line" smooth="yes"/>
      <point x="1284" y="807"/>
      <point x="1353" y="964"/>
      <point x="1443" y="1139" type="curve"/>
      <point x="1445" y="1142"/>
      <point x="1447" y="1150"/>
      <point x="1449" y="1153" type="curve"/>
      <point x="1476" y="1208.64"/>
      <point x="1490" y="1264.27"/>
      <point x="1490" y="1323" type="curve" smooth="yes"/>
      <point x="1490" y="1404.01"/>
      <point x="1468" y="1472.57"/>
      <point x="1423" y="1538" type="curve"/>
      <point x="1384" y="1538" type="line"/>
      <point x="1434" y="1465.29"/>
      <point x="1453" y="1401.94"/>
      <point x="1453" y="1323" type="curve" smooth="yes"/>
      <point x="1453" y="1266.26"/>
      <point x="1439" y="1213.65"/>
      <point x="1413" y="1160" type="curve"/>
      <point x="1411" y="1157"/>
      <point x="1410" y="1150"/>
      <point x="1407" y="1147" type="curve"/>
      <point x="1317" y="975"/>
      <point x="1247" y="820"/>
      <point x="1247" y="572" type="curve" smooth="yes"/>
      <point x="1247" y="305" type="line" smooth="yes"/>
      <point x="1247" y="90"/>
      <point x="1345" y="-21"/>
      <point x="1527" y="-21" type="curve" smooth="yes"/>
      <point x="1722" y="-21"/>
      <point x="1812" y="100"/>
      <point x="1812" y="332" type="curve" smooth="yes"/>
      <point x="1812" y="609" type="line" smooth="yes"/>
      <point x="1812" y="918"/>
      <point x="1688" y="1109"/>
      <point x="1439" y="1160" type="curve"/>
    </contour>
  </outline>
</glyph>
<glyph name="sixsuperior" format="2">
  <advance width="658"/>
  <unicode hex="2076"/>
  <outline>
    <contour>
      <point x="349" y="714" type="curve" smooth="yes"/>
      <point x="496" y="714"/>
      <point x="587" y="800"/>
      <point x="587" y="929" type="curve" smooth="yes"/>
      <point x="587" y="944" type="line" smooth="yes"/>
      <point x="587" y="1080"/>
      <point x="508" y="1149"/>
      <point x="365" y="1149" type="curve" smooth="yes"/>
      <point x="220" y="1149"/>
      <point x="135" y="1061"/>
      <point x="106" y="971" type="curve"/>
      <point x="97" y="971" type="line"/>
      <point x="111" y="942" type="line"/>
      <point x="154" y="1049"/>
      <point x="228" y="1118"/>
      <point x="359" y="1118" type="curve" smooth="yes"/>
      <point x="485" y="1118"/>
      <point x="552" y="1059"/>
      <point x="552" y="943" type="curve" smooth="yes"/>
      <point x="552" y="929" type="line" smooth="yes"/>
      <point x="552" y="818"/>
      <point x="475" y="746"/>
      <point x="349" y="746" type="curve" smooth="yes"/>
      <point x="189" y="746"/>
      <point x="116" y="836"/>
      <point x="116" y="994" type="curve" smooth="yes"/>
      <point x="116" y="1141" type="line" smooth="yes"/>
      <point x="116" y="1281"/>
      <point x="190" y="1380"/>
      <point x="351" y="1380" type="curve" smooth="yes"/>
      <point x="445" y="1380"/>
      <point x="502" y="1357"/>
      <point x="556" y="1328" type="curve"/>
      <point x="551" y="1364" type="line"/>
      <point x="508" y="1387"/>
      <point x="446" y="1412"/>
      <point x="348" y="1412" type="curve" smooth="yes"/>
      <point x="169" y="1412"/>
      <point x="80" y="1300"/>
      <point x="80" y="1141" type="curve" smooth="yes"/>
      <point x="80" y="994" type="line" smooth="yes"/>
      <point x="80" y="820"/>
      <point x="167" y="714"/>
    </contour>
  </outline>
</glyph>
<glyph name="rupeeIndian" format="2">
  <advance width="1005"/>
  <unicode hex="20B9"/>
  <outline>
    <contour>
      <point x="931" y="1246" type="line"/>
      <point x="110" y="1246" type="line"/>
      <point x="104" y="1278" type="line"/>
      <point x="925" y="1278" type="line"/>
    </contour>
    <contour>
      <point x="705" y="0" type="line"/>
      <point x="659" y="0" type="line"/>
      <point x="216" y="515" type="line"/>
      <point x="117" y="519" type="line"/>
      <point x="117" y="550" type="line"/>
      <point x="253" y="544" type="line"/>
      <point x="242" y="537" type="line"/>
      <point x="300" y="475"/>
      <point x="347" y="422"/>
      <point x="393" y="368" type="curve" smooth="yes"/>
      <point x="705" y="3" type="line"/>
    </contour>
    <contour>
      <point x="571" y="1258" type="line"/>
      <point x="646" y="1194"/>
      <point x="694" y="1086"/>
      <point x="694" y="945" type="curve" smooth="yes"/>
      <point x="694" y="885" type="line" smooth="yes"/>
      <point x="694" y="630"/>
      <point x="559" y="518"/>
      <point x="284" y="518" type="curve" smooth="yes"/>
      <point x="185" y="518" type="line"/>
      <point x="117" y="550" type="line"/>
      <point x="285" y="550" type="line" smooth="yes"/>
      <point x="539" y="550"/>
      <point x="658" y="657"/>
      <point x="658" y="886" type="curve" smooth="yes"/>
      <point x="658" y="945" type="line" smooth="yes"/>
      <point x="658" y="1086"/>
      <point x="613" y="1189"/>
      <point x="527" y="1258" type="curve"/>
    </contour>
    <contour>
      <point x="931" y="893" type="line"/>
      <point x="110" y="893" type="line"/>
      <point x="104" y="924" type="line"/>
      <point x="925" y="924" type="line"/>
    </contour>
  </outline>
</glyph>
<glyph name="BaDa.mlm" format="2">
  <advance width="2484"/>
  <outline>
    <component base="Ba.mlm"/>
    <contour>
      <point x="2234" y="-127" type="line" smooth="yes"/>
      <point x="2234" y="-29"/>
      <point x="2148" y="27"/>
      <point x="1979" y="27" type="curve" smooth="yes"/>
      <point x="1789" y="27"/>
      <point x="1697" y="-59.36"/>
      <point x="1697" y="-233" type="curve" smooth="yes"/>
      <point x="1697" y="-284" type="line" smooth="yes"/>
      <point x="1697" y="-381.642"/>
      <point x="1717" y="-447.812"/>
      <point x="1747" y="-500" type="curve"/>
      <point x="1784" y="-500" type="line"/>
      <point x="1751" y="-443.556"/>
      <point x="1731" y="-376.322"/>
      <point x="1731" y="-284" type="curve" smooth="yes"/>
      <point x="1731" y="-233" type="line" smooth="yes"/>
      <point x="1731" y="-78.3632"/>
      <point x="1809" y="0"/>
      <point x="1979" y="0" type="curve" smooth="yes"/>
      <point x="2131.69" y="0"/>
      <point x="2200" y="-47"/>
      <point x="2200" y="-127" type="curve" smooth="yes"/>
      <point x="2200" y="-130" type="line" smooth="yes"/>
      <point x="2200" y="-188"/>
      <point x="2157.69" y="-223.097"/>
      <point x="2062" y="-224" type="curve" smooth="yes"/>
      <point x="1956" y="-225" type="line"/>
      <point x="1956" y="-254" type="line"/>
      <point x="2064" y="-255" type="line" smooth="yes"/>
      <point x="2165.68" y="-255.942"/>
      <point x="2213" y="-292"/>
      <point x="2213" y="-364" type="curve"/>
      <point x="2213" y="-366" type="line"/>
      <point x="2213" y="-440"/>
      <point x="2160.67" y="-477"/>
      <point x="2056" y="-477" type="curve" smooth="yes"/>
      <point x="2021" y="-477"/>
      <point x="1973" y="-472"/>
      <point x="1933" y="-462" type="curve"/>
      <point x="1942" y="-495" type="line"/>
      <point x="1980" y="-504"/>
      <point x="2025" y="-508"/>
      <point x="2059" y="-508" type="curve" smooth="yes"/>
      <point x="2183" y="-508"/>
      <point x="2247" y="-462"/>
      <point x="2247" y="-366" type="curve"/>
      <point x="2247" y="-364" type="line"/>
      <point x="2247" y="-296"/>
      <point x="2211" y="-256"/>
      <point x="2142" y="-240" type="curve"/>
      <point x="2142" y="-239" type="line"/>
      <point x="2202" y="-224"/>
      <point x="2234" y="-186"/>
      <point x="2234" y="-130" type="curve" smooth="yes"/>
    </contour>
  </outline>
</glyph>
<glyph name="BaLa.mlm" format="2">
  <advance width="2484"/>
  <outline>
    <component base="Ba.mlm"/>
    <contour>
      <point x="1526" y="32" type="curve" smooth="yes"/>
      <point x="1294.69" y="32"/>
      <point x="1181" y="-65.6609"/>
      <point x="1181" y="-262" type="curve" smooth="yes"/>
      <point x="1181" y="-296" type="line" smooth="yes"/>
      <point x="1181" y="-434"/>
      <point x="1251.33" y="-511"/>
      <point x="1391" y="-511" type="curve" smooth="yes"/>
      <point x="1519.75" y="-511"/>
      <point x="1589" y="-450"/>
      <point x="1589" y="-340" type="curve" smooth="yes"/>
      <point x="1589" y="-326" type="line" smooth="yes"/>
      <point x="1589" y="-216"/>
      <point x="1519.83" y="-157"/>
      <point x="1400" y="-157" type="curve" smooth="yes"/>
      <point x="1305.39" y="-157"/>
      <point x="1233.21" y="-197.539"/>
      <point x="1202" y="-268" type="curve"/>
      <point x="1213" y="-285" type="line"/>
      <point x="1244.15" y="-222.6"/>
      <point x="1308.41" y="-189"/>
      <point x="1397" y="-189" type="curve" smooth="yes"/>
      <point x="1499.75" y="-189"/>
      <point x="1555" y="-238"/>
      <point x="1555" y="-326" type="curve" smooth="yes"/>
      <point x="1555" y="-341" type="line" smooth="yes"/>
      <point x="1555" y="-431"/>
      <point x="1496.78" y="-479"/>
      <point x="1391" y="-479" type="curve" smooth="yes"/>
      <point x="1273.34" y="-479"/>
      <point x="1215" y="-418"/>
      <point x="1215" y="-297" type="curve" smooth="yes"/>
      <point x="1215" y="-273" type="line"/>
      <point x="1225.37" y="-243.528" type="line"/>
      <point x="1215.16" y="-244.482" type="line"/>
      <point x="1220.78" y="-80.2489"/>
      <point x="1324.3" y="0"/>
      <point x="1526" y="0" type="curve" smooth="yes"/>
      <point x="1728.98" y="0"/>
      <point x="1818.74" y="-88.0303"/>
      <point x="1829" y="-242" type="curve" smooth="yes"/>
      <point x="1832" y="-287" type="line" smooth="yes"/>
      <point x="1841.33" y="-426.973"/>
      <point x="1909.34" y="-511"/>
      <point x="2066" y="-511" type="curve" smooth="yes"/>
      <point x="2220.64" y="-511"/>
      <point x="2294" y="-430"/>
      <point x="2294" y="-276" type="curve" smooth="yes"/>
      <point x="2294" y="-235" type="line" smooth="yes"/>
      <point x="2294" y="-127"/>
      <point x="2258" y="-46"/>
      <point x="2195" y="11" type="curve"/>
      <point x="2159" y="7" type="line"/>
      <point x="2224" y="-52"/>
      <point x="2260" y="-133"/>
      <point x="2260" y="-236" type="curve" smooth="yes"/>
      <point x="2260" y="-276" type="line" smooth="yes"/>
      <point x="2260" y="-413"/>
      <point x="2196.65" y="-479"/>
      <point x="2066" y="-479" type="curve" smooth="yes"/>
      <point x="1934.32" y="-479"/>
      <point x="1874.66" y="-411.018"/>
      <point x="1866" y="-284" type="curve" smooth="yes"/>
      <point x="1863" y="-240" type="line" smooth="yes"/>
      <point x="1854.3" y="-112.429"/>
      <point x="1799.13" y="-29.2718"/>
      <point x="1680.35" y="6.6552" type="curve" smooth="yes"/>
      <point x="1673.28" y="8.7967"/>
      <point x="1664.88" y="14.4267"/>
      <point x="1657.42" y="16.5123" type="curve" smooth="yes"/>
      <point x="1619.56" y="27.0936"/>
      <point x="1575.91" y="32"/>
    </contour>
  </outline>
</glyph>
<glyph name="CaCa.mlm" format="2">
  <advance width="1568"/>
  <outline>
    <component base="Ca.mlm"/>
    <contour>
      <point x="1337" y="22" type="line" name="n31"/>
      <point x="1337" y="-456" type="line"/>
      <point x="1374" y="-456" type="line" name="n33"/>
      <point x="1374" y="21" type="line" name="n32"/>
    </contour>
    <contour>
      <point x="556" y="-424" type="line"/>
      <point x="779" y="-343.261"/>
      <point x="983" y="-173.709"/>
      <point x="1036" y="13" type="curve"/>
      <point x="999" y="16" type="line"/>
      <point x="943" y="-177.761"/>
      <point x="728" y="-332.165"/>
      <point x="480" y="-424" type="curve"/>
      <point x="488" y="-456" type="line"/>
      <point x="1344" y="-456" type="line"/>
      <point x="1353" y="-424" type="line"/>
    </contour>
  </outline>
</glyph>
<glyph name="DaDha.mlm" format="2">
  <advance width="2309"/>
  <outline>
    <contour>
      <point x="1496" y="440" type="line"/>
      <point x="1496" y="1140" type="line"/>
      <point x="1459" y="1140" type="line"/>
      <point x="1459" y="440" type="line"/>
    </contour>
    <contour>
      <point x="1459" y="586" type="line"/>
      <point x="1459" y="355" type="line" smooth="yes"/>
      <point x="1459" y="140"/>
      <point x="1361" y="32"/>
      <point x="1162" y="32" type="curve" smooth="yes"/>
      <point x="803" y="32" type="line"/>
      <point x="803" y="0" type="line"/>
      <point x="1161" y="0" type="line" smooth="yes"/>
      <point x="1341" y="0"/>
      <point x="1448" y="82"/>
      <point x="1476" y="233" type="curve"/>
      <point x="1488" y="233" type="line"/>
      <point x="1488" y="563" type="line"/>
    </contour>
    <contour>
      <point x="629" y="1175" type="curve" smooth="yes"/>
      <point x="313" y="1175"/>
      <point x="159" y="1012.35"/>
      <point x="159" y="686" type="curve" smooth="yes"/>
      <point x="159" y="432" type="line" smooth="yes"/>
      <point x="159" y="232.498"/>
      <point x="197" y="104.417"/>
      <point x="254" y="0" type="curve"/>
      <point x="298" y="0" type="line"/>
      <point x="236" y="105.435"/>
      <point x="196" y="234.532"/>
      <point x="196" y="433" type="curve" smooth="yes"/>
      <point x="196" y="686" type="line" smooth="yes"/>
      <point x="196" y="989.333"/>
      <point x="336" y="1141"/>
      <point x="629" y="1141" type="curve" smooth="yes"/>
      <point x="879" y="1141"/>
      <point x="1002" y="1042.68"/>
      <point x="1002" y="842" type="curve" smooth="yes"/>
      <point x="1002" y="832" type="line" smooth="yes"/>
      <point x="1002" y="669.217"/>
      <point x="915" y="599.116"/>
      <point x="742" y="598" type="curve" smooth="yes"/>
      <point x="587" y="597" type="line"/>
      <point x="587" y="565" type="line"/>
      <point x="742" y="564" type="line" smooth="yes"/>
      <point x="930.999" y="562.781"/>
      <point x="1023" y="484.434"/>
      <point x="1023" y="310" type="curve" smooth="yes"/>
      <point x="1023" y="289" type="line" smooth="yes"/>
      <point x="1023" y="116.941"/>
      <point x="937" y="32"/>
      <point x="763" y="32" type="curve" smooth="yes"/>
      <point x="552" y="32" type="line"/>
      <point x="561" y="0" type="line"/>
      <point x="820" y="0" type="line"/>
      <point x="825" y="15" type="line"/>
      <point x="983" y="25.8333"/>
      <point x="1060" y="117.917"/>
      <point x="1060" y="288" type="curve" smooth="yes"/>
      <point x="1060" y="309" type="line" smooth="yes"/>
      <point x="1060" y="475.064"/>
      <point x="987" y="560.643"/>
      <point x="839" y="580" type="curve"/>
      <point x="839" y="582" type="line"/>
      <point x="973" y="601.309"/>
      <point x="1039" y="682.61"/>
      <point x="1039" y="832" type="curve" smooth="yes"/>
      <point x="1039" y="842" type="line" smooth="yes"/>
      <point x="1039" y="1066.7"/>
      <point x="902" y="1175"/>
    </contour>
    <contour>
      <point x="1479" y="233" type="line"/>
      <point x="1507" y="67"/>
      <point x="1616" y="-23"/>
      <point x="1798" y="-23" type="curve" smooth="yes"/>
      <point x="2037" y="-23"/>
      <point x="2151" y="120.382"/>
      <point x="2151" y="401" type="curve" smooth="yes"/>
      <point x="2151" y="664" type="line" smooth="yes"/>
      <point x="2151" y="885.395"/>
      <point x="2091" y="1032.66"/>
      <point x="1987" y="1145" type="curve"/>
      <point x="1941" y="1145" type="line"/>
      <point x="2049" y="1032.67"/>
      <point x="2114" y="884.386"/>
      <point x="2114" y="663" type="curve" smooth="yes"/>
      <point x="2114" y="401" type="line" smooth="yes"/>
      <point x="2114" y="142.368"/>
      <point x="2012" y="11"/>
      <point x="1797" y="11" type="curve" smooth="yes"/>
      <point x="1596" y="11"/>
      <point x="1496" y="126"/>
      <point x="1496" y="358" type="curve" smooth="yes"/>
      <point x="1496" y="570" type="line"/>
      <point x="1479" y="570" type="line"/>
    </contour>
  </outline>
</glyph>
<glyph name="DdaDda.mlm" format="2">
  <advance width="2215"/>
  <outline>
    <component base="Dda.mlm"/>
    <contour>
      <point x="1346" y="-510" type="curve" smooth="yes"/>
      <point x="1454.04" y="-510"/>
      <point x="1519.24" y="-462.948"/>
      <point x="1541.02" y="-376.591" type="curve"/>
      <point x="1548" y="-244" type="line"/>
      <point x="1525" y="-244" type="line"/>
      <point x="1525" y="-295" type="line" smooth="yes"/>
      <point x="1525" y="-417"/>
      <point x="1466" y="-478"/>
      <point x="1346" y="-478" type="curve" smooth="yes"/>
      <point x="1226" y="-478"/>
      <point x="1164" y="-416.684"/>
      <point x="1164" y="-281" type="curve" smooth="yes"/>
      <point x="1164" y="-223" type="line" smooth="yes"/>
      <point x="1164" y="-64.4764"/>
      <point x="1081" y="20"/>
      <point x="930" y="20" type="curve" smooth="yes"/>
      <point x="771" y="20"/>
      <point x="692" y="-62.7478"/>
      <point x="692" y="-224" type="curve" smooth="yes"/>
      <point x="692" y="-260" type="line" smooth="yes"/>
      <point x="692" y="-363.866"/>
      <point x="726" y="-443.529"/>
      <point x="784" y="-500" type="curve"/>
      <point x="827" y="-500" type="line"/>
      <point x="762" y="-437.479"/>
      <point x="726" y="-359.832"/>
      <point x="726" y="-260" type="curve" smooth="yes"/>
      <point x="726" y="-224" type="line" smooth="yes"/>
      <point x="726" y="-84.8081"/>
      <point x="794" y="-12"/>
      <point x="931" y="-12" type="curve" smooth="yes"/>
      <point x="1061" y="-12"/>
      <point x="1130" y="-85.4653"/>
      <point x="1130" y="-224" type="curve" smooth="yes"/>
      <point x="1130" y="-284" type="line" smooth="yes"/>
      <point x="1130" y="-430.296"/>
      <point x="1197" y="-510"/>
    </contour>
    <contour>
      <point x="1559" y="-290.094" type="line"/>
      <point x="1559" y="8" type="line"/>
      <point x="1525" y="8" type="line"/>
      <point x="1525" y="-290.094" type="line"/>
    </contour>
    <contour>
      <point x="1537" y="-249" type="line"/>
      <point x="1535.07" y="-376.954" type="line"/>
      <point x="1543.3" y="-376.591" type="line"/>
      <point x="1567.03" y="-462.948"/>
      <point x="1637.45" y="-510"/>
      <point x="1752" y="-510" type="curve" smooth="yes"/>
      <point x="1911" y="-510"/>
      <point x="1981" y="-421.272"/>
      <point x="1981" y="-272" type="curve" smooth="yes"/>
      <point x="1981" y="-230" type="line" smooth="yes"/>
      <point x="1981" y="-124"/>
      <point x="1951" y="-45"/>
      <point x="1892" y="19" type="curve"/>
      <point x="1849" y="19" type="line"/>
      <point x="1913" y="-49"/>
      <point x="1947" y="-123"/>
      <point x="1947" y="-230" type="curve" smooth="yes"/>
      <point x="1947" y="-270" type="line" smooth="yes"/>
      <point x="1947" y="-408.667"/>
      <point x="1881" y="-478"/>
      <point x="1752" y="-478" type="curve" smooth="yes"/>
      <point x="1623" y="-478"/>
      <point x="1559" y="-417"/>
      <point x="1559" y="-294" type="curve" smooth="yes"/>
      <point x="1559" y="-248" type="line"/>
    </contour>
  </outline>
</glyph>
<glyph name="GaDa.mlm" format="2">
  <advance width="1731"/>
  <outline>
    <contour>
      <point x="1175" y="1175" type="curve" smooth="yes"/>
      <point x="909" y="1175"/>
      <point x="772" y="1044.7"/>
      <point x="772" y="780" type="curve" smooth="yes"/>
      <point x="772" y="647.123"/>
      <point x="787" y="479.833"/>
      <point x="787" y="346" type="curve" smooth="yes"/>
      <point x="787" y="123.354"/>
      <point x="692" y="11"/>
      <point x="504" y="11" type="curve" smooth="yes"/>
      <point x="297" y="11"/>
      <point x="195" y="136.306"/>
      <point x="195" y="390" type="curve" smooth="yes"/>
      <point x="195" y="661" type="line" smooth="yes"/>
      <point x="195" y="886.442"/>
      <point x="262" y="1033.68"/>
      <point x="379" y="1146" type="curve"/>
      <point x="332" y="1146" type="line"/>
      <point x="220" y="1034.7"/>
      <point x="158" y="885.409"/>
      <point x="158" y="662" type="curve" smooth="yes"/>
      <point x="158" y="390" type="line" smooth="yes"/>
      <point x="158" y="117.4"/>
      <point x="272" y="-23"/>
      <point x="504" y="-23" type="curve" smooth="yes"/>
      <point x="715" y="-23"/>
      <point x="824" y="103.445"/>
      <point x="824" y="344" type="curve" smooth="yes"/>
      <point x="824" y="477.819"/>
      <point x="809" y="644.137"/>
      <point x="809" y="777" type="curve" smooth="yes"/>
      <point x="809" y="1020.69"/>
      <point x="933" y="1141"/>
      <point x="1175" y="1141" type="curve" smooth="yes"/>
      <point x="1409" y="1141"/>
      <point x="1524" y="1042.68"/>
      <point x="1524" y="842" type="curve" smooth="yes"/>
      <point x="1524" y="832" type="line" smooth="yes"/>
      <point x="1524" y="669.217"/>
      <point x="1437" y="599.281"/>
      <point x="1264" y="598" type="curve" smooth="yes"/>
      <point x="1129" y="597" type="line"/>
      <point x="1129" y="565" type="line"/>
      <point x="1264" y="564" type="line" smooth="yes"/>
      <point x="1453" y="562.6"/>
      <point x="1545" y="484.434"/>
      <point x="1545" y="310" type="curve" smooth="yes"/>
      <point x="1545" y="289" type="line" smooth="yes"/>
      <point x="1545" y="102.547"/>
      <point x="1454" y="19"/>
      <point x="1268" y="19" type="curve" smooth="yes"/>
      <point x="1201" y="19"/>
      <point x="1118" y="29"/>
      <point x="1048" y="51" type="curve"/>
      <point x="1056" y="15" type="line"/>
      <point x="1124" y="-6"/>
      <point x="1203" y="-15"/>
      <point x="1271" y="-15" type="curve" smooth="yes"/>
      <point x="1479" y="-15"/>
      <point x="1582" y="78.5436"/>
      <point x="1582" y="288" type="curve" smooth="yes"/>
      <point x="1582" y="309" type="line" smooth="yes"/>
      <point x="1582" y="475.064"/>
      <point x="1509" y="560.643"/>
      <point x="1361" y="580" type="curve"/>
      <point x="1361" y="582" type="line"/>
      <point x="1495" y="601.309"/>
      <point x="1561" y="682.61"/>
      <point x="1561" y="832" type="curve" smooth="yes"/>
      <point x="1561" y="842" type="line" smooth="yes"/>
      <point x="1561" y="1066.7"/>
      <point x="1432" y="1175"/>
    </contour>
  </outline>
</glyph>
<glyph name="GaDaDha.mlm" format="2">
  <advance width="2830"/>
  <outline>
    <contour>
      <point x="2017" y="440" type="line"/>
      <point x="2017" y="1140" type="line"/>
      <point x="1980" y="1140" type="line"/>
      <point x="1980" y="440" type="line"/>
    </contour>
    <contour>
      <point x="1980" y="586" type="line"/>
      <point x="1980" y="358" type="line" smooth="yes"/>
      <point x="1980" y="141"/>
      <point x="1883" y="32"/>
      <point x="1684" y="32" type="curve" smooth="yes"/>
      <point x="1328" y="32" type="line"/>
      <point x="1315" y="0" type="line"/>
      <point x="1683" y="0" type="line" smooth="yes"/>
      <point x="1863" y="0"/>
      <point x="1969" y="82"/>
      <point x="1997" y="233" type="curve"/>
      <point x="2009" y="233" type="line"/>
      <point x="2009" y="563" type="line"/>
    </contour>
    <contour>
      <point x="1582" y="309" type="line" smooth="yes"/>
      <point x="1582" y="475.064"/>
      <point x="1509" y="560.643"/>
      <point x="1361" y="580" type="curve"/>
      <point x="1361" y="582" type="line"/>
      <point x="1495" y="601.309"/>
      <point x="1561" y="682.61"/>
      <point x="1561" y="832" type="curve" smooth="yes"/>
      <point x="1561" y="842" type="line" smooth="yes"/>
      <point x="1561" y="1066.7"/>
      <point x="1432" y="1175"/>
      <point x="1175" y="1175" type="curve" smooth="yes"/>
      <point x="908" y="1175"/>
      <point x="772" y="1044.7"/>
      <point x="772" y="780" type="curve" smooth="yes"/>
      <point x="772" y="647.123"/>
      <point x="787" y="479.833"/>
      <point x="787" y="346" type="curve" smooth="yes"/>
      <point x="787" y="123.354"/>
      <point x="691" y="11"/>
      <point x="504" y="11" type="curve" smooth="yes"/>
      <point x="297" y="11"/>
      <point x="195" y="136.306"/>
      <point x="195" y="390" type="curve" smooth="yes"/>
      <point x="195" y="661" type="line" smooth="yes"/>
      <point x="195" y="886.442"/>
      <point x="262" y="1033.68"/>
      <point x="379" y="1146" type="curve"/>
      <point x="332" y="1146" type="line"/>
      <point x="220" y="1034.7"/>
      <point x="158" y="885.409"/>
      <point x="158" y="662" type="curve" smooth="yes"/>
      <point x="158" y="390" type="line" smooth="yes"/>
      <point x="158" y="117.4"/>
      <point x="272" y="-23"/>
      <point x="504" y="-23" type="curve" smooth="yes"/>
      <point x="715" y="-23"/>
      <point x="824" y="103.445"/>
      <point x="824" y="344" type="curve" smooth="yes"/>
      <point x="824" y="477.819"/>
      <point x="809" y="644.137"/>
      <point x="809" y="777" type="curve" smooth="yes"/>
      <point x="809" y="1020.69"/>
      <point x="933" y="1141"/>
      <point x="1175" y="1141" type="curve" smooth="yes"/>
      <point x="1409" y="1141"/>
      <point x="1524" y="1042.68"/>
      <point x="1524" y="842" type="curve" smooth="yes"/>
      <point x="1524" y="832" type="line" smooth="yes"/>
      <point x="1524" y="669.217"/>
      <point x="1437" y="599.282"/>
      <point x="1264" y="598" type="curve" smooth="yes"/>
      <point x="1129" y="597" type="line"/>
      <point x="1129" y="565" type="line"/>
      <point x="1264" y="564" type="line" smooth="yes"/>
      <point x="1453" y="562.6"/>
      <point x="1545" y="484.434"/>
      <point x="1545" y="310" type="curve" smooth="yes"/>
      <point x="1545" y="289" type="line" smooth="yes"/>
      <point x="1545" y="116.647"/>
      <point x="1459" y="32"/>
      <point x="1285" y="32" type="curve" smooth="yes"/>
      <point x="1054" y="32" type="line"/>
      <point x="1062" y="0" type="line"/>
      <point x="1341" y="0" type="line"/>
      <point x="1346" y="15" type="line"/>
      <point x="1504" y="26.2052"/>
      <point x="1582" y="117.884"/>
      <point x="1582" y="288" type="curve" smooth="yes"/>
    </contour>
    <contour>
      <point x="2000" y="233" type="line"/>
      <point x="2028" y="67"/>
      <point x="2137" y="-23"/>
      <point x="2319" y="-23" type="curve" smooth="yes"/>
      <point x="2558" y="-23"/>
      <point x="2672" y="120.382"/>
      <point x="2672" y="401" type="curve" smooth="yes"/>
      <point x="2672" y="664" type="line" smooth="yes"/>
      <point x="2672" y="885.395"/>
      <point x="2612" y="1032.66"/>
      <point x="2508" y="1145" type="curve"/>
      <point x="2462" y="1145" type="line"/>
      <point x="2570" y="1032.67"/>
      <point x="2635" y="884.386"/>
      <point x="2635" y="663" type="curve" smooth="yes"/>
      <point x="2635" y="401" type="line" smooth="yes"/>
      <point x="2635" y="142.368"/>
      <point x="2533" y="11"/>
      <point x="2318" y="11" type="curve" smooth="yes"/>
      <point x="2117" y="11"/>
      <point x="2017" y="126"/>
      <point x="2017" y="358" type="curve" smooth="yes"/>
      <point x="2017" y="570" type="line"/>
      <point x="2000" y="570" type="line"/>
    </contour>
  </outline>
</glyph>
<glyph name="GaLa.mlm" format="2">
  <advance width="1602"/>
  <outline>
    <contour>
      <point x="809" y="805" type="curve" smooth="yes"/>
      <point x="809" y="1027.67"/>
      <point x="906" y="1139"/>
      <point x="1095" y="1139" type="curve" smooth="yes"/>
      <point x="1305" y="1139"/>
      <point x="1407" y="1013.72"/>
      <point x="1407" y="757" type="curve" smooth="yes"/>
      <point x="1407" y="482" type="line" smooth="yes"/>
      <point x="1407" y="258.572"/>
      <point x="1344" y="112.331"/>
      <point x="1229" y="0" type="curve"/>
      <point x="1278" y="0" type="line"/>
      <point x="1386" y="111.314"/>
      <point x="1444" y="259.605"/>
      <point x="1444" y="481" type="curve" smooth="yes"/>
      <point x="1444" y="757" type="line" smooth="yes"/>
      <point x="1444" y="1033.65"/>
      <point x="1330" y="1173"/>
      <point x="1095" y="1173" type="curve" smooth="yes"/>
      <point x="883" y="1173"/>
      <point x="773" y="1050.65"/>
      <point x="773" y="808" type="curve" smooth="yes"/>
      <point x="773" y="664.224"/>
      <point x="788" y="489.776"/>
      <point x="788" y="346" type="curve" smooth="yes"/>
      <point x="788" y="130.365"/>
      <point x="692" y="21"/>
      <point x="504" y="21" type="curve" smooth="yes"/>
      <point x="297" y="21"/>
      <point x="195" y="143.315"/>
      <point x="195" y="390" type="curve" smooth="yes"/>
      <point x="195" y="661" type="line" smooth="yes"/>
      <point x="195" y="886.442"/>
      <point x="262" y="1033.68"/>
      <point x="379" y="1146" type="curve"/>
      <point x="332" y="1146" type="line"/>
      <point x="220" y="1034.7"/>
      <point x="158" y="885.409"/>
      <point x="158" y="662" type="curve" smooth="yes"/>
      <point x="158" y="390" type="line" smooth="yes"/>
      <point x="158" y="126.427"/>
      <point x="271" y="-11"/>
      <point x="503" y="-11" type="curve" smooth="yes"/>
      <point x="714" y="-11"/>
      <point x="824" y="111.449"/>
      <point x="824" y="344" type="curve" smooth="yes"/>
      <point x="824" y="487.763"/>
      <point x="809" y="661.237"/>
    </contour>
    <contour>
      <point x="1372" y="-238" type="line" smooth="yes"/>
      <point x="1372" y="-131"/>
      <point x="1331.9" y="-51"/>
      <point x="1265" y="5" type="curve"/>
      <point x="1229" y="0" type="line"/>
      <point x="1298.59" y="-59"/>
      <point x="1338" y="-138"/>
      <point x="1338" y="-239" type="curve" smooth="yes"/>
      <point x="1338" y="-277" type="line" smooth="yes"/>
      <point x="1338" y="-414"/>
      <point x="1275" y="-480"/>
      <point x="1144" y="-480" type="curve" smooth="yes"/>
      <point x="1012" y="-480"/>
      <point x="952" y="-414"/>
      <point x="944" y="-290" type="curve" smooth="yes"/>
      <point x="941" y="-246" type="line" smooth="yes"/>
      <point x="929.232" y="-73.4099"/>
      <point x="832.613" y="21"/>
      <point x="605" y="21" type="curve" smooth="yes"/>
      <point x="373.647" y="21"/>
      <point x="260" y="-75.3169"/>
      <point x="260" y="-270" type="curve" smooth="yes"/>
      <point x="260" y="-302" type="line" smooth="yes"/>
      <point x="260" y="-437"/>
      <point x="330" y="-512"/>
      <point x="470" y="-512" type="curve" smooth="yes"/>
      <point x="599" y="-512"/>
      <point x="668" y="-452"/>
      <point x="668" y="-345" type="curve" smooth="yes"/>
      <point x="668" y="-331" type="line" smooth="yes"/>
      <point x="668" y="-222"/>
      <point x="599" y="-163"/>
      <point x="479" y="-163" type="curve" smooth="yes"/>
      <point x="384" y="-163"/>
      <point x="312" y="-205"/>
      <point x="281" y="-273" type="curve"/>
      <point x="292" y="-290" type="line"/>
      <point x="323" y="-230"/>
      <point x="387" y="-195"/>
      <point x="476" y="-195" type="curve" smooth="yes"/>
      <point x="579" y="-195"/>
      <point x="634" y="-244"/>
      <point x="634" y="-331" type="curve" smooth="yes"/>
      <point x="634" y="-346" type="line" smooth="yes"/>
      <point x="634" y="-433"/>
      <point x="576" y="-480"/>
      <point x="470" y="-480" type="curve" smooth="yes"/>
      <point x="352" y="-480"/>
      <point x="294" y="-421"/>
      <point x="294" y="-303" type="curve" smooth="yes"/>
      <point x="294" y="-279" type="line"/>
      <point x="302.594" y="-249.855" type="line"/>
      <point x="294.173" y="-250" type="line"/>
      <point x="300.934" y="-87.097"/>
      <point x="401.807" y="-8"/>
      <point x="600" y="-8" type="curve" smooth="yes"/>
      <point x="806" y="-8"/>
      <point x="896.807" y="-95.1014"/>
      <point x="907" y="-248" type="curve" smooth="yes"/>
      <point x="910" y="-293" type="line" smooth="yes"/>
      <point x="919" y="-430"/>
      <point x="987" y="-512"/>
      <point x="1144" y="-512" type="curve" smooth="yes"/>
      <point x="1299" y="-512"/>
      <point x="1372" y="-431"/>
      <point x="1372" y="-277" type="curve" smooth="yes"/>
    </contour>
  </outline>
</glyph>
